<mxfile host="app.diagrams.net" modified="2024-06-25T16:42:05.351Z" agent="Mozilla/5.0 (X11; Linux x86_64) AppleWebKit/537.36 (KHTML, like Gecko) Chrome/126.0.0.0 Safari/537.36" etag="2PDv7PCK7KINKWXA8_dR" version="24.6.3" type="device">
  <diagram name="Pagina-1" id="RdWZvVCggfIMJyopMi2H">
    <mxGraphModel dx="906" dy="1789" grid="1" gridSize="10" guides="1" tooltips="1" connect="1" arrows="1" fold="1" page="1" pageScale="1" pageWidth="827" pageHeight="1169" math="0" shadow="0">
      <root>
        <mxCell id="0" />
        <mxCell id="1" parent="0" />
        <mxCell id="EplgCJx75FvECkNWApzD-5" value="" style="shape=image;verticalLabelPosition=bottom;labelBackgroundColor=default;verticalAlign=top;aspect=fixed;imageAspect=0;image=data:image/png,iVBORw0KGgoAAAANSUhEUgAAAw0AAALbCAYAAAC48WxmAAAACXBIWXMAAA7EAAAOxAGVKw4bAAAALnRFWHRDcmVhdGlvbiBUaW1lAFR1ZSAyNSBKdW4gMjAyNCAwNjoyNjoxNyBQTSBDRVNUNWuKagAAABl0RVh0U29mdHdhcmUAZ25vbWUtc2NyZWVuc2hvdO8Dvz4AACAASURBVHic7N3pcxxXfu755+RWharCvhMbN5EitZBaelF73IvtvrcnHPc67BnPzLv2S/89M28mHOEXjvCbvrdvXHW4Pfb12GO13e5uqVtqyVqonTsJEGsVUFtuZ16oSBEEmCpwQRbA7ycCQUYCJ+tXVQeF8+Q5mWmstVYAAAAAcB9O3gUAAAAA6G2EBgAAAACZvLwLAABgN2EYanNzUxcvXtTGxobCMMy1nkKhoOHhYR0/flyVSkWex59QAE8OPvEAAD0lTVPFcazPP/9cFy5c0Lvvvqvl5WU1m81c6yqXy5qcnNT58+f19NNP6+jRozLGyBiTa10AsB8IDQCAnhLHsdbW1vTjH/9Yf/VXf6WtrS1FUaQ0TXOty3EcFYtFjY6O6s/+7M/053/+5wqCQK7r5loXAOwHQgMAoKfU63V98MEHunDhgi5evKg0TdULF/qbnJjQ8OCgCkGgzz77TK+++qo8z9v3mQbHGDnGKLVWaY6vi+nUIklJzu/P7dcksTa3vnL7tbBSrv319uyXzfG1uLsO5dxPJakQBBoZHtbz586pf2Ag11oOMkIDAKCn1Ot1ffTRR1pcXFSSJHmXc8fkxITOnjqloUJBzsaGfvm3f5tLHbGkpjEqWKsglwq+YCU1O+GhL8c6JKltjCJJRWtzG9g0JCWSyjlfZSaU1DBGpZz7R9LpH24P9A9TLGr62DEdPXaM0PAQCA0AgJ5irVUcxz0VGCTJ9TyNFQr6frGoESe/YeHFJNE/haFe9H2dzfFk7Ja1+qcwVNEY/X6Q5/BUejOOdSGO9b0g0HRO781rYaiqtfr9IFAlx/NcPkoS/XMY6htBoKdyXDpX6/SPUcfRt30/tzok6Y0k0Wq9riTnJY4HHaEBANBzdluS5BijwUJBg4WChgqFrvaz2mzq6ubmtm2z/f0a6+vu2Ge13dZGu61quy0Zo4Lratp1NZFjaKh1Xpdhx9FcjoPCurUqGKOSMbnWIUmfJokcSRM5viZlY9S0VkdcV4M5hoblzu/OaM7vy1qaKujMvOTdP96PYy0lSU8sczzICA0AgAPBMUbTlYpODw/r1PBwV23eWV7eERqeGR3V+YmJrtp/sr6uj9bXtZXz5V4BIG+EBgDAgeAaoyPlss5PTOh3Z2fVzbHcxFr9/cWL27Y9MzamHxw71tVjVoJAm1GkzzY2HrBqADgcCA0AgAPBGKOK72uiVNKxwcGuQsNuy5BG+/p0bHCwq8f8eH1dFd/P9cRWAOgFfA4CAAAAyERoAAAAAJCJ0AAAAAAgE6EBAAAAQCZCAwAAAIBMhAYAAAAAmQgNAAAAADIRGgAAAABkIjQAAAAAyERoAAAAAJCJ0AAAAAAgE6EBAAAAQCZCAwAAAIBMhAYAAAAAmQgNAAAAADIRGgAAAABkIjQAAAAAyERoAAAAAJCJ0AAAAAAgE6EBAAAAQCZCAwAAAIBMhAYAAAAAmQgNAAAAADIRGgAAAABk8vIuAACAbqTW6lazqQ9XV1XxfRljvrLNJ+vrO7Z9ur6un1+/3tVjXlhd1a1GQ4m1arfbqtfrCj1Pqe/L6eLxAeCwIDQAAA6EOE318dqaVppNvb642FWbW43Gjm2vXb2qC2trXbVfa7W01mwqSlNtbm5qZXVVzb4+xa6rwHX3/BwA4KAiNAAAekqSJGo2m4qiaNt2a602w1Bhkmit2exqX60k2bFtudnUZhh21T5MErWTRNZara2t6c0w1P9586Z+sLCg7y8syHMcZhwAPBEIDQCAnhLHsarVqlqt1rbtVlK7M4h/GFthqK0HaOcYo7YxutBqaabd1nwcy88hNNxMEsla3UpTfRzH+/rYd2tLalir1Npc65Ck1TRVYq2uJolCa3OpoWqtmtbq8zhWOccguZSmkqSbaaq+HN+XTWvVslbVHugf62kqov3DIzQAAHpKGIZaWlrS5uZm3qVsMzc7qxPHj8svFLTp+3q1MxOy34ORtBOg3owivX3PbMx+spJia2Uk/Zd7At5+Szpf/xyGuV3hJbRWqaS/abdzvcrM7eH5r6JIv8mxf6SSImu1lqa6+pBB/2ElkqZz+F09bAgNAICe4nmeBgYGVCwW8y5lm6BQ0FR/v14qFNTv5DcsXEpTvR1FOuW6ms/xvIpQ0jtRpMAYnfPyHU58miS6miQ65/sayeko/7/HserW6rznqS/HmYZraap3okhnPU8zOfbThrV6O441YIyezbl/fJQkCjtBFw+O0AAA6Cm+72tkZESlUmnbdiOp4HkquK6KXQ6Wm3Gs2j3nLwwEgfq6HMS0k0StJFE7jmUcRwO+rxeDQBM5Dsbej2O9E8c64Xn6uu/nVkfdWl1KEpWN0e8EQW51qDM7tZimes7zdDSnILWUplpJU30tCDSYY2h4K4r0ThTptOvqXI79Yy1N9VmSaNJxcu8fm+22Ps+1gsOB0AAA6Cmu66pSqahQKGzb7jiOjlQqmu/v1/zAQFf7+mR9Xb+8cWPbtrNjYzo1PNxV+6ubm7pcq+lKrbaHZwAAhw+hAQDQU4wxcl13x30YXGM0XS7r/MSEvjY11dV9GgLX3RkaRkf1BwsLXdXy68VFRWmq6z12fgUA7DdCAwDgQHCM0Xhfn06PjOhbMzNdndS42wzBiaEhfevIka4eczMMdalalctlVQE84fI8wR8AAADAAUBoAAAAAJCJ0AAAAAAgE6EBAAAAQCZCAwAAAIBMhAYAAAAAmQgNAAAAADIRGgAAAABkIjQAAAAAyERoAAAAAJCJ0AAAAAAgE6EBAAAAQCZCAwAAAIBMhAYAAAAAmQgNAAAAADIRGgAAAABkIjQAAAAAyERoAAAAAJCJ0AAAAAAgE6EBAAAAQCZCAwAAAIBMhAYAAAAAmQgNAAAAADIRGgAAAABk8vIuAACAblhr1UoSVdtt3Wo0ZLpoUwvDHds2w1C3Go2uHrPabqsVx7KS0jRVHMdKrZWVunp8ADgsCA0AgAMhtlYfra2pFcf6YHW1qzafrK/v2Pba1au6sbXVVfsrm5u6UqspSlNtbm5qZWVFDc9TUizKc5isB/DkIDQAAHpKmqaKokhJkmzfbq2WGw3Vo0iXa7Wu9rW5y0zDJ+vrWqrXu2pfjyI14liJtVpfX9eHly/r/9nc1CtTUzo3Pi7XGBnDnAOAw4/QAADoKWmaql6vK4qibduttdqKIm3ds32vVptNrTabe25Xq1b1fr2uSzduqJ0kOj4yooLryn2oavYusvbOv+3O//MQWqvUWiVSrnWoMwt1u6a8akkkpZ3Xop1LBV+IO/9GOb8voSTbeV3y7h9JFz+Dr0ZoAAD0lHa7raWlJdW6nE3YL/Ozs5qdmZEfBKoNDOjVKJITx/t+bkO9MwD7bRzrsyS/4VAiadlaudbqR61WbnVI0nqaKrRWr4WhijnN/Cx2avhpu53r4Kra6R+/iiJ9EMdf+fOPS2StVtNUWz3QP1atVdkYzkN6SIQGAEDPsTkfmdzN4NCQTszOar5QyG1gqrsue+jk/Efc3PWV92DCMUayVm6Otdx+LfKsQZ3HVw/UYTuD9Lz7qTo19N4nysGT9/sIAMA2vu9rbGxM5XI571K2Ma6r0SDQ/1wsaiLHk6A/iGP9uNXSi76vr/l+bnU0rNV/bbVUMkZ/WizmVockvRaG+k0U6buFgo66+71g7AuvtlpaSVP9p0JBgzn2j99Gka4lib7h+zqXY/9YS1P9uNXSlOPoP+fcP/5Hu61Lnaue4cERGgAAPcXzPPX396tQKGzb7hijyVJJE52vblzf2tpxpaUzo6OarVS6an+r2dStRkO3bp84bYzcu47m5uHumYa86zA9UIfuek3yfG/uzDR0+kheeuG1uP34d8++5InrnD0ahAYAQE9xHEeFQkGet/1PlGuMpisVPTc+rufGxrpan/yrmzd3hIZnRkf1ypEjXdXy7sqK3l1ZeaATpwHgMCE0AAAOBMcYHSmX9cL4uP5gYaGrS51uRZH+60cfbdt2dnRUPzh2rKvH9BxHq82mPlhZeeC6AeAwIDQAAA4EY4w8x1HB81QOgq5mGgq7rG8veJ7KXa71LnqePMfhqisAnngs8wIAAACQidAAAAAAIBOhAQAAAEAmQgMAAACATIQGAAAAAJkIDQAAAAAyERoAAAAAZCI0AAAAAMhEaAAAAACQidAAAAAAIBOhAQAAAEAmQgMAAACATIQGAAAAAJkIDQAAAAAyERoAAAAAZCI0AAAAAMhEaAAAAACQidAAAAAAIBOhAQAAAEAmQgMAAACATIQGAAAAAJkIDQAAAAAyERoAAAAAZCI0AAAAAMjk5V0AAADdSNJUF6tV/cu1a1ppNrtq8+bi4o5tr9+8qdTartpfWF3VxWpVsbWq1+taX19Xa3RUSaEg15g9PwcAOKgIDQCAnmKtVZqmsvcM7BNrdXlzUxvttt5bWelqX+ut1o5tby4t6WK12lX7WrutWhgqTlPVajVdvXlTH1krb2hIU+WyjDEiOgB4EhAaAAA9JU1TNZtNRVG0fbu12gxDNaNIy41GV/uKd5lRWG40tN7lTEVirWJrlVqr1dVV/WZrS4tXr+p/PXVK//vp0wpcV4YZBwBPAEIDAKCnhGGolZUV1ev1Hd9L0lTJw+4/SRQ+QLvhoSGNjYzICwJd7evTz+NYbpLI2efQcCtNJUmfxLGaXS6zehxCa1VNUzWM0c/CB3lFH53LSaLYWr0TRbqcPGwPeTCLaaq6tfpVGKqYY5C80Xn+F+JYGzn2j4a12rRWNk1z7x/X0pSTeB8BQgMAoKfEcayNjQ01u5wN2C/Tk5M6e+qUKp3zGX4Tx7nUkUgyki4mia7mNECWJCspkiRr9cucB4Vx53V5P45zGxw2O7Nhb0ZRrgPU2/NznySJLuXYP1JJLWvVMEbVnPtHZIymWEr40AgNAICeEgSBxsbGVC6X8y5lG8fzNFoo6HvFooad/IaFl5NEr4WhXvR9Pe3l92e8Za1+1jmq/p0gyK0OSXo7ivRRHOu7QaBJ182lhn8NQ1XTVN8rFFTOcabhkzjWz8JQ3/R9ncixf2ymqV4LQ404jn4n5/7x6yjSmrXKb97lcCA0AAB6iud5GhoaUl9f37btjjEaCAINFAoa6HIQstZq6cbW1rZtRyoVjRSLXbWvheGdk6FljAquqznX1USOoeH2kqQxx9HxnAbIklS3VkVjVDYm1zrUCVKOMZp2XR3NqZa3jVHbGM27rgZzDA0bneVrEzn3jzVjVDBG/T3QPz6OY63mWsHhQGgAAPQU13VVLpcV3BMMHGM0XanoqeFhPTU0JHUxMHt3eXlHaHhmdFTPT0x0Vcun6+v6ZH1d9fX1PT4LADhcCA0AgAPBNUZHymW9MDGh/2lmpqs2qbX6h0uXtm07OzamHxw92lX7f/N91aNIn3d5iVYAOKwIDQCAA8EYo/4g0FS5rJPDw12d1Di5tLRj20SppKeGh7t6zM+rVfUHAVdeAfDE43MQAAAAQCZCAwAAAIBMhAYAAAAAmQgNAAAAADIRGgAAAABkIjQAAAAAyERoAAAAAJCJ0AAAAAAgE6EBAAAAQCZCAwAAAIBMhAYAAAAAmQgNAAAAADIRGgAAAABkIjQAAAAAyERoAAAAAJCJ0AAAAAAgE6EBAAAAQCZCAwAAAIBMhAYAAAAAmQgNAAAAADIRGgAAAABkIjQAAAAAyERoAAAAAJCJ0AAAAAAgk5d3AQAAdCO1VivNpj5dX9cbxaJMF20uVqs7tl2qVvXGzZtdPeYn6+tabTaVWKswDNVoNBT5vlJj5JhuKgCAw4HQAAA4EOI01cfr61prtfTrpaWu2tzc2tqx7bWrV/XR+npX7VeaTa00GorTVJubm1pZXVWjWFTsOApcd8/PAQAOKkIDAKCnJEmiVqulOI63bbfWqhaGaieJVprNrvbVvGcfkrRYr6vabnfVvp0kaieJUmu1tramt6JI//fiov7DwoK+Nzcnz3GYcQDwRCA0AAB6SpIkqlararVa27ZbSa04VmuXILAXm2GozTDce0NrVY9jvbW1pYlGQ/NxrMB19z003EpTSdJqmupikuzrY9+tZa1a1kpSrnVI0kaaylqrm2kqm1MNm53X40qSqJJjkFzu9I9bOfePWpqqba02rc29f1St7Wo5I7IRGgAAPaXdbmtpaUmbm5t5l7LNwtycTh47JhMEqgWBXo0imSja9zrSzlVM3ooivZPD498tkmQk/ajLmZ/HJZWUSHqt3c5tcNiSlFirn7ZauQ5Qb/eIX0WR3syxf9hOsNywVtdz7h+xMZoyhuDwkAgNAICe4nmeKpWKgiDIu5RtgkJBUwMDeq5QUMXJ7+KDy2mq9+NYR11XMzmeVxFZq/fjWL4xesbLdzhxKUl0I0l0xvM0lNN7834cq2GtnvM8FXOcabiRJHovjnXSdTWdY/9oWqv34lgVY3Qm5/7xaZIosXnNQR0ehAYAQE/xfV8jIyMql8vbthtJgeve+epGK45Vv+doa9n3VexyEBMmyZ0vOY4qvq+vB4EmcgwN78ex3otjPeV5+rrv51ZH3VpdS1OVjdF3cw54/xyGWkpTnfd9Hc1poLyWplpJU70SBBrMMTS8FUV6L4511vN0Lsf+sZamupwkmnKc3PtHq93W553ZDzw4QgMAoKe4rqv+/v4dMw2OMZquVDTX36+5/v6u9vXZxoZev+fyqs+Mjurk8HBX7a9tbupq5wsAnmSEBgBATzHGyHVdOfcczXcdR0fKZZ2fmNDLk5MyXRzNfe3q1R2h4ezYmH5vfr6rWt5cWlJirW7sculWAHiSEBoAAAeCY4wmSiWdHR3Vt+fmujqpcbfB/lPDw/r27GxXj9mMY12p1eRyWVUAT7j8FmUCAAAAOBAIDQAAAAAyERoAAAAAZCI0AAAAAMhEaAAAAACQidAAAAAAIBOhAQAAAEAmQgMAAACATIQGAAAAAJkIDQAAAAAyERoAAAAAZCI0AAAAAMhEaAAAAACQidAAAAAAIBOhAQAAAEAmQgMAAACATIQGAAAAAJkIDQAAAAAyERoAAAAAZCI0AAAAAMhEaAAAAACQidAAAAAAIBOhAQAAAEAmQgMAAACATF7eBQAA0A1rrcI0VT2KtNFqyRjzlW0aUbTrto12u6vHrEeRwiSRlZSmqZIkUWqtrKSvfnQAODwIDQCAAyGxVh+vrSlMEn24ttZVm492+bnXrl7VUqPRVftL1aou1WqK0lRbW1taWVlRc3JSSbEoz2GyHsCTg9AAAOgpaZoqiiKlabpte2KtFhsNbUWRLlarXe2rFoY7tn28vq7Fer2r9vUoUj2KlFir9fV1fXzliv7fel3fmJzUM6Ojch2HGQcATwRCAwCgp6RpqmazqfCeAb+1VlthqK1dgsBeLDcaWu5ypuFu6+vr+m21qo8vX9bWM8/oxNCQCsbI6WKZ1KNkO/+mkpJ9feTt0k4tNuc6bteinF+T2+9LYq2Sfe4Tu9XRC/1DPdI/bBc/g69GaAAA9JQwDLW4uKjNzc28S9nm6NycZo8cket5qg0N6dUokhPH+z7TsGWtPElvR5EuxvE+P/qXEklraaqqpP/SbOZWhyStWavEWr0WhurLqYbraaq2tfppuy0/pxokacNaGUm/iiJ9mGP/CDv9o2Ft7v1j2VqVjGFW8CERGgAAPcVa+8UJx/csT8rb8PCwnpqf13QQqGCM0ruOpu6n28PARNLO07z3T9J5/ibnOtQ5ui9JsbWKcjrKf3vmJbJWynGmIe68Fnn3j7hzwYC0B/pHb32SHFyEBgBAT/F9X2NjY6pUKnmXso11HA35vn5QKGg8x5OgP4xj/fd2W+c9Ty/5+R3Tblir/95qqWSM/rhYzK0OSfrXMNRbcazvBoHmXTeXGv6m3dZqmuo/FYsayDE0vBPH+kmrpW/4vp7z8hvmrVurV1stTTiO/rBQyK0OSfrHMNSVTojBgyM0AAB6iud56u/vV+GegYZjjMZLJY339Wm8VOpqXze2tnZcQen0yIiOdBlIVhoNLTebd86BMMaoYIyKOQ4K/c5j+znXkXTeEzfnOiTJ6zx+kGMtbufmV7n3j86/gZRrHYXOMik35zrEYPeR4XUEAPQUx3FULBbl3XOU1DVGR8plPTs2pmfGxrpan/zG4uKO0HB2dFTfnJ7uqpb3V1f13sqK1lqtPT0HADhsCA0AgAPBMUbTlYrOT0zo9xcWugoN9TjWf/v4423bnhkd1Q+OHevqMQPX1VqrpQurqw9YNQAcDoQGAMCBYIxR4Dgq+b4GC4WuQkNplzXdfZ323Sj5vnzuxQAA4naWAAAAADIRGgAAAABkIjQAAAAAyERoAAAAAJCJ0AAAAAAgE6EBAAAAQCZCAwAAAIBMhAYAAAAAmQgNAAAAADIRGgAAAABkIjQAAAAAyERoAAAAAJCJ0AAAAAAgE6EBAAAAQCZCAwAAAIBMhAYAAAAAmQgNAAAAADIRGgAAAABkIjQAAAAAyERoAAAAAJCJ0AAAAAAgE6EBAAAAQCZCAwAAAIBMhAYAAAAAmby8CwAAoBtJmupyraZf3LihWhjKdNHmN4uLO7a9ubgo3+numNl7Kyu6XKsptlaNRkMbGxtqjY4qCQK5ppsKAOBwIDQAAHqKtVZpmspau217Yq0u1Wpab7f178vLXe1rrdncse2NxUV9Vq121b7abqvabitOU9VqNV1fXNRFY1QcHNR4X58MwQHAE4LQAADoKWmaqtlsKoqi7dut1WYYqhnHWmk0utpXlKY7ti03GtpotbpqH1urOE2VWqvV1VX9pl7X8rVr+pOTJ/W/nDqlwHXlEBwAPAEIDQCAnhJFkdbW1tTYJRjEaap4lyCwF+0kUTtJ9txuaGBAo8PDin1flwoF/SqO5aVpV8ukHqVbaSpH0sUkUXTPbMx+iiRtpqnaxujfwjC3OiTpWpIotVbvx7GuP8B7+yjcSlNtWavfRJGKuVTwheud34+Pk0RbOfaPprXasla30jT3/nEzTeVK+/67etgQGgAAPSWKIq2urqper+ddyjazR47o7OnTCjxPqTH61zjOrRZX0sdxrI9zq+ALRpKs1f+X86DQdL7eumd2aj9F1spK+rcuz7d5XJLOa/F+HOvDHOuwnSWFW5KWHjLoPwozxhAaHhKhAQDQU3zf19jYmCqVSt6lbOc4GvI8fbtQ0GCXJ1I/DleTRD+PIr3s+3rKdXOro90ZIBeM0e/4fm51SNJ7caxP4ljfDgJN5PTe/CKKVEtTfTsIVMpxydpnSaKfh6G+6fs6lmP/2LJW/xqGGnYcfTPn/vHbONaGtco/uhxshAYAQE/xPE9DQ0Pq6+vbtt0Yo/4gUL/vqz8IutrXRrutxXtmLKbKZQ0VCl2134wibYahtsJQ1hgVXFdHPS+3gakkxZJsFGnCcXTay+/PeN1avWmMysbkWock3UhTGWM057o6mtNA+f04VmSMjnueBnMMDfXOkqTpnPvHWprq18ZosAf6x8Uk0VquFRwOhAYAQE/xPE+VSkXBPcHANUZHymWdGB7WyaGhrpYavLeysiM0nB0d1fPj413V8unGhj7b2NCn6+t7eg4AcNgQGgAAB4JjjKYrFb0wMaHfOXKkqzZW0j9evrxt2zNjY/qPR4921b7/xg01o0gXu7xEKwAcVoQGAMCB4BijwSDQTKWip0dHu5ppeGeX+zlMlcs6Mzra1WNe2dzUQKGg/BYjAUBv4HMQAAAAQCZCAwAAAIBMhAYAAAAAmQgNAAAAADIRGgAAAABkIjQAAAAAyERoAAAAAJCJ0AAAAAAgE6EBAAAAQCZCAwAAAIBMhAYAAAAAmQgNAAAAADIRGgAAAABkIjQAAAAAyERoAAAAAJCJ0AAAAAAgE6EBAAAAQCZCAwAAAIBMhAYAAAAAmQgNAAAAADIRGgAAAABkIjQAAAAAyERoAAAAAJCJ0AAAAAAgk5d3AQAAdCO1Vmutli5Vq3r71q2u2lyp1XZsu7q5qd922f5itar1VkuptYqiSM1mU5HvKzVGjjF7fg4AcFARGgAAB0Kcpvp4fV0b7bbeXFrqqs31ra0d2167elWfrq931f5Wo6HlRkNRmmpzc1Mrq6tqFgpKXJfQAOCJQmgAAPSUNE3VarUUx/G27dZaVdtttZJEtxqNrvbVvGcfknRja0sbrVZX7VtJonYcfzHLsbamt+NYf3nrlv5gbk6/Ozsrz3EIDwCeCIQGAEBPieNYm5ubat0zsLedELBbENiLWrutWru953ZpkqjaaukXSaLhoSEtJIl8a+Xuc2hYS1MZSRtpqmtJsq+PfbemtQqtlSPlWockbaapZK2W0zS3gU3dWoWSbiSJNnMMkutpKklatTbX96XW6R/1nOuQpK1OP8XDITQAAHpKGIZaXFzU5uZm3qVsc3x+XieOHZN1XdUKBb0ahjI5DA4TSb6kt6NI7z5kgHoYVlJkrYykH3U5c/O4JNYqlfSzMFRew/W6tUqs1U/b7VwHqO3Oe/J6GOq3OYaXVFIjTVWzVos5949I0qQxBIeHRGgAAPQUx3FUKpUUBEHepWwTFIuaGhzUmSBQKcfB2Jq1+jiOdcR1NenkNwyKJX0cx/KM0SnXza0OSbqWplpKEh13XfXn9N58lCRqWKsznqdCLhV8YTFN9WEcay7n/tGSdCGKVHEcPZVz/7iUpoqtlc21ioOP0AAA6Cm+72t0dFSlUmnbdiPJcxz5riu/y8FQmCQ7ljP1eZ6CLgcxUZoqSlPFSaLUGJU9T68EgSZyHIy9H8f6II51yvP0dd/PrY66tVpMU5WN0fcLeQ6TpX8OQ91KU73o+zqa0wB1s9XSSprqd4NAgzmGyreiSBfiWM95ns7l2D/W0lTXk0RTjpN7//j7dlufd2bH8OAIDQCAnuJ5niqVigr3DDQcY3SkUtFMf79mK5Wu9vV5tarfLC5u23Z2dFQnhoa6an99a0vXtrZ0vceWSgHANvJnPgAAIABJREFUfiM0AAB6ijFGnufJuedovus4mq5U9MLEhF6cnOxq7fq/XLu2IzQ8Mzam787NdVXLW0tLSq3V4i6XbgWAJwmhAQBwIDjGaKpU0rNjY/q9+fmuQsNul2Y9PTKi35uf7+oxozTV9a2tfb9CEgD0Gk4kBwAAAJCJ0AAAAAAgE6EBAAAAQCZCAwAAAIBMhAYAAAAAmQgNAAAAADIRGgAAAABkIjQAAAAAyERoAAAAAJCJ0AAAAAAgE6EBAAAAQCZCAwAAAIBMhAYAAAAAmQgNAAAAADIRGgAAAABkIjQAAAAAyERoAAAAAJCJ0AAAAAAgE6EBAAAAQCZCAwAAAIBMhAYAAAAAmQgNAAAAADIRGgAAAABkIjQAAAAAyOTlXQAAAF2xVom1itNU7TiWMeYrm0RpumNbnKZqJ0lXDxmlqVJrZR+oYAA4PAgNAIADIbFWN+t1/fbWLaW2u2H8+ysru277+4sXu2r/78vLurG1paTLxwOAw4rQAAA4EFJrdWNrS6m1urm11VWba5ubO7Z9sLqqzTDsqv1So6Glel3JLjMWAPAkITQAAA6EpBMWbtbr+uqFSV+wu8wQvL+yog9WV7tr/8VOWJ4E4IlHaAAA9BzXdeU4O6/V8SgG8fY+YeKrpGmq1TDU/5DUt0tt+2XDWqWS3ooiXeny3IzHIZZ0K03lGqMft1q51SFJi2mqlqTXwlCVLs51eRyupKla1upvWy0FOdUgSavWyhij1+NYn+TYP9rWas1aNdM09/5xM021tb6uH//4xyqXy7nW0guMMSoVizpx4oS++a1v7fpZuxtCAwCgp/i+r9HR0Z77475Zq+nzxUVd8TzNz8/r6NGj8jyvqxOyH6WSMTrbCT/tnM+1mO8897zrGDFGo50w2M6phqnOa5FnDZLUb4yeNeaLOnJ+X472SP9IlpYUr65q+e23Vc21kt5gjVG9WFQcx/rGK6903Y7QAADoKZVKRc8++6ympqbyLmWbK1ev6ubionzf17lz5/TDH/5QlUpFnre/f0qNJN01QM2ToY6eqqGX6uilWl599VW9/Y//qP9QKGgix1nCXtG2Vn/TbqvebO6pHaEBANBTCoWCZmdn9Yd/+IcqlUq6du2aGo3GAw08rl27pg8++GDbtrNnz2p2dnbP+3IcR5VKRceOHdP3vvc9TU1NKQiCrqf2AeSjUCjIdGbp+nNcOtYrfEmutUr3eIEHQgMAoKf4vq/h4WF95zvf0YkTJ3ThwgXVarU9/4GTpJ///Oc7QsP58+f17W9/e8/7cl1Xw8PDeu655zQ1NaVisbjnfQDAQUVoAAD0pIGBAZ08eVKzs7NKkuSBZhrq9br++q//etu28+fP64//+I/3vC9jjFzXValUku/7e24PAAcZoQEA0JM8z5PneSqVSg+8j/7+/l23TUxMPGR1APBkYSEmAAAAgEyEBgAAAACZCA0AAAAAMhEaAAAAAGQiNAAAAADIRGgAAAAAkInQAAAAACAToQEAAABAJkIDAAAAgEyEBgAAAACZvLwLAAAAAA6KWrut61tb+vflZV3b2nqoffmOo4LrquR5Gi4WNVEq6ejgoIaLRflObx3bJzQAAAAAXaqFoT5cW9N/+/hjvbG4+FD7Krquyr6v4WJRs/39Ojk8rG9MT+vU8LAmSiUFrivXmEdW+8MgNAAAAAA5CNNUSRiqEcdaaTb10fq63lxa0suTk/rPJ09qrr9fQ4VC3mVKhAYAAAAgH6m1Sq1VlKZqxrGq7bbWWy2FSSJjjP7j0aN6bmxMvusq7/kGQgMAAADwiLjGyO3ifATbCQyptbK3t0lqxbE+WVvT9c1NzVQqOjowoKFiMfdlSoQGAAAA4BEZL5U0PzAgzxg59xnop9aqnSS61WjoVqOhKE2VWnvn+7G1qkeR3r51S1Plsn53dlYlL99hO6EBAAAAeETm+/v1vbk5lXz/vldASq1VmCRarNd1qVbTeysrWm021U6SO99PrdXnGxv6aG1N35yelggNAAAAwOFwYnhYf3TypEaKRRW+YqDfiCJ9vrGh/+utt/Tm0tKd0HDbzXpdV2o1xWn6mKv+ar11AVgAAADgADO3v4z58v/3+Sq4rsZLJb08NaWTw8M79rUZhqqG4balS3khNAAAAAA58BxHZd/X/MCAxkulHd+3naVKvYDQAAAAAOTESHKM2XVQXvF9DQbBfU+o3k+EBgAAACAH1lq1kkSfbmzoxtbWju9Pl8tfXImpi0u4Pm6cCA0AAAA8Iu0kUTUM5RijwHXv+3OptWrEsa50rp50/a7QYIyRa4yODg7qqeHh+16FaT8RGgAAAIBHZLnR0Du3bqkSBAruM9hPOjMMn6yv673lZX24tqa1VuvO9/3OuQ7Pj4/rhYmJzPCxXwgNAAAAwCNysVrV31+6pMBx7nsX51RSlKZaqtd1s15Xrd1WlKYykoqep+NDQ/rm9LTOT0xotK+vqztMP26EBgAAAOARubq5qaubmw/U1hijoWJRz42N6f94+mlNlcsq9MAsgzgRGgAAAOgNrjGa7+/XwsCASp7XEydA39Y7lQAAAABPsFRStd3WR2tr+vtLl/Tu8rJWmk0lPXCvBpYnAQAAAI+I07nykTr3YNiNvetfa61Sa2UlJWmqD9fW9OnGhv7h8mX9b6dO6QfHjuncxISKnnff/e0HQgMAAADwiJwcGvpikO+69z0R+vbVk6rttlaaTX2+saHNMLwzo5BYq3aS6F+vX1eUphosFDTX369KEOzzs/kSoQEAAAB4ROb6+/WduTkNdHHJ1Wq7rVv1ut6rVPTh2po+39iQtVbWWiXW6lK1qoLr6tmxMRVcl9AAAAAAHAbjpZLOj49ruFhU0bvPULuzHMlKasexLtVq+smnn+pKraY4TWXvmnG41Wjon69e1US5rONDQ/v7ZO7CidAAAADAI3L7nAavc5+GXb8cR57jyHcc9fm+5vr7dWp4WKeHh3fMJjSiSJ+ur2u12cztOYnQAAAAAOTHNUaDhYKmKxUdHRxU+Z7ZiXaSaLFe11YY5lajCA0AAABA/vo8TyN9ffLvuZlbYq2aSaI4TXOrTYQGAAAAIH+NKNKtel3tJNm23RgjzxiZ+1yJab9wIjQAAACQg9v3ZqhHkW7W67pcq6kRRdt+xjNGlSBQ4Z4ZiP1GaAAAAABykFqrWhjq9Zs39csbN3SpWt0x01D0PM1WKhrI8XKrIjQAAAAAj86VWk3/dOWKKkEgf5f7NMRp+sWXtWrHsartti6sremjtTU14njHz/cHgc6Nj2uqXN6nZ7A7QgMAAADwiHy4tqZquy3PdeXsch5CM47VjCKFaap6GKoRRYo6N3S7l+c4Guvr09empzXT379Pz2B3hAYAAADgEamFocIkue+Jy2nnbs+ptUrSVMl9AoMkzVQqem5sTM+OjWmsr+8xV56N0AAAAAA8ImGSKLznvIS96vM8jfb16RvT0/rWzIymy2X13e/u0vuE0AAAAADs1SO+BOqdvRmjkWJR5ycm9IfHj+sb09O5XzlJhAYAAACge44xClxXA0GgkWLxofblO44C11XBddUfBBru69PRgQGdGBrSqeFhLQwMyHfd3O/RIEIDAAAA0L2i52mqXNaLk5MaKhQeal++66rgOCp6ngYKBY329enE0JDm+vs1USop/6jwJUIDAAAA0KWhQkHPj4/r6ZERxWn6UPsyxsh0liYZY+QYI89x5Ha29xJCAwAAANAlpzO43+0eDIfZk/VsAQAAAOwZoQEAAABAJkIDAAAAgEyEBgAAAACZCA0AAAAAMhEaAAAAAGQiNAAAAADIRGgAAAAAkInQAAAAACAToQEAAABAJkIDAAAAgEyEBgAAAACZCA0AAAAAMnl5FwAAAAA8Lp7nKfR9/SKKVM67mB6QSFp3XY37/p7aERoAAABwaI2MjGhiYUHL7baW0jTvcnJnjNFAoaCJiQkZY7puR2gAAADAofXyyy/r9KlTSq3Nu5SeYYxRuVQiNAAAAACSNDg4qMHBwbzLOPAIDQCAA6nVaqnVaqndbsve5whirVbbddvi4uKuP2+MUV9fn4rFooIgeOQ1A8BBZez9PmkBAOhhP/vZz/Tzn/9cv/rVr9RqtXb9mevXr+vChQvbtj399NOanZ3d9eeLxaJ+8IMf6Fvf+pbOnz+/p6l7ADjMmGkAABxIaZpqeXlZ//Iv/7LrjML9fPjhh/rwww93bDfGaGBgQN/4xjfkuu4jrhYADjbu0wAAOJBOnDihp59+Wv4eLxt4P8YYFQoFnT59WseOHWOWAQDuQmgAABxIY2NjWlhY0MLCggYGBh56f+Pj43r++ec1OTmpvr6+R1IjABwWhAYAwIFUKpU0NTWlp59+WqOjow+9v8nJSb3wwgsaGxuT57F6FwDuRmgAABxYg4ODevnll3XkyJGH3tfU1JRefvllDQ0NPZLaAOAwITQAAA6soaEhfe1rX3uo0GCMURAEmpmZ0fnz5x/JUicAOGwIDQCAA6tSqejpp5/WzMyMyuWyHGfvf9Y8z9PIyIhmZ2d19OhRlUqlx1IrABxkhAYAwIHl+76Ghoa0sLCgY8eOqVAo7HkfxWJRzzzzjI4dOybf9x8oeADAYccnIwDgwDLGyPM8HT16VM8999wDXfWor69Pzz//PJdZBYAMhAYAwIF39OhRnTt3TuVyeU8Df8dxVC6X9eyzz2phYeGx1ggABxmhAQBw4M3NzenZZ59Vf3//npYX9fX1aWJiQidPntTk5ORjrREADjJCAwDgwBsYGNCRI0e0sLCg4eHhrtuNj4/rqaee0vj4ODd0A4AMhAYAwIHn+76Gh4d15swZTU9Pd91udnZW586dU39/P+czAEAGQgMA4FAol8t6+eWXdezYsa7bLCws6KWXXlKlUnmstQHAQUdoAAAcCrdPaJ6fn5fv+5kzB67rqlKpaH5+XqdOnWJpEgB8BUIDAOBQKBaLeuqppzQ3N6e+vj65rnvfnw2CQBMTE5qdndWRI0ce6P4OAPAkITQAAA4FY4yCINh2nsL9DAwM6KWXXtLc3BznMgBAFwgNAIBDwRgjx3E0OzurF154QQMDA/f92btDAwDgqxEaAACHyuzsrF566aXM0NDf36+XXnpJs7Oz+1obABxUhAYAwKEyNjamM2fOaGJiYtcTnEdHR7WwsKCZmZnMJUwAgC8RGgAAh8rAwIDm5uY0Pz+vkZGRHd+fmZnRqVOnNDIywgnQANAlQgMA4NApFAp69tlndfLkyR3fO3HihJ577jkVi8VcagOAg4jQAAA4dIIg0DPPPKPjx4/f2Xb7ROljx47p7NmzzDIAwB54eRcAAMCjFgSBTp8+rWPHjsn3fSVJIsdxVCgUdPToUZ04cUJBEORdJgAcGIQGAMCh43meJicntbCwoPn5eS0tLalQKOj06dOamZlRqVTi/gwAsAcPFBqSJFG73datW7e0tbWlKIoefWVdsNYqTVO1223FcaxisSjP8+Q4+7/qKk1TRVGkdrst3/dVKBRkjNn3P0ppmt55Tay16uvrk+M4+17H7fcmDEOFYahisSjf9/f1vbHWKkkShWGoJEnu9I88BgpJkiiOY7VaLRUKBQVBkFs/vf37a4xRsVjMpX/c5nme+vr6NDExoXK5nHkHXzx54jhWs9nU8vKy6vW64jje8z5qtZpGR0e1vr6uIAg0NjamtbU1vfvuu3vel+/7KpfLmpycvPO7AwBPij2HBmvtnQ/xN954Q5cvX9bW1pastY+nwq+opd1uq1qtql6va3x8XKVSKZeBRxRFqtfrWl1d1cDAgIaHh+W67r4Pxm4PkldXV2Wt1fj4eC4DVGutwjBUrVbTxsaGxsfH1d/fv6/vze3Qsr6+rlarpfHxcfX19eXSP8Iw1NbWltbW1jQ8PKzBwUF53v5P9MVxrHa7rdXVVbmuq/Hx8dyCtiSVy2VNTEzolVde0fz8vMrlci51oPdYa9VoNHTz5k298cYbunHjhra2tva8n6WlJZVKpW0HDN5++21dvnx5z/vq7+/X7OysXnnlFU1OTqpUKu15HwBwUBm7h9F+kiSq1Wr6h3/4B/3oRz+6M9MQx3EuoUF3DQyTJFGhUMhloK7OH7jbAzLf9xUEQW513H5NrLW5Hg27PfsSRZEKhUIuR/l7pX+kaao4jhWGoYIgkO/7ufaP2zMNhUIh16Olt2caZmdn9f3vf18//OEP5fs+Mw5PuCiKVKvV9JOf/EQ/+clPdOvWLTUajQeaaWi329rc3FS1WpXjOBoZGVGpVJLv+3vel+/7qlQqmp2d1R/90R/pT/7kT/Z9BhUA8rKnQ51hGOrKlSt6/fXX9dOf/lRJkihN08dXHYBDzxijd999V4VCQd/97nc1PT2deSdfHH7NZlOXLl3SL37xC/3d3/3dIz0wdf369Qdu29/fr4GBAS0vL2tmZkbz8/O5LTU0xuR2sO7eOtQ5IJG3vF8TXovercPzPJXLZc3OznKp5Yewp9DQbDb13nvv6fPPP8/tPAYAh8vtJY9XrlzRL3/5S33nO98hNDzhtra29Nvf/lZXrlzpqb81R44c0YkTJ9TX16elpSX95V/+ZS51OI4jx3HunMOWl9uXsFVnJUKebr8mSZLkNki9PUOapmmuA2X6x04DAwM6fvy4/vRP/1TT09O51nKQ7Sk0WGvVarV66kMcwMF3+7NldXVV7XY773KQsyRJevJvTaFQUP/otCrHvy63rz+3OuLqohrX3lYwfVb+yHxuddg4VPvq2zJeoMLc+dzqkKTw1qdqr11RYe5FeeWddwHfD+1r/640rKu48IKMn9/R7Hj9mhrX3lFh7gX5Q0dyqyMNG2pffVtOcUCFmWdzq0OSGiufaXV19YGWOOJLew4N90uufsFXUPDkF/dnrXa70VbYipTE2xO967tf1FHw5XqPf110HMZq1dtK4kRp+mUdxjEKCr78Ti2Pm02tWvW2ovCL1+RufvDF+xIUPJl9mEYPm6HazXDne+M5nX7iy/Uf73vTqnf6R5JIdx3w8Xz3ixqKvhz38b8WUTtSqxEqvad/OI4jv+gpKPjygsd/QnSapGo12orbsZLknv5R8Dp91ZdxHv/vbtSOFbUjRe1o22sSx7EajUbuR6TQG3px+avrugrKQyrOPi+vfzy3Oto3L6h19R35IwvqO/q13OpIw4bC5c/lBCX1Hf16bnV8UUtTcfWmClNn5I8u5FJDvHFTdsuoOHtOTt9gLjVIUssN1Lz6tvyx4yrOPp9bHUljXeHSJ3Ir47n3j63GhlqtSz33mXLQPLLRytBYRWOzIxqfGdmXwdiNz5Z08+KyGrWmkuTLgUepUtTYzLDGZ0dU6u977HVUVzZ1+cJ11atNtZvhne2e72p0ekjjs8Manhx67HXEUawrF25o5eaGGrXmtu/1j5Q13nlv9mOAunR5Rdc/W1Kj1lQcfTkALJYKd96bytDjvUrO1Y9uaunKihq1llL75YdEeaCv00+HVSw//iNBa0tVXblwQ41aU2H7y6OmfsHT+MywxmZGNDT++JfihK1Qly/c0PpSVY3N1rbvDY72a3z2i1r2I2ivL1W1fH1NK9fXFbZ660gyAADY3SMbQQ6O9Wv+6SM6eW5+XwamxnwxYG/V29uOnJb6i5o+Nq6T5xY0PPX4k/71T5e0tlhVuxndExo8jR4Z0vHn5jR/Zuax19FuhmputbRVbewIDQMjFc0+NaWT5xdULBceey0fvvGZNm7V1G6E20JDoVTQ5MKYTp6b1/jc6GOtIY5i1da21NxqS3cdWCgN9unI8QmdODevwbHHv7zg8oXrWru5obAV7ggNY0dGdOLcvGafmnrsddSrDdWrTdVrzZ2hYayiudNHdPL8/L7Mil358Iastdq4tUloAADggHhko/vyYEmT86M6/vycguLjH3jc/PyWCn2FHcspCn2BRqeHNH9mWpMLY4+9Dkl6/xefyLtnuY3rORoc7deRE5M6ef7xrzltbrb0yVuXdh30lQb6NDE3qmPPzqo8+PhnX9YWqyqUL8m5570Jir5GJgc1e3pac6ce70D58gfXdanvuu5dKddXKmrsyLAWzh7R2JHhx1qDOsuTiuXCjiP4nu9pcLxfMyf3p39UVzb10ZuXFOzSP8oDnd/d5+ZUKAWPvZYkSrRybV2uz2UqD5pWq3XnRol53hQQALD/+KsNAOjKZ599pnfeeUfVapUTCgHgCbP/t6QFABxIv/71r/X6669rYWFBs7OzmpmZ0dTUlCYmJjQ8PCxjDLMPAHBIERoAAF1544039Bd/8RfyPE9nzpzRiy++qJdfflnnzp3T6dOn79zt3PM8ua7LnZIB4BAhNAAAumatVRzHunjxotbX1/Xmm29qbGxMU1NTOnPmjM6cOaPTp09rdnZWQ0OP/8pxAID9QWgAAHTNWitrrWq1mmq1mq5cuaIgCFQul/Xpp5/qwoULOnnypI4dO6aZmRmNjY1pfHxcIyMjd06gxv/P3p09yXEd9p7/ncxau7t6Q+9o7ADBFRBJiaLv2JLsufY4pPFE2PM4npgnj33/Gb/avu++4QdPOGyPPba8SrJoSRBJkSCxb73vtS9ZuZ15aABkE2SKRKNxmuD3E0ECUYWq/nXmyaz8ZWZlAsCXD6UBALAvYRgqDENdunRJly5dkjFGU1NTOnfunN5880396q/+ql599VVNT0+rUDj4K3QBAJ48SgMA4Il4cAd4a63q9bquX7+uarWqn//855qZmdHx48d15swZnTt3TmfOnNHExITK5YO/DDQAYP8oDQCAJy4IAgVBoM3NTX344YcqFouamZnRc889p5deekkvvPCCjh8/rqmpKY2Ojmp0dFTDw8Py/YO/KzkA4IujNAAADlwYhlpZWdHGxoZ++tOfqlgsam5uTs8//7zefPNNvf7667pw4YIGBgZcRwUAfIonVhpW72wqCmMtXF2R9xT2FK3c2lBts6EkSvY8Xttq6sP/vKXNpaoGhg/+sHdjq6mNxR0Fnf6ex/u9SHc/WFar3tGVn94+8BxxFGvhyqpatc4jz20sbOvdf7ui5ZtryhUO/m7dG/e2VF2vKwr33vypVW3r2qU72lmra2hs8EAzLF5bVX2rpTSxex7fWa/r8o9vaH1hS6XB0oFmkKTqel3bKzX1u+Gex3vtQLffW1Rzp63L/3HjwHOEvVD3rqyoXX90fKze3VQUxVq4tvrInasPQm2joa3l6iPTZHV1Vf/wD/+gW7duaWLi6dzNHV/MW2+99divfXDVpTiOFQSBjDEKgkCNRkPLy8t66623NDc3p5MnT6pUKmlxcVHdbveJ5gcAPL4nVhq2lqvaWq4+qbd7bK1qR61qR3cuLznNEfUjrdze0MrtDac5JGlnra6dtbquXXKbo9PsqXNlRfeurDjL0NhuqbHd0q1fLDjLIEn9Xqjlm+tavrnuNIckba/UtL1S09WnUG6zbG5uanNzc18bpvjysNaq1Wqp1Wrp3r178jxPuVxOzz//vObn52WtVa1Wcx0TAHAfpycBAJxL01RRFOnmzZtaWNgt9UEQuI4FALiP0gAAOBSstSqVSqpUKsrlcqrVaur3+5/jlQCAg/bESkOhmFe+lFOhmJeMeVJv+5n63VD9IFQapw8v8ydJft7fzVLMPZXzs+MwVtDpK4kTpelHOYxn7k+TvPKFg+9mNrUKOn1FYaQkTvc8ly/mlC/mVSjmZbyDnzdhEKrfDZV8ct7kvIc5/PzBzpug01cYREqSRPrY1xpyeV/50m4Gzz/4m0xFHxsf9mPjw/O8h8tL7imMjzRNFXT6ivuxkuST4yOvQjGnfCkv8xSW3TiMFQaRon60Z5kpFAoql8saGBhQPn/w373BF1etVtVut5/Y+3meJ9/3VSwWVSwWVSgUdPr0aU1PT8taqytXrnCKEgAcEk9sa+X487M687UTOnvxuHLFg98Iev8H1/ThT26put5Q/LEv3E7MjurMxRM6+7XjGpsZOfAcKzc3dOkfL2t7taZO46Mv7ZUGijr7teM6e/GEjr84d+A5+t1Ql/7xsu5eXlJ1o7HnuaNnpnX2a8d15uIJlYaKB57l2k9v670fXld1o6Gw99GXXUcmhnenydeOa/LYkQPN8PY/fajrP7+j6npDSfzRl+Unjx3R2YvHdeZrxzUyUTnQDJK0cGVFP//+B6qu19VtfXSqxcBwSWfvLy9Hn5s58BydeleX/vGyFq6tqr7Z3PPc8fMzD5eZfOngN9aXrq7q1nuLuvWLRXVbvYePnzhxQt/61rf0rW99SydPnjzwHPji/viP/1h//dd//cTer1wu68iRI7pw4YJeeeUVvfjii5qfn1cURfrxj3+stbW1J/azAAD788S27gdHBjR9/IhOXzimwlPY8Fi7valSuSjvE3vOi+WCjsyO6Pjzs5o+8RSuwGKlD9+6qdwn9pz7OU8jRyqaOzOlsxePH3iMXivQzXfufepG38BwWZPzR3Tq5XkNjhz8FaWqaw2VBu/J/8S8KZTyGp8e0fxzszp2wBvKCx+u6F658MhBr/JAURNzYzrxwpwm5sYONIMkRUGk0mDxkaNeuXxOIxMVzZ2dfirjo7Hd0vW37+0eCfyEweH7y+4rx1QcOPi79SZhoq3lmvz83iM9g4ODOnHihF5//XW99NJLB54DX9xf/MVfPPZrPc9ToVDQ+Pi4pqenNT09rdnZWc3Pzz+82dvp06c1MjKi7e1tXblyhbtHA8AhwncaAAAHwhjz8BSkQqGgsbExvfzyy3rjjTf05ptv6sUXX9Tx4wdfmgEA+0dpAAA8cfl8XuPj4zpz5oyef/55nT9/XqdOndL09LSOHDmiI0eOaHh42HVMAMDnRGkAAOzLgyMKIyMjGh0d1fj4uKampnTs2DGdPXtWL7zwgp577jkdPXpU5XL5qXzhHgDwZFEaAAD7YoxRoVDQmTNn9Nprr+mNN97Q66+/rlOM+F6TAAAgAElEQVSnTqlYLMr3fXmeJ2MMhQEAvqQoDQCAL2x8fFxzc3M6ffr0w//m5uY0MzOjqakpTU1NaWhoSJ538Jc2BgAcPEoDAOBzGR8f17lz51SpVHTixAmdPXtWL730kl588UWdP39eAwMDyuX4WAGAZxFrdwDA5/Laa69pcHBQr776qo4fP67JyUkVCoWHN2bj1CMAeHZRGgAAn8vFixd16tQpzc3NaWRkRKVSyXUkAMBT8sRKQxwl6ndDdRpdhcHB39yt3wuVJKms3ft4kqQKg0jdZqB2vftZL39ignagJE5k071BrLWKwli99lPK0ekr6seP5JCkJErU74XqNLuyn5xgB6Df7SuNH503abo7b3qtg58m/V6kNEkfeTxJEvWDcHd8DBz8fOl1HkyLT4yPNFXUf3rjo9PsKe7HnzpN4jhR0A3VbnQVfezu6gel1wkUhdGnjlUcbmfOnHEdAQDgyBMrDY3tlhavrSpN00fujnwQVm5tqNfuyaZ7N4J67UBrd7fk532t3d088BybS1W1ap1HNrbiKNHOak13Li+p1w4OPEcYxNpariro9h95rllta/nGmiSpWD74Qrd4fU3dVk9Jkux5vN/pa2NxW/lSXtsr1QPNsHZ3U712oPQTG6adZk9rtzfl+56GRgcONMNuji21G13F4d5pEYWxtlequv3eotq1zoHn6LX72l6tqd8LH3musd3S0vVVWZsqXzj4g4/r97a1vVpXHCWf418DAIDD4ImWhjRNVdtoyvgHf15rbaOpbit4ZM9pt7VbGjqNrgrlwoHn6LYCtaqfUhrCRDtrdYX9SBuLOweeI43T3Y3C7qMbha1aR0s31lXfbsnPHXyha2y31Gn2lMR7503QDbWxuKNuK1BpsHigGXbW6uq1+4/s4e80elq9s6lWraN86eALVKfe3S0N0d7xEfZjba/sbsSv3d068BxxmHxmaWjutLV4bU21zaY8/+CvdNNp9NSqthU/haMaAADgydhXacjn8w8vpxd2Y+10G9pZbjypbJ8zw95iYGOpudVRc+vg995+nG98+cW9G+TdRl/dRl/Swe5V38uoWNy7QR71ElV7TVVXm08xh5TP5feOsFRqbXfV2j7403EeKHxifKSRVX2jrfpG+6llkCTfy8kv7l3cOvVAnfrBH4X6OCPvkfHxcNldebrL7oNpYq1VHMcPbxAG6P69Hx78l8vlDsXYyOVykk1lo57S8Ol+xnycjQNJVjYO3eYIe1KayKax0xySZONQ1lqlUeAsi00jyaZKw57ku/vKqI37D/90Oz66u8tLGrkfH0nk9Oc/K77QqH7woe55nnK5nM6cPaMj40eUzx/8HltgP6y1h+TKLlbSYckh51niOFa329Xt27eVy+W4ZCceenAzuGKxpLNnz2pkZET5vNuxMTw8oqRXV/vD78vk3H3upf2OrE0VLL6jcOuWsxxKU8WtDcn4ar79l+5ySEq6ddmop+6Nf5fJu/mCftzalOJIrct/J+OwNKRBS7JWvbs/U3/tirMcNokVd3aUBi3346NTlY5UnGZ4FnyhUZ3L5TQzM6PR0VF5nqfx8XGdOn9c48fdzojuTl+9RqTh2bLy5YM//eazRN1EzfWeyiMFDRw5+FOjsjTXerKJVWW2LO8pnC72WXr1UO2tvoZnyyoOuVmJtrcChe1Yw7Nl5UruxkfYjtVc62lwoqjymLvxYVOr5mpPxjMani077Q2tzZ7W725rZWVFo6OjD+8BgK+2YrGoubk5DQ8PK5fzNTE5oZmTz6s8edJprri+qrTfllcoO9swlSSb7n4fyOSK8opDDnPEUseX8XJOc+h+kZIxMvmyvOKgkwymU5P1UnmFAZmcw3V8vHsaqsk7Hh9xX8Z4kp93Pz6CltOf/6z4QltxpVJJzz//vI4dOybP81TIFzR+rKJz/3X64BJ+Dstv17TxYUPzXx/b3QhypLna081/DnXk7JDmXx9zlkNWuvnPG4r7ic58e9LphvL6Bw31qjuauziq8VNuVuQL/7mj2r2Ojr95RIMTB/tdiiy1hY46231Nnh/W7IURZzmSMNXNf96Q8Y3O/sbUU/kO0mdZebem+lr74Ubim2++SWmAhoaG9PLLL2tubk6e56lYKGhg7nlVXvme01ztD/4/hdv3NPjibylXmXSWo792Vc3aikrHX1X55Dec5UjDrppv/6W8woCGX/vfneWQpM6NHyhY+LkGn/u28kdOOMnQ+sVfK25vq/LKd+WV3a3jg6VfKKotqXzyDZXmLzjLkXRrar79l8oNz6hy8Xec5ZCk9pXvS8E9pxmeBV+oNOTzeU1PT+t73/ueKpWKFhcXDy4ZgK+E4eFh/cEf/IHeeOMNVSoVTneECoWCZmZm9Hu/93uanZ3V4uKiuEAvALj1hb5Z5nmehoaGdPHiRf3u7/6uZmdnDy4ZgK+Ecrms73znO3rzzTdVLBYPxRde4VYul9Pw8LC+8Y1v6Lvf/a7Gx8ddRwKAr7zH+nSuVCqam5vjbqAA9s3zPI2MjHBaEh4xPDysmZkZFQpuvyMGAHjM0mCMke/7h+RqNAC+7B5cKQf4OM/z5PvuvpMFAPgI5wEAAAAAyERpAAAAAJCJ0gAAAAAgE6UBAAAAQCZKAwAAAIBMlAYAAAAAmSgNAAAAADJRGgAAAABkojQAAAAAyERpAAAAAJCJ0gAAAAAgE6UBAAAAQCZKAwAAAIBMlAYAAAAAmSgNAAAAADJRGgAAAABkojQAAAAAyERpAAAAAJCJ0gAAAAAgE6UBAAAAQCZKAwAAAIBMlAYAAAAAmSgNAAAAADJRGgAAAABkojQAAAAAyERpAAAAAJCJ0gAAAAAgU24/LzZG6tZCLf2s+uQSPYbWeqAkstq82lJjqecsR78dK4msmis9LSXWWQ5J6lZDpUmqlXfr8nzjLEdnqy8rq+2bbXW2+k4ytNZ6ioJEGx82lS/7TjJIUtCIlCZW9cWO4iBxliNNrHr1UMYzWvp5Tcbd8FBrI5DnldwFwJeC8TzF1VV1rv2r0xxRbVk2bKt396fyCgPOciTtHUlW4cYNpUHLWQ6bxkq6NaX9tvt5U12UjUP1Ft9RuHXbTYbGqmzYVff2WzK5opMMkhQ3NyQr9deuKGlvO8tho0Bpr6k4TZyPj7i6JA2yn3y/9lcaPKOwFWvrhruVliQlYao0TtVY6so43EC2iVWapOrs9BU0I2c5JCnuJ5KVdm61JYcbhWmUSlZqrvbU3gycZIj7iZLIqnav43R8pLGVtVbtzb56dYfjw0rR/dKyfdPtsptGVpUBSgOyGXlK2tsK+m2nOWwUyKaxwo3rknG3AWKTWJIU1VcUtzad5ZC1SqOejDEKlt9zl0OSjUPZNFa0dVuR52bnUNrvSjZRf+2K2/ERh5KkaGdBcWPNWQ7ZVGnYVRr3lTofH32ZoSk53Uv2DNhXaUgTq6Hpoua/Pu50w3TrWkvVux3Nf31MAxPu2n1nu6/lS1WNnxrS5PMVZzlkpaVLVSVhqmPfGJdfdLfyqt7paP1yQ7MXRzQ8V3aSYf1yQ631QMe+Ma7SaN5JBklqrQVaulTV5PmKjpwdcpYjjVItXarJeNKxN8ZlPHcL7/b1loIVt0flcPhZm6gweUblM7/iNEfvzk8UN9Y0cP7X5Q+MOssRbd9T5/q/qXTsVRVnn3eWw0aBOtf/XSZf1OD5X3eWQ5KCxXfVX7+mgee+rdzIjJMM3Rs/UtKra/D535BXHHSSQZLCjZvqXP93lU+9ocLUWWc50qClzrV/kz84roFzv+oshyT17v5MNq1Kls+b/dhXaZCkXNFXZcbtnsLGck/Gk8rjBVWm3WWxiZXxjApDOac5ZKV8yZcx0tBUUbmSu1NyHpySVB51N2+qdzryfKOBIwUNOiyVcZDIGKlYyTsdH0mYKlf0ZHyjylTJ6dGX5mpPgU2d/Xx8OVhrZYqDyo8dc5qjX/xA8vLKDc8oV5l0liMN2pKM/IFRp9MkDbsyuaK8/IDzeRNu3ZHxfOUqU86yeMVBpVFP+ZFZeeURJxn04PQ1I/mDR5zOl6Rbk8kV5BWHnI+P/tpVKdhxmuFZwAleAAAAADJRGgAAAABkojQAAAAAyERpAAAAAJCJ0gAAAAAgE6UBAAAAQCZKAwAAAIBMlAYAAAAAmSgNAAAAADJRGgAAAABkojQAAAAAyERpAAAAAJCJ0gAAAAAgE6UBAAAAQCZKAwAAAIBMlAYAAAAAmSgNAAAAADJRGgAAAABkojQAAAAAyERpAAAAAJCJ0gAAAAAgE6UBAAAAQCZKAwAAAIBMlAYAAAAAmSgNAAAAADJRGgAAAABkojQAAAAAyERpAAAAAJCJ0gAAAAAgE6UBAAAAQKbcvl5tpKiXqL7YlcwTy/SFBY1INrFqb/SVxtZZju5OqDSxChqR6ktdZzlkpbAbK4msGis9+QV33bBXiyRJne2+vJybQdJvRUriVK31QFEvcZJBkjpbfVkr9eqh0/GRRlZRL5HxjOrLPRmHuw6CeiRjfHcB8KVgjFHabSrcvOU0R9JryCZ9RdVFpb2GsxxxY02SVdLecjpNbNyXjXpKbep+3nSqsmmiqL4im0RuMgRN2ShQuHNPXmHQSQZJipsbkt390+V8Sftt2ShQGjScj4+0W5c8hxuqzwhjrX2srexWq6U//bM/0eUP3pfx3c6INLGyqZWX82QcRrFWSuNUxjfyHA/ONLGSlbMN9QdsapUmVp5vZBxNkyROZRPJLzgeH6lVEqXycp48x8tMEqWSJD/v9mCjTaWRyqj+6I/+SC+9+JLTLDic1tbW9Cd/+me6c3dB8ve3n2u/bBpLNpXx8nK8MpFNYsnLyXgOl2Er2TSSZGScz5tEShMZ3928sXEoa1N5uaLT8WGTWDYOZXJFGd/hThlrlcahjPFkcnl3OSQpTTR/dFb/7Y/+UCeOH3eb5UtsX0u5Ta1KYwVNnB16cokeQ2O5p/ZGoInnhlSsuBuY/Wak7VttDU2XNHK07CyHJG3fbCmNrSbOVZwWh9ZGoNpCR+OnhzQwXnCSobbQUa8WauJcRYVBdx9svVqo7Zstjc6XVZl1Nz7SxGr7ZkvGM5o4V3G67dNc7ck2dgsu8Flsmio3OqvCzAtOc4Tr15R0ayoefUVe0d3nXtzcUH/lsgpTZ5QfO+Ysh41D9Vcuy+QKKh59xVkOSYq27iiqLas4/4r8gTEnGforHygNOyrNX5DJu1vHx/UVBcuXVZw5r9zonLMcNuwqWH5fXqmi4pzbnULhxo37pZ8Pm/3YX2mwUnkkr7mvjT65RI8hTay61b6OnB3SsMONseZqT9V7HVVmSm6nid09FSbuJ5p5eVi5krs9DesfNFRf6Gr81KDGT7k5XBv1EkXdRJPnKxqcKDrJoPvlZed2W8NHBzR7YcRZjiRM1d4IZHyjuQsjTo8UWmvVrKfOfj6+HKxN5Q/PaODMf3GaI+01lEZ9lY69qlxl0lmO/tpV9Vc+UGHitMonv+EsRxp2FVUX5RUGnM+bThIpbm2oNPey8kdOOMmQtLYUt7dVPvF1eWV36/hg6RcKVi6rMP2cSvMXnOVIujWF23eVOwzLbr8tBfecZngW8EVoAAAAAJkoDQAAAAAyURoAAAAAZKI0AAAAAMhEaQAAAACQidIAAAAAIBOlAQAAAEAmSgMAAACATJQGAAAAAJkoDQAAAAAyURoAAAAAZKI0AAAAAMhEaQAAAACQidIAAAAAIBOlAQAAAEAmSgMAAACATJQGAAAAAJkoDQAAAAAyURoAAAAAZKI0AAAAAMhEaQAAAACQidIAAAAAIBOlAQAAAEAmSgMAAACATJQGAAAAAJkoDQAAAAAyURoAAAAAZKI0AAAAAMhEaQAAAACQidIAAAAAIFNuv29grVUSpU8mzeNmSKwkKY3dZkljK1nJpo6nyf0MNpWSyMr47rIchnljU/cZHvz8B3lc5kiiVDa1MsYoia3M/enjgk2c/Wh8mRgjJalsHDqNYW26u4JNQqdZbBrt/iVN3OaIQ8mmknU/b5QmkrWySeQsi7WJJLcZJMmm8e5f0vgQjA8rWbfjVLo/PrBv+yoNnm/U3uzr5j9tPLlEjyFoxkpCq+Wf15Qrujt4EvdTJbHVzu2OOlt9ZzkkqVsNZROrOz/YknF4PClsx5KR1t6va/tmy0mGbi1U1E20+JMd+QV3EyPqJUoTq63rLTVXe85yWCt1tkMZI936F7fLbr8Vq5QblIzTGDjkjOcr2ryj5jt/6TRH3N6WDbtqX/knmVzBWY6035GM1Ft6V+H2HWc5bJoobm/LeL7zeZN0akqTSJ2bP5CXLzvJEDfWZZNQrct/J+PnnWSQpKTXkCR17/5M/fVrznLYJFLSrSoNO+7HR3tHZnxwdwcEHtu+jzQYGRnP7Ux4MAaMJ6dZHmycG+M2x0PG/TR5MHOMcTdOjDG7G6We27FqHg5Ux/MktbvTw3xs2rhidnfcAr+ckdM9IA+H68MVq8MgD9arbnMYYz9afTieN4dimjyYGM7ny0efu27H6YOf7X7Z3Z03fNjs175KQ5pYDU4VdfY3ppxueKy8U9Pm1abmXx9XZbbkLEdrradb/7Kp8dODOvramLMcstKtf91Q3E91+tuTypV8Z1E2Pmxq8Sc7mr0worFTg04yLP50R/WFrk58c1wDE0UnGSSpvtDVrX/d0OT5imZeHnGWIwlT3frXTXm+0dnfmJLx3S28q7+oq3U9ZV2OTDZJlJ84raGXf9tpjs6H31e4c09DL/6m/Mqksxzh2jU13/0rlY59TaUTrzvLYcOumu/+lbzCgCqv/q6zHJLUvfkjBQvvaODct5U/ctxJhtZ7f6uks6PKK9+TVx52kkGSgqX3FNX/WuVTb6h49BVnOZJOTa1f/JVylWkNXfiesxyS1Ln6z7L9xd1D7Xhs+z/SYCQv5/hIw/29tsbfPWXKaY77e5Fd5pC9v2ff7E4Pt9Pk/p8Oczzc6+J6Wvgf5XGZw/q7Y0P3x4fL0uB65xO+LKxkjIy374+s/Xm44OTcZvEerEw8pzmsl9ODw5bu5413//PXd5bFGO/+tHCXQfdP59v9i+Mcfu7hUYZDMT6wb0xFAAAAAJkoDQAAAAAyURoAAAAAZKI0AAAAAMhEaQAAAACQidIAAAAAIBOlAQAAAEAmSgMAAACATJQGAAAAAJkoDQAAAAAyURoAAAAAZKI0AAAAAMhEaQAAAACQidIAAAAAIBOlAQAAAEAmSgMAAACATJQGAAAAAJkoDQAAAAAyURoAAAAAZKI0AAAAAMhEaQAAAACQidIAAAAAIBOlAQAAAEAmSgMAAACATJQGAAAAAJkoDQAAAAAyURoAAAAAZKI0AAAAAMhEaQAAAACQidIAAAAAIFNuPy82nlHQiLTyTu3JJXoMrbWe0sRq+0ZbrbXAWY5+K1aaWLXWA+fTJGhESuNUa+835OWMsxztzb6Mkap3O+rVQjcZNgLFQaLNay0VBrpOMkhSrx7JplJjuas0Tp3lSBOroBHJeEYrv6jLuBseaq0F8vyiuwD4UjCer6S2ru7NHznNETfWZKOegsW35RUG3eVob0nGKNy6Ixu5+8yzSaQ0aMpGPffzproomyYKVi4rqi66ydBcVxp21b33M3m5kpMMkhQ11iRJ4cZ1pb2Gsxxp1FMatBXrECy79VVpwJfk8APvGfD4pcFInm8UNCOtve9uUEpSmlrZ1GrnTlvG5RaQtbKJVXsjUGer7y6HJJtayUobV5puc1grY4zqCx3VF93MmyRKZROr7RstGc/d+LD3x2lzLVB70+34SMJUMtL6ZbfLrk2tRiol1uPIYGQ8X3FrRXGn6jZKGsvaVMHy+243PmwqGaNo566zDeT7QWTTRJKU3PmJwxySbCJZq/7aFWfzxsaBZFMFC+9Ixt2JHDaNJEnh5k2F2/ec5ZBNZeNQadhV0q27y6Hd8WGGZvis2afHLw1WSuNUg5NFHX1t7ImG+qK2b7RUW+jq6GtjGjhScJaju9PXyjt1jZ0c0MS5irMcstLKuzUlYaqjr43JL7hbedXudbRxpamjF8ZUmXGz52XjSlPt9UBHXx9TaSTvJIPuH/FYfrumyecqGj/tbi9lGqVaeacm4xkdfX3MaZHaudVWuLpbcIFPZ2WTWPmJUyqf+qbTJL17lxQ31zV49tfkDYw6yxFVF9W9+UOVjr2uwvR5ZzlsFKh780cy+ZIGzv2asxyS1F9+X/2NGxo892vyh6edZOje+rHSoKHBc9+WKbpbx4ebt9S99SOVT76h/OQZZznSoKXuzR/KHxhX+cyvOMshScHC27JJTbJ82OzHvk5PslbKl3yNHC0/uUSPobUeyHjS4GRBw7Pushizu3OhWMm7nSZW2rzalDHS8GxJuZLvLEqvFkpWGhgvOJsm9cWuujmjoamiBifcnQqTxqmMkUojbsdHEqbauNKU8Y1G5soyvsvT1wL1V9ydqoUvB2tTeaWKChOnnOYI168pae8oNzavXGXSWQ4bBZKV/MEjTqdJGnZl7l2SVxhwPm+i6qKM5yk3Mqv8kRNOMvSX35eN+8qPH5NXHnGSQdLDU5L8ypTT+ZJ0azK54uFYdjdvSoHjI5XPAL4IDQAAACATpQEAAABAJkoDAAAAgEyUBgAAAACZKA0AAAAAMlEaAAAAAGSiNAAAAADIRGkAAAAAkInSAAAAACATpQEAAABAJkoDAAAAgEyUBgAAAACZKA0AAAAAMlEaAAAAAGSiNAAAAADIRGkAAAAAkInSAAAAACATpQEAAABAJkoDAAAAgEyUBgAAAACZKA0AAAAAMlEaAAAAAGSiNAAAAADIRGkAAAAAkInSAAAAACATpQEAAABAJkoDAAAAgEyUBgAAAACZKA0AAAAAMlEaAAAAAGTK7efFxkhxP1FztSeZJxfqi+q3ItlU6m6H7kJI6u6EsqkUtmI113ruglgpChIlUarWRiC/4K4b9puRZKReLVSz5CZH2I6Vxladrb6SKHWSQZK61VDW7k4Tl+MjjaziIJXxpeZ6IONw10G/FcsY310AfCkY4ykN2op2FpzmSIOWbBoprq/Khl1nOZL2lmSkpFN1Ok3SOJCN+0ol9/Om15C1qeLmhrsM/bZs3FdUW5HXrTvLkbS3H/7pdHwELdk4VNpvuR8fQWt3oxX7Yqy19nFe2Gq39Gf//U91+cP35eXczog0sUoTKz/nOd0AsqmUxqmMb+T5jqdJvDtbXc8bm0o2tjI542zeJGGqNLbKlXyn4yNNrJJ+Kr/guZ0vVorDVEaSX3R7sDFNpJGhEf3h//1HeunFl5xmweG0trauP/mz/647C0syft5pFptEsmkqk8vLOFyZ2DSRTSIZLy/jOyzd1ipNIhkZmZzreRPvfuD4OWfzJg17kk1lCmW34yMOlUY9eYUBp8uMtalsFMgYXyZfdJZD98fH/Ny0/tsf/oFOHD/uNMuX2eMfabC7G0HFSl7jpwadHmlorvbU2e5r7OSAihV3C0i/Fal6p6OhyaIqs2VnOWSl6t2O0iTV+KlBeTl3K6/OZl+N5a5G5wdUHis4yVBf7CqohzpyelD5wX0dXNuXoB5q53ZHlZmShqZLznKksVX1TlvGMxo/PSjjuVt4W+uBbNtKj7XrAl8NVjZN5A9NqDB1zmmScOuW0m5dxdkXZQoDznIk7W31164qP35MudE5ZzmUROqvXZX8vIqzL7jLISmqLihurKk4fV5eecRJhnDtqtKwq+LcSzJ5d+v4uLGm/toV5SdOKTc84yyHjXrqr16RVxxSYea8sxySFG3fkU0TPmv2aV9bUDa1Ko/mNf/1sSeX6DEsa/f0l8nzFQ073FhvrvZUX+yqMlvW/OsOp4ndnR5xP9HcxVHlSu72RK1/0FB9qasjZ4Z2y6UDSZgqDhJNvTiswQl3eztqCx1V73Y0Mj+g2QtuPtR0f3p0d/oyvtH8a2MyDo+KrbxbU/Oqu1PG8OVg00S5kVkNPvdttznCrsIoVOnE15WrTDrL0V+7qv7qFRWmzqp88hvOcqRhV1F9VV5hwPm86dz4gZLWlkrzF5U/csJJhrRbV9ze1sDpN50VF0kKln6h/toVFWdeUGn+grMcSbemqLqk3PCM8/HRjvtScE+0hv3hi9AAAAAAMlEaAAAAAGSiNAAAAADIRGkAAAAAkInSAAAAACATpQEAAABAJkoDAAAAgEyUBgAAAACZKA0AAAAAMlEaAAAAAGSiNAAAAADIRGkAAAAAkInSAAAAACATpQEAAABAJkoDAAAAgEyUBgAAAACZKA0AAAAAMlEaAAAAAGSiNAAAAADIRGkAAAAAkInSAAAAACATpQEAAABAJkoDAAAAgEyUBgAAAACZKA0AAAAAMlEaAAAAAGSiNAAAAADIRGkAAAAAkInSAAAAACATpQEAAABAptyTeBObWsmYJ/FWjxngoz+t/SX/9iBj2PtZHOeQtbsx7Ef/ucvyIJJ1m0OHYb589Be343T355uPj1lnYRz+bHz52NR1gvsrktRtFvvxDz2XOdJP/7sL1n70p7Ms9n4E1/PlsI0Pxzkkxx/+z459lQYv56m91dfNf97Q7iaIG0EjVBpbLb9dU67YdJYj7idKU6vq3ba61dBZDsmqux3KplZ3frAl47mbN/12JM83Wr/c0M6tjpMM3Z2+wk6sxZ/syC/6TjJIUtSNZVOrresttdb7znLY1Kq705cxRrf+ZcNp4Q8akUr5QZerDxx6RsbPK9q4q+bb/4/TJHFrUzbqqnP1n2T8orMcab8l4/sKlt5TtL3gLIe1iZLOjtJe3fm8SbpV2TRR5+YP5d0rO8kQ1Vdk477al/9exs87ySBJSa8myah392cK1284y2GTUEm3Jhv23I+P9pbMWNntDu5nwOOXhvvT3aZSErrdXWmT3Z+dRlaJcddm08juFupESkKXrdo+PMKQRKmMw4XExvfnTWydTZM02e9PZ70AABf+SURBVJ0vSWwlh+MjiXePAKWJu2mhjx/1sVZJlDot/Da1nCSJX85IShOlceA2h012l5843N2b7CxGvPtnGrudJvePuNjUOJ83Nr0/TZJQqavPPJvsHulP+rI2cZPh4+MjidzOlyTenR7W/bJr04TC8AQ8fmmwUhqnGpos6PR3Jp1ueKz+oq6t600dfX1MlZmSsxyt9UB3/n1T46cHNXtx1FkO2d0jDHE/1elvTyrncO/65tWmli5VNfPKiMZODDrJsHSpqvpiV8e/Oa6BI+72DtaXurrz75uafK6i6ZdGnOVIwlR3frAp4xud+c6U0yNRa+/X1b6ZcpoSMljZJFZ+4pSGXvxNp0naV/9FUXVBgy/+pnJDE85y9DduqPXe36g0f1Hl4686y5GGPbXe+xuZQlnDF/83ZzkkqXvrxwqW3tPguW8pP37MSYbW5b9X0qlq6OXvyi8PO8kgScHKZbXe/39VPvWGSnMvOcuRdOtqvfc38itTqrz8285ySFLn+r/JhsucprRP+/5Og/GM041SSfJyuxs9fsEoV3S329LPG8lIxnebQ3Z3vhhPyhU8p1m8nJGs5Ofd5fB8I2Mk3/G08PO749TLuc1hzIPxYZQreDK+u9Kwu+yyEscvYa3k+TJ5N6edPGA8X5Inkys5zWL8wu563s+7zWGtZDwZ437eyM/vfv7mis6yGC8nGU9e/hCMj/t/Os2RD3bHh5dzPz68J/IV3q88TgwAAAAAkInSAAAAACATpQEAAABAJkoDAAAAgEyUBgAAAACZKA0AAAAAMlEaAAAAAGSiNAAAAADIRGkAAAAAkInSAAAAACATpQEAAABAJkoDAAAAgEyUBgAAAACZKA0AAAAAMlEaAAAAAGSiNAAAAADIRGkAAAAAkInSAAAAACATpQEAAABAJkoDAAAAgEyUBgAAAACZKA0AAAAAMlEaAAAAAGSiNAAAAADIRGkAAAAAkInSAAAAACATpQEAAABAJkoDAAAAgEyUBgAAAACZKA0AAAAAMuX29eJcTmE71dr7dUnmyaX6gtobgdLYqnq7o85W6CxH0IyUxlbtjUBr7zec5ZCsgkakJLbauNKUl3PXDVvrgSSpttBVvxU7ydDZ6ivup9q+2VZzNXCSQZJ61VA2lZqrPWcZJCmNU/WbsYwnrX3QkDEOl931vsLI6tLPL2l5edlZjsOkUChoYnJC5587r0Kh4DqOc8YY5fN5qb6t3p2fOM0SN9dlo676y+8pKg45zLEhGato556UJs5y2CRUGjRlo577eVNblk0i9deuKG6sucnQ2pQNO+otviMvX3aSQZKi+oqMpHDrlmzYdZYjDbuy/baS1ob78dFYUzvu6K233tK1a9ecZjksCsWiZmZm9Pz58597O8BYa+3j/LBOp6M///M/1+UPLqsf9B/nLZ4YY4yMJ6WplR7rt3lSQSTPN7KpZFOXQSTjGxkZpUnqNodnZDwjm1g95lDbf4b7C4Orn//JLIclhw7BNImTWHES7e5zcNddDpXB8qBeefmCfv/3f1/DlWHXcZzb3NzSn/+P/6E7t2+r33dX+iXJGE8yRtbhhvr9IDKeL5umknW9jvclyfk0McaTPF82jSU+a+R5ntLU7djQg/kid5//D4RRrDhJJONLDneUHRbGGA0NlPXNN76h//P3/w/5vv+5XvfYRxqKpaJ+67d+S2+++aaSxPXK4qMB4HJgGmN2N3ys+5XGYVl5HYZpcqimxX2HJYvrHJcuXdKPf/ojzV0c1cAEe9UlaevDjjrtjvMdD4fFyMiwfud3/ld1O51D8lljZHdXaM5zHIaNscOyLjkM0+RwTQsdqiyuc/zwhz/Uzz+4oYEz/5P8gTGnWQ4Dm0QKF36qXrfzhV732KUh5+d08uTJx305AGh5eVnGMxqaLmlk3t3h/MNk51ZbURQ5/5A9LIrFos6eOeM6BoAvsWvXrsn495QfP67cyKzrOM7ZKFCw9K6iKPpCr+OL0AAAAAAyURoAAAAAZKI0AAAAAMhEaQAAAACQidIAAAAAIBOlAQAAAEAmSgMAAACATJQGAAAAAJkoDQAAAAAyURoAAAAAZKI0AAAAAMiUcx0AAAAAeKZZKyv7yMNGRjLGSaQvitIAAAAAHABrU9kkUb/bUhh0FId9SVbGGHl+XoWBIRXLFXm5nIw53CcAURoAfOX0u6Fa9Y52VutK0717fjzPqFDKa2SiovGZEWcZAQBfTlHQVb/TVK9VVdCqq99tKGg3FPY6iqO+ZK1kjPxcXoXykEpDoyoNjqhUGVW5Mq7S0KhyheKhOwJBaQDwlWKtVWOnretv39V//u27ivrxnudzBV/jMyO68K3n9c3fvuAsJwDgy6nb2Nbm3Q+1fOWn2rz7oWprd5XGkWya7BaGB8zu/3KFkkZnT2r69AUdff7rmjn3NQ2Nz8hQGgDAHWultTubWriyoup6Q3G0tzR4nqdOo6vJ+XG1ah2VB4vKFVhVAgA+WxwG6tS3tHL1Z9q8+6Gqy7fUrm6o16oq7LZkbbq3MHxMEkeqr99T2G2ptnpbq9ff1szZi5p/+VdUHBxWLl986r/Pp+GTEMBXhrVWSZxo7e6WVm5uqNcOlCbpI/+u1w60vVzV1lJV0ycmKA0AgE9l0/T+Rv+CNm6/r1s//QdtL1xTu7bxBd4jUdCqK2jVVVu9q53lm2pX12X8nKZOvajKxFH5fs756Up8EgL4ykiTVGEv1NbSjraWq7Lpp+/1kaT6Vku331/S0NigBkfKTzUnAODLIYlD9Zrbun3p+7rx1t+pU9tQ1O899vtZm6rX3NHK1Z+pvrGgr/32/6VTrw6pPDwmY/wnmv2LojQA+MroNHpau7ulxk5bUT+S/YxDxZLU2G7r7uUlnbl4TBNHx+R5h+vcUgCAW2kcq7m1otuXvq+lD95Sc2tZSRTunop0nzFGxvM1ODalcmVMhYGKZK2SKFTQaajX3FHQbux93yRRv9tUHPW1ePk/lCuUdPr131C+NOjgt/wIpQHAV0ar1tGdD5bVqnYeuWrSJ7XrXa3c2lBju6UwCFUaOBznlAIADoegU9fO4nXd/M+/V31jUXEYPHzOGCM/X1ShPKTy8LiOzJ/TyPRxDY5OyFqrMOiqvbOu2tod1dfuKWg3lET9h4UjTRKlSVer199RrlDW7HOvys8V5OXyzn5fSgOAr4zmTlu3311Qq975pf82iRP1On1tLOxo6tgRzZ2ZOnRXsgAAuLNx+30tXP4PtavrewqDJHl+TiPTJzT/4hs6/fr/rIGRCRUGhuTn8rJ293sMSRyptb2irXtXdf3Hf6va6h1F/e6e9+k1d1RbvaOtu1fkeb6Gjsw+5d/yI5QGAM88m1r1On3VNppaX9hW0AkfPmeMkZ/zVBosKurH6vd2n7PWKgpjrd3Z1NSxcc2dnrp/eTwAwFeZTRMlUaite1e1ces9hb327uVU7yuUBjU0PqNTr31Hx176L5o5d1G5Qkme/+hmd3l4XKWhMcVhoMX3/0Or13++59TZJArVrW9p/dZ7GhibpDQAwEFKklT1rZa212pqbLf2POf5u4Vhcn5cjZ32w9Kg+1+cXr2zqanjR3ThW6l843G0AQC+4pIoVK9VU3X5pnaWb8qme6/CVx45oqkzr+jcN7+ryZMvyHiffafn4kBF4/NnVSgPKU1ibdy9vHtPB2tlPF+e5ylNE1VXbmn2udeewm/32SgNAJ55SZRo5da6Nhd3HnlueHxQ0ycndOrled29vKzqWv3hcza1qm02tb1SU3O7paGxQRVK7s4nBQC412vVtHbjXXXqW596QY3xo2d19o3/RYPjn++0Vs/3NTA6obG5U5o4/ryaW8uSlYbGZ1SZmNXI1DGNHz2rkenjB/QbfT6UBgDPtAenGa3e2tTm0qOlYWxmRCdemNPpV46pudNWLu8riVNZa2WtVb8bqr7Z1MrtDR17bpbSAABfcUGnoc27H6rXqu25YZvxPOWLZY1MH9f06VdUHBz+XPdWMGb3deNHz+jM1/+rOrUtyRgNjk1paGxag2OTGhyd1MDo1AH/ZtkoDQCeaTa16gehVu9samu59sjzk0fHdfqVYzr23IwWrq6qUCqo3+0rST76IGjVu7r1i0WNTFQ0OjX8lH8DAMBhEnZb2lm6/silUj0/r4GRCVUmZjV0ZOYLv+/40XManjwuv1CU7+cyT2ty4XClAYAnrLHd0tK1NbXrXaXxR19UM55RLp/TkdlRzZyYUKFc0PjMiObPTas4UNjzHu1aR7ffW1Rju/2pd5AGAHx1REFXza1lRcHeK/H5+YIqk0dVrow/1vt6fk75Ymm3MBzC789RGgA80+pbLS1cXVW32dtzb4Z8IaeRiSGNTQ9reKKiXN7X+PSI5p+bUbG8tzQE3b42FndUXa+r84n3AQB8tcRRX93G9qdeZnVgZELFwcpjva/xPHm5/O4RBkoDADxdtc2m7n6wpG6rt+fx8lBJ8+emNTJRUS7nyxijsekRHXtuVsVP3MgtiVP1u6G2lqvaWqoq+dgRCwDAV4tNE0X9ntIk3vO453kqlAaVyz+bNwOlNAB4JqVJqk6zp+p6XVtLVYVBtOf5geGSTr48r5GJysP7LwyOlDU5P6aRicojxcFaq41721q+ta4kojQAwFfap1w1yRhP+dKA/HzJSaSDRmkA8EyKw0S19Yaqa3U1qx3FH9vQ93xPQ6ODOv7CnCrjgw8fL5YLGpmoaOLoqCpjA4+85+ZyVau3NxV0Q77bAADYw3iecvmivNyzeZ0hSgOAZ1I/CLV4bVXbK/VHntstB0OaOTGpgeHynufyxbyOnpvRxNGxR17X3Glra7mqxlZzz03gAACwdveo9KcdhXgWUBoAPHMe3F9h6ca6dtb2lgZjjI7Mjmpy/ohKAwX5/t7VYL6Y09EzU5o4OvbI1SviKFG71tXSjXU1d9pP5XcBAHxJ2FRxGCiJo8/xj798ns3jJwC+0pIoUafR1dqdLTW2WnueM0YamayoMjaobitQ2N+7ck+TVEMjAxocHpDne0qTdM8dP7utQHc/WNbE3Jimjk8cxgtcAAAO3KMrf5umivs9JdGzeSSa0gDgmVPfamn1zpZa9Y6icO/VLazdve/CwtUVdRpdeb555Pk0SbV6Z1O5vK/IWtmP3eit1w5078MVnbl4XGmSyPO9Q3k9bQDAQTEynpExZs9OpdSmCoOOkqjvNN1BoTQAeOZU1+taubmuoN1Xmn7yC8tW9e2WojDWxsL2Z27wt+vd3dd+4tzUqB+rvtXUzlpd9a3W7iVb8/4B/jYAgMPEz+dVGhpV0K4rDj8qCGkcqdvYVr/bynz9Z+m1amptrypo1SRjVB4eV7kyruLgsHKFkvMdVJQGAM8Ua612VutaurGuMHj0ELG1UmOr9chpS59XmqYKg1Q7qzWt393SQKVEaQCAr5BcoayhI7NKovCR0tDaWVOvVZW19gtv5Le2VnTnnX/V9sJVGc/X5MkXNXniBY3NndLg6KT8fEme7+7zhtIA4JmRxIn63VDba3VtLlUfOTXpSdparmrhyoqOnptWeejZvCY3AOBRhfKQjsyfU9CqqdeqPXw8SSJ1aptqVzfUa1ZVHKzIzxU+9/t2G9vavP2+amv3FIc91VZua+EXP9DA6KTGZk/q5Ku/rrnzrx/Qb/XLURoAPDPCINLWclXVtbo6za5senCXvattNrVye1PteldDowPK5VmdAsBXQWlwRJMnX9TO0k1JCw8ft2mqKOiqubGkzbsfaPr0KyoPj//S90vTRP1OU83NZVVXbqnb2FHU76ld3ZAklYfHFfW7mj5z4UB/r1+GS64CeGbsXtloRbWN5oEWBklq17raXNpRfbOpoPNsXikDAPCoUmVU02cvqDzy6YWgtnZHd9/+F3Ub25/r/dIoVG31jnaWb6q5taKo39vzvJfLq1wZV6746E1HnyZ2jQF4ZvTage5dWVZtq7nncT/naWxqRCdemNNzXz/1ud/PpladZleL19b0/o+u7yki1loF3VBL19dVGR/S0KjblTkA4OnIFwc0MnVc43NntLN4Q+3qutLko9NhO7VNrV5/R4Nj0wqDjmbOXNz9fsOnfMchaNVUW/v/27uTpzbSO4zjT+/aVyQQYMwSGzC2s3jG4+Sei3PJef6C/IG55pKquCo1lUol40yIqzwY8JhVgNBCS+olB7AdTErxEkYIfz9Xqd/315fufvp9+33X9OzJ7/XD6jfnVmN6LZHKqXbr58qWa5d+boMQGgBcCz2/r+N6S1tre2oddc79ZtmWqjNlLX21oEePf/rebcZRrOODlhJpT8/+8kI9v6cweLsaU+/kdNfp6kxZM0u1oa9sAQC4fJbjKum4qswuq7GzIb91pL7ffvPA3+00FWytaf1vfzzd6C2WvFRWTiIly3YUx7GiMFC/e6LGzrp2nn+rjW//pMbuxoW+3FRW2cqUqnMrShcqQzjbtwgNAK6Fw91j7azX1Txoq++f37DNsi1NzldUmS5+UJuGaShbTKs8UVB5sqCDrSN1mv6b37snfW3+a1uzK9MKg0iWzZ4NAPC5mFz8QkGvq521pwp6vuL/GG2Igp521/6h5v4rbT59ourcXRVqs0rny4qiUH6rocOtNdU3VnXww3N1201FYXihj+LErCYW7itXvSE3mfmRz/A8QgOAa2H/5YG21nbV7/bPDe+apiEv6Wj85pjKE4UPbte0TGVLac2uTKnn98+FhiiM1Gme6GD7SLubdZUnCvJS779SBgBgdCVzJVVm7+j2o8fafPpEe+uriqNIUqw4jhX0fLUb++qdtNXtNLW/sSo3kVIURwp6XfnHB+o09uW3ji5MS7IcV24io6nlLzW98khuMiPDHO6nyIQGACMtjk8vzrubdW2t7SkIzm/m5niOMsW0ypNFZcsf95YmU0hr4f6Mttf2tbdZf7PfWxzH6vcCHew09PLZttK5JKEBAD4TtptQfnxGtx49VhQG8tvHOmnUFfT9s/BwundDN+ir2zn+n+29ZtmOUvkxFScXNLX8lcbn78lyhn9vYfUkACMtCiP5nZ72Xh5od6OuMDg/vJsfy2pmsaZ0LinzI9/SpPNJzd2dVq6ckWldbONwu6Hv/755bhQCAHD9OYmUSlMLuv3L3+j+r79WoTYr201+dHuGaSqVH9P08kN9+dvfaXzhnizHuxJTXxlpADDSTlpd7WzUdXi29Om7S60WKlnNLE0qmUn8t4Ur3ovj2cqVMirXCipUcjraPVYYvh3ROD5s69XzXTX2mypP5OUmh/9GCABw+UzTkplIqTg5L8txZVq29l78U4evnqu5vyW/3VDY7w5swzBNOV5KqUJF+eq0KjfvaOLWz1SZXZbjpYY+Lek1QgOAkeZ3utrdqCsKY6ULF9/uVG6UdWOxpkTa++g+TNOU6Zkav1nW9O2JN9OS3q2j0/TV9fuEBgD4zHjpnMZSSypOLmjvxXd6+d2f9Wr1Gx1tr8tvNxRHoXQ2nVaSZBgyzgKD5XhKF6qqzK1o+s5DTS5+oWy5dmXCwmuEBgAjLVfKaOnhvCYXqjppXZwelCtlVBzPyU06n9zX4oM51ear8lu+ondGNGzHUmW6pGQm8cn9AABGj2GYsmxHpal5JXMlzdz7lTrHdXWO9uU3D9Q7aZ8uwXr2X9v15GUKSuVKSubLSmZLSmQKSmTyV2I60rsIDQBGmptw5CYcFau5S++rUM2p8CP0AwAYTYZpykvn5aXzkqSg56vbPpbfbqjvd043gYvj0xEG25WXzsnL5OUm0jKtq/1YfrWrAwAAAEaU7SZkuwmli9Vhl/LJrtZkKQAAAABXDqEBAAAAwECEBgAAAAADERoAAAAADERoAAAAADAQoQEAAADAQIQGAAAAAAMRGgAAAAAMRGgAAAAAMBChAQAAAMBAhAYAAAAAAxEaAAAAAAxkD7sAAJ8v0zJlylRzy1fgh8Mu50rod2LZJUuGYQy7FAC4FkzLkhkH6u9/r7BVH3Y5QxdHfal/IsuufNBxhAYAQ2PbtmzT0au/NhRGhAZJSnie3JpLaACA/xPHduTEPXVW/6AoioZdzvAZxum9xvnJBx1GaAAwNHdX7iqTzigMQy7kZ2zbVrFUVDKZHHYpAHAtPHjwC42PVxUEoeKYe41hGLIsS5VqVab5/l8qGHEcx5daGQAAAICRxofQAAAAAAYiNAAAAAAYiNAAAAAAYKB/A3j2K1FxvCe8AAAAAElFTkSuQmCC;" vertex="1" parent="1">
          <mxGeometry x="3160" y="219" width="781" height="731" as="geometry" />
        </mxCell>
        <mxCell id="EplgCJx75FvECkNWApzD-8" value="" style="shape=image;verticalLabelPosition=bottom;labelBackgroundColor=default;verticalAlign=top;aspect=fixed;imageAspect=0;image=data:image/png,iVBORw0KGgoAAAANSUhEUgAAAXQAAAGOCAYAAACHavgsAAAACXBIWXMAAA7EAAAOxAGVKw4bAAAALnRFWHRDcmVhdGlvbiBUaW1lAFR1ZSAyNSBKdW4gMjAyNCAwNjozNzozMyBQTSBDRVNUKkGesQAAABl0RVh0U29mdHdhcmUAZ25vbWUtc2NyZWVuc2hvdO8Dvz4AACAASURBVHic7N3pcxzXeS7wp3v2FYPBYLDvO8B9FSWSokUp1mLZJSsu3+uknEoqrnKlUknlU/LR/4C/pmI75dJ17CiOZImRLUqyqcUUN3MBQYIAARL7Dsxg9n26+9wPZLcwmAEJkphpovP+qmyXCZL9spenT59z+jTHGGMghBCy7fFqF0AIIWRrUKATQohGUKATQohGUKATQohGUKATQohGUKATQohG6NUuoBQYYxAEAdlsFoIggOd5GAwGGAwG8Hxp72miKCp1MMZgMBig1+uh15f2UDDGkM1mlVrk/aHX68FxXEnrWLtPOI4r+bGRzw9BECCKInieV46JGudHJpOBJEkAAJ1OB4PBAJ1OV9I6JElCNpuFKIqQJAk6nQ56vR4Gg6GkdZBHo/lAZ4xBkiT4/X4sLi5iZWUFdrsdNTU1qKmpgdVqLVktkiQhFothfn4eKysryGQyqK2tRU1NDSoqKkpWhxzmCwsLWFpawsrKirI/qqurS3ZzkY9NIBDAwsICVlZWYDKZUFtbi+rqajgcjpLVsLKygpWVFUQiEdhsNng8HlRXV8NsNhe9BpkkSQiHw1hYWEAkEgEAuN1uVFVVoby8vKR1ZDIZzM/PIxAIIBaLwe12o7KyEjU1NSW94ZNHo8lAlyQJoihidHQUExMTWFxcxPLyMvx+P0KhEMxmMyoqKuD1elFTU4P6+np0dnaisrJyy09WQRCwuLiIkZERLC4uKgEaCoUgCIJyoVRVVaG+vh6tra1obW0Fx3FbWosoiojH47h9+zZmZmaUm9vq6irC4TDKy8vh8Xjg9XpRV1eHxsZGdHZ2wmazbWkdcmt4fHwcY2NjyrHx+XwIh8MwGAxwu93Ksamrq0NHR8eWBolcw8jICCYnJzE/P4/l5WWEw2EwxqDT6WA2m+H1elFbW4uGhgZ0dHTA7XZv+b4QRRGzs7MYHR1V9sXKygoYY+A4Dnq9HhUVFaiurkZ9fT3a2trQ2Ni45U8OoigiHA7j9u3bmJ2dVc7TZDIJ3H9ScDgcyvnR3NyMjo4OmM1mCviniOYCXZIkJJNJhMNhfPrppzh9+jT6+/sRDoeRzWaV38dxHKxWKzo7O3H06FG8+eabsFgssFqt4Hn+iU9SSZIgCAIikQj6+/vxX//1X+jv78fMzAzS6TTWvqBrMpng8Xhw9OhRvPrqq6ioqIDVaoXRaHziOuQWaCwWw/T0NE6dOoU//vGPuHnzJlKpFERRVH6vXq+HxWLBgQMH8MILL8BisaCxsREWi2VLbjCSJCGVSiESieDs2bP44IMP0N/fj9XVVWQymZzfa7Va0dLSgqNHj+KNN96A3W6H1WqFTqd7ojrkGkKhEM6cOYOPP/4Yf/rTn5BIJMDzPDweD2KxGKLRKKxWK/r6+nD8+HG8+eab6Ovrg9Vq3bJ9kc1mEQ6HcfnyZbzzzjvo7+/HwsIC0uk0PB4PeJ7H6uoqDAYDampqcPToUXzjG9+Ay+WC1WqFwWDYsvMjGo1ibGwM7777Ls6dO4fh4WGk02lYLBa43W74/X5ks1lYLBYcOXIEL774IhwOB6qqqmA2m0veNUUK0/3oRz/6kdpFbBVJkuDz+XDhwgX827/9G86cOYORkRGEw2GIooj1qxxIkoR4PI65uTnMzMwgGAyitrYWRqPxifsKI5EIxsfH8R//8R947733cPXqVfj9fqRSqbw6GGPIZDLw+/2YnZ3F+Pg4HA4HXC4XTCbTE120mUwGS0tL+PDDD/HWW2/h3LlzmJqaQjweV/pp19YhiiIikQjm5uYwMTEBQRBQW1u7Jf24fr8f165dw89+9jN88sknuHXrFkKhELLZbMFjk0gksLCwgJmZGaysrMDr9cJiscBoND7W9uUujYsXL+Lf//3fcebMGdy+fRvRaFTpv+d5HplMBtlsVrkRzs3NYXp6GrFYDPX19cpYw5MIBoO4ffs23nrrLXzwwQcYGBhQbmzyU4IkSUin08pNaGVlBbOzs5iZmUF5eTkcDgdMJtMT1ZFMJrG0tIRTp07hF7/4BS5cuIDZ2VkkEglIkqQ0blKplNKnHg6HMTc3h7GxMXAch6qqKhiNRgr1p4BmAj2dTiMYDOLs2bM4ffo0PvroI0xPT28Y5rgfYPKfk7seGGOw2WwoLy9/rNagKIqIxWK4ceMGPvroI5w+fRo3btyAz+dTLtZCdQiCgGg0ikAggMXFRQCA0WhEdXU1eJ5/rIslkUhgZmYGf/jDH3D69Gl88cUXWFhYQDweL1gH1gRpMBjE8vIyUqkUAMDlcsFmsz1WqGcyGUQiEZw7dw6nT5/G6dOnMT4+jmAwqAwOF9onmUwGoVAIq6urCAaDYIzBarUqrddHOTbyjerLL79Uzo/JyUmEQqGcG5t8LOTBwFQqhWAwCJ/Ph1gsBsYY7HY7ysrKHuv8kI/ztWvXlDqGhoawurqac2PjOC6njmw2i0gkgtXVVaVLxmw2P9H5EY/HMTExgU8++QSnT5/G+fPnsbi4iEQikXNM5O1LkqQ0ggKBAJaWlpDJZMDzPNxuNywWS8kHb8k6TCP8fj+7cOECe+2115jVamUcxzEAj/Qfs9nMampq2I9//GO2vLzMstnsI9eRTCbZyMgI+5d/+RfmcDiYXq9/5Dp4nmdut5t9//vfZ5OTkywWiz3WPpmbm2O/+tWvWE9PDzOZTI9cBwBmt9vZ7t272alTp1ggEHisOoLBIBsYGGDf/e53mc1mYzzPP3IdRqORVVVVsR/96EdscXGRpdPpR6ohkUiwW7dusW9961vM5XI91vlhtVpZbW0t++lPf8p8Ph8TRfGR90UsFmNDQ0Ps7//+75ndbmc6ne6R69Dr9czj8bC/+7u/Y3NzcyyRSDxyHYwxNj09zX7yk5+whoYGZjQaH7kOjuOY0+lkzz33HDtz5gwLhUKPVQfZOtu+hS63si9duoSf//znuHbtGgKBQF53gsVigcfjQWtrK+x2uzI1bG1LRG4VylPHWltbH2lQMJvNYnZ2Fr/85S/x6aefYmZmJqePGgAMBgOcTicaGxtRU1OjtMLW/r61U/n8fr8yQLjZOkRRRDqdxgcffIB33nkHw8PDea0ujuNgt9tRXV2Njo4O8DyvPFKvJbfOkskkjEYjenp6lD//MPL+vH79On7605/i8uXLWFlZyTs2ZrMZ5eXlaG1tRVlZmXJsCrWcBUFAIpFAY2MjysrKNr1Prl27pvQPLy8v5/07rVYrKisr0dbWBrPZrLRIC7VUBUGAJEno7Ox8pHGOTCaDsbExvPXWWzh79iwWFhby9oXRaERZWRmamprg9XqVOgqdH4IgIBAIoKam5pEG9AVBQCqVwjvvvINTp07hzp07eeM6PM/DbrejtrYWbW1typ8TBCHn75L3STweh8ViQUdHB7DJ84NsvW0f6Ol0GqOjo/jkk0/w61//Whm8kZlMJlRXV6Ovrw8HDx7EgQMH0NTUhPLycmX6XjqdBtZ1fSSTSbS0tMDhcMBms22qltnZWVy6dAn/+Z//ieHhYaW7QubxeNDW1oaDBw9i//796O3thcfjgdFozOm3xf1QTiaTWFhYUKbxbbbLIxQKYWhoCL/5zW9w5swZRCKRnOBwOByoq6vDnj17cODAARw4cABerxcOh0MJLHkfylPYAoEAjEYjWltbYTKZNjWdTxRF3L17F2fOnMGvfvUrLC8v5wx+Go1GeL1e9PT04NChQ9i/fz9aW1tRUVEBjuM2PDaRSARNTU1wuVwPndqYzWbh8/nwhz/8Ae+++y5mZmaUmRu4f3643W7s2rULhw8fxoEDB1BfX4+ysjIlNOWa5RoikQgEQUBLSwtsNtump75OTk7i3LlzePvttzE2Nqb823A/QCsrK9HR0aHsi66uLng8Huh0uoLnRzwex/LyMhoaGlBZWQmHw7GpIPX7/RgcHMSvf/1rfPnll4jFYjnnR1lZGRoaGrB3714cOHAA+/btQ2VlJWw2m9LgkYNd7uf3+/2w2Wxoamp6onEO8mS2faAHg0H84he/wEcffaQM4q3l9Xpx4sQJfP/738ff/u3f4ujRozh+/DiOHj2q9BUvLS3l/JlUKoVEIoFMJgO32620UB7mo48+wi9/+UsMDg4iEonktYifeeYZvPnmm/jHf/xHvPjiizh69ChefPFF2Gw2+P1+BAKBnJuAHB64PwOlu7t7U4Ngt2/fxk9+8hNcvHixYCuwvb0dX//61/GDH/wA3/3ud/Hss8/ixIkT6OrqQjAYRCgUQjAYVH6/3K+eyWSQTCZRX1+P6urqh9aRSqXwq1/9Cr/97W9x586dnBst7vfLHz9+HH/xF3+BH/7whzh+/DiOHTuGkydPIpPJYHV1FcvLyzn1p9NpxONxCIIAp9OJ7u7uB9YQDodx/vx5fPTRRzh79mzeoLTH48G+ffvwgx/8IOf8OHjwIGKxmNJ/vlYymUQqlUIqlYLX60VTU9ND9wUAvP/++/j1r3+N4eFhxOPxnJ+ZTCY8++yz+M53voN/+qd/wokTJ3D06FG89NJLMBgM8Pv98Pv9OTdEuV8d959yent7N3XDv379Ov71X/8VV65cydu/ANDb24tXX30VP/zhD/Htb39bOT9aWlrg9/sRDocRDoeV3y8PHss3v6amppK+V0G+sq0DfWlpCQMDA3jvvfdw69atvIukq6sLzz//PP78z/8c+/fvR21tLaxWKywWC2w2G8rKymAymRAKhZBOp5UwlVti4XAYlZWVaG5uhslk2nBmQywWw507d3D69Gl89tlnymCfrLq6GgcPHsQbb7yBkydPKt0+VqsVVqsVdrsdbrcbiUQCiURCuUjlKWWpVAocxynzwjdqHTPGMDU1hfPnz+M3v/kN5ufnc24QFosFO3fuxNe//nV8+9vfRm9vLyorK5Xpmna7HZWVlZAkCZFIBIlEIqclJrfUW1tbUVVVpUzhK8Tn82FwcBDvv/8++vv78wZiW1tbcezYMbz55ps4fPgw6uvrlWNjt9uV/RMOh5FOp5FIJHKOTTQahcvlQnt7+4azkuQusLfffhuXLl3C8vJyzqBjbW0tjhw5gr/8y7/EoUOHUF9fr+wLeWBcr9cjHA4jlUrlPC1ks1llVlRDQwPMZvOGYRoKhTA6Oor/+Z//wblz5xAOh3NCtL6+HocPH8Ybb7yB559/Hs3NzTnnqTwIG4vFkEwmEYvFcs6PRCIBk8mErq4umEymDW/6giBgYmICX3zxBd577z34fL6cpwSHw4Hdu3fjlVdewTe/+U10d3crg502mw02mw1VVVXIZrOIRqOIxWJKV5B8fkQiEbS1tcHj8Wz6yZZsnW07D10Or7Nnz2JkZASrq6vKz3Q6HYxGI/bv349XX30VL7zwQs6jOcdxynxao9GISCSC3//+98r0NdyfITIyMoL+/n7s2bMHhw8f3jBIg8Egzp8/j4GBAczPz+dsx2g0oq2tDd/85jfx0ksv5bUoeZ5HZ2cnKioqEI/HkclksLKyovTT4n5XzsDAAK5evapc3IVIkoShoSFcunQJExMTOV0LBoMBFRUVeP755/HKK6/g2LFjOX+W4zhUVlbipZdegiAIiMfjiEajyiM2AAQCAWVefUtLC9xud8HZFYwxzM3N4Y9//COGh4dzWrjysdm9ezdee+01nDx5Eh6PJ6cOvV6PAwcOwGKxIBqNKlPl5Bkx6XQad+/exfXr1zEwMIBDhw4V7PYIh8OYmJjAxYsXMTk5mbeN3t5enDx5Et/4xjdybk4cx8HpdOLYsWPQ6XSIxWL45JNPcm5w0WgUQ0NDuH79Ovr6+uBwOAp2MzDG4Pf7lbn/8gwm+dgbjUZ0dXXh9ddfx0svvYTm5ua849LX14eysjLE43FlXEXeF5IkYWpqCtevX8fVq1dhNBo37IbKZDK4ceMGrly5krM/5POjqqoKJ0+exMsvv4wjR47k1SF3/aVSKSSTSeVpTj4/5BvEtWvXUFdXh8rKyoJ1kOLZli10+UT+9NNP8fbbb2Nubi6vpdHU1ITvfe97ePnll+F0Ojec1mWz2dDW1oaxsTHMzs7mDQ5xHAdRFLFjx46c4JFJkoSxsTH8/Oc/x+DgIKLRqPIzvV6Puro6nDx5Ej/4wQ9QU1NTsCUpr19SXV2NRCKBmzdvKn3ZayUSCTQ1NaGrq6vgPhEEAW+//TZ+//vfw+fz5bQCPR4P+vr68Nd//dfYv39/wZuT/MKMy+WCy+XC0NAQgsFgzr5du98OHDhQ8N8jSRLOnz+Pt956C9PT0zlPCVarFQ0NDXjzzTfxxhtvwOVyFWzZyi9+NTc3Y3Z2FhMTEzlrnMi/J5VKobe3FzU1NXl/x40bN/DZZ5/h4sWLCIVCyq/r9XrY7Xb81V/9FV577TV4vd6C5wfHccp4g/wm5/pxEXnu+u7du+F0OvP+DsYYBgcH8bOf/Qx37txRWte4P4ZQV1eHV155Bd///vdRWVlZ8ClQbhjU19cjEAjg9u3bOTdaWSwWQ1tbG1pbWwvWEYvF8Mtf/hJffPEFAoFAzs+9Xi/27duHv/mbv8GOHTsKtvLl86O8vBwWiwWDg4OIxWJ5L4VJkgSXy4VDhw7l/R2kuLZloCeTSUxNTeH3v/89Pv30U+UlCNw/6To6OvDmm2/ixIkTaG1t3fBRWA5Sh8OhPEJOT0/nXCjyLJQdO3agoqICFosl5++Yn5/H5cuXcerUKSwtLSkhLM8ieeWVV/Dyyy9j//79D3yzj+d5WK1WpR9SXh5AJvdTNjc3KzMx1v67gsEg7t69i/fffx8DAwM5wcPzPA4dOoRvfetbeO655+D1ejesg+M4mEwmGI1G5Y3bubm5nN+TyWRgt9uxa9euvAGwdDqN6elpfP755/joo48Qj8eV/clxHBobG5Wup87Ozge+oKPX6+F0OhGPx5FIJJQbrkweOO7r60N1dbXSSpdv+J999hk+/PBDTE5O5vy52tpaHD58GK+//jp27ty54UwV+fyw2+3KE8v6lm02mwXP89ixYwfKyspybpSSJGF2dhYXLlzAqVOnEAgEcs4Pt9uNb3zjG/izP/sz7N69+4ELo+l0OtjtdqVrcHl5OafxIHeTdXZ2oqmpKe/tzdXVVQwPD+PUqVMYGhpSQli+IR07dgyvv/46jhw5gvLy8geeH/K5J8/RX/vUgftjJ/JAs16vpwHSEtqWr3ZFo1FcvnwZw8PDCAaDymCb3Krr6urC9773PWU63oPodDpYrVY8//zzePHFF1FWVpYTMsFgEGNjYxgcHMwLNgAYHR3F1atXsbS0lNPFYTQaUVlZiZdffhnPPffcQ1+EkYO0r68P3/3ud9Ha2ppzISSTSUxPT+P27dsYHR3N2Rbujyf88Y9/xMTERM6ArE6ng81mU/rwq6qqHjoTQn5aeP3113Hw4MGccGCMYXl5GaOjoxgYGCg4YNjf34/BwUEEAoGc1pvFYkFrayu+853voK+vb1PHxmw248iRI3jllVfg8Xhyjk04HMb4+Dhu3bqFqakp5d8sDyaPjIzg+vXrSv+7vJ+bm5vx+uuvo729/YHjAFhzUzl58iSOHz+e9/LM6uoq7t69m9edgjVdYNevX4fP58u5ycqLkL3++us4dOjQQ88PnudhMpmwd+9evPnmm8obq7J4PI7JyUkMDw/j7t27eQPQs7OzylvCa58S5BvFs88+i9dee+2BYS4zGAxoaGjAt7/9bezduxcmk0k5lqIoKmsXDQwM5Ayuk+LbdoEur5x4+vRpDA4O5vxMp9Nh9+7dOHToEGpqavJa0w9SW1uLHTt2YN++ffB6vTk/i8fj+PTTT3Ht2jXl1+S5wH/605/w+eef54QGADQ1NeFrX/sa2traCj6Kb6S8vBy9vb3Ys2ePskjXWjdu3MDHH3+c13qfmJjAO++8g5mZmZzf73K5cPToUezatQsej2fTSxqYTCa0trZi165d2LVrV16/7MLCAt5//32MjY3l1BEOh3HmzBn09/fn/Z19fX04cuQI6uvrH2nATJ52unfv3ryulUwmgy+//BKXLl1SAj0YDOLChQu4e/duzsCd3Lpsbm7GiRMn8o7zRnQ6HRoaGrBz507s378/bwZHMBjExx9/jJs3byq/Js/BP3fuHM6dO5fXfdbe3o7jx4+jubn5kVaVrKioQG9vL/bu3Vtwds3Vq1fx+eef50wQkCQJo6OjOHXqVN5Nx+Px4MSJE+jr60NFRcWmlzSwWq3o6OjArl27lDVu1pqensZ///d/Y3p6etP/NvLktl2gh0IhpaW6srKi/Lrcz7h//34cPHgQNpvtkdbbkOfQfu1rX0NDQ0POz1KpFIaHhzE6Oqos8pVMJjE/P4+7d+9icnIy51Ga53m0tbXh5MmTytowm2UymVBRUYGDBw9i586dea3YmZkZDAwMKK/li6IIn8+HiYkJDA0N5Uwnk1/Jfv7559HT0/NIiyjJq+v19PTg+PHjcLvdOT8PBoO4evWq0uKTH/lnZmaUlSVlHMcpN9tnnnkm7ynoYaxWK+rr63H8+PG8/mF51cTh4WGEQiFluYArV65gZmYm53V6g8GA1tZWdHd3o7GxcdM3Fbn7rK2tDS+99FLeTUUe9xgbG1PmqMfjcczOzuLOnTuYmZnJ6RLU6XTKDCyv1/tI6wbJq0A+88wzyktea01OTuLGjRvw+/1Ip9PIZrNYXl7G+Pg4RkZGclrnPM8rA6EdHR2PtG6Q/OSyY8cOPPvss3k3Jb/fj0uXLmF2dvaBS02QrbXtAn1hYQEjIyPKQleytV0Le/fufay1LaqqqvDqq6+ira0t58QWBAHz8/OYmppSBsZCoRAGBwcxPz+fs9CVfGPp7OzMm8GxWXq9HocPH8ahQ4fy+lUDgQAmJiYwNzen3FwmJiYwPj6et6KkXq9X5uHLb/A9KnnO+vp+90QigcnJSczMzMDn80EQBCwvL2N4eDhn2VXcPzZyd8Hhw4cfa0Ept9utzBJaW4ckSVhaWsLU1BTm5+eRSCQQDodx7dq1vNao2WzGgQMHsHPnzpxugs2qr6/HN7/5TTQ2NubUkE6nMTs7i+npaeXlqUAggFu3buWtjSKfH/KNcqMZSw9itVpx9OhR5TxfW4vP58PU1BTm5uYQjUaVGUGTk5PKzUYmr+L40ksvoaWl5ZHrAICenh688MILeV010WgUExMTmJmZwerqat5cd1Ic2y7Q5RbI+j7kmpoaPPfcc0rL63FePbZYLGhoaEB3d7fSYllrcXERFy5cwOrqKlZXV3Hx4kUsLy/n/B6r1Yp9+/ahu7sbTqfzsVbl43keXq8X7e3t2LlzZ97HDRKJBPr7+zE5OYlsNouhoaGcrg9ZW1sb9u/fD6/X+9gfaigrK0NzczN6e3vznlwAYGxsDDdu3EAqlcLMzAz6+/tzBusAoLKyEseOHUNzc/NjHxuTyYS6ujp0dXWhu7s77xHf5/Ph3LlzmJ6exurqKiYmJvL6b+WbysNeRtqI1WpFU1MTenp60NramndsZ2dncfnyZYTDYSwtLeHixYs502lxf38eOnQInZ2dcDgcj7WYlU6nU5Zs2LFjR16XXjgcVp5QEokEbty4kTeYi/vvaezduxcVFRWPPXApL9nQ19eH2travJ+Pjo7i1q1beX36pDi2TaDLfdaTk5MYGhrKmz4mB/pGUwM3w2AwoKysDJ2dnejr68sLQfki9fl88Pl8uHz5ct6goM1mw/79+9HZ2flYrUDcb8XZbDY0NDTg0KFDefN54/E4rl+/rsw1Hx4exsTERN7f097ejn379sHlcj32cq/yWu07duwo2IqbmJjAjRs3lC6GGzdu5DzWY02gNzQ0PPYa7/IjfltbG3bt2gW73Z7zc5/Ph/Pnz+P27duYm5uD3+/PuembzWbl1fpCwbMZRqMRLpcL3d3d6OrqyjvP5ubmcPnyZWUlwitXruRND3Q6nTh06JCyhMLjnB/yOitNTU04cOBAXndYJBJRAj0Wi2FwcDBvbAUAuru7sXv3bjgcjsc+P+QuoN27d6OxsTHnZ4wx3LlzB8PDw3ljCKQ4tk2gy2tGTE1N4fbt23mBXltbi2PHjj1WF8d6chCubwUuLS0pbxyurKygv78ffr8/5/fIgV5oLvCjqqysxPHjxwv22Q4MDGB8fByxWAwjIyOYmprK+/MdHR3Yt2/fIw0OF2IymbBnz56CLdvx8XEMDAwgHA5jZmam4Bu7Xq8Xx48fR1VV1RPVAQAtLS04dOhQXqvU7/fjwoULuHz5csHFptxuN9rb21FVVfXEbzD29PRg9+7dBQP9ypUr8Pv9WFpaQn9/f95TQllZGZ555plNLxfwILW1tTh+/HjeOR+JRJTxjUgkguHhYczOzub9+e7ubuzcufOJ13a3Wq3Yv39/wSUyKNBLa9u8KRoOhzEyMqK8RLR2Wl55eTkaGxuV1RGfVENDA3p7e1FeXp7zNR35YwDnz59HJpNR1hSROZ1O1NXVobW1dUtuLOXl5di7dy9qa2thsViUdUgEQUAwGMSNGzfg9XqxsLCQMz3QbDbD5XKhubk5b3rb4zAYDOjo6EBbWxtsNhvS6bTy747FYpicnMSZM2eUBcnk/lKe5+FyudDQ0ID29vZHmu2zkZqaGuWdgLXz0lOpFHw+HwYGBmAwGPJedqmpqVFe/nnSlQDll7vKysqQTCaV7oREIoG5uTmcPXsW8/PzSCaTeYteyZ8Z3IpvhFZUVGDPnj3Kt0/lRk42m8Xq6ir6+/uVaaZruzwsFgvKy8vR0tKC2traJ17D3GKxoLu7W1msbO2XsCKRCObn53Hnzh10dHSU9Nuo/xttq0AfGBjA0tJSzos/8pzY5ubmLXvV2O12o6mpCfX19VhZWVFa4fInw65evaosG7p+oaf29nbU1NTkdQk8DpvNhubmZjQ0NMDj8WBxcVFZEiCRSODOnTswGo15b4XabDa0t7ejoaFhSy4guc+2sbERdXV1JwI9XAAAIABJREFUWFxcVPrJ0+k0FhcXcfbsWYyNjeUcG57nUVdXh5aWFni93i35+IEcRA0NDZicnFRmOgmCoKypo9fr8/ps1wb6k6qsrFTOD3kBL9yfQhkIBHDp0iVEIpG8NzmrqqrQ1tamrJz5pJxOp7Iv3G43lpaWlKV2E4mEsmzy+o94OJ1OdHZ2or6+Hi6X64nrMBgMyndoa2pqsLi4qDylyTfa27dvw+12U6AX2bbpcpG7FtYPMplMJuzcuXPTKyJuhk6ng8vlwq5du1BXV5fzM3ntjKmpqbyR+6amJuzdu3fLFiXieR4GgwFtbW3o6urKG7haWVnB0NBQ3iCk2+3G4cOHN7Ui4mbIa59UV1cX7LOVPz69foBYXi+ls7Nzy9bHlvuP+/r6CnZbyF/0KRSmO3fu3JIbrU6nQ0VFBfbu3Zu3j7PZLMbHxwt2cbS1tWHnzp2PPUC9nvyyUWdnZ8GX6JaWljAyMpL3jkRlZSWee+65LWsAyedHXV0d9u7dmzdzR752148nkK23rQL9zp07eSeFvMrc+gGZJyEPShYauZdfbFp/YwGAuro69Pb2bnp97M3W0tTUhI6Ojryuk1gshsXFxby1VsrKyrBnz55Nvziz2To8Hg/27t2b18qSv1u6dg487gefvLbIVgW6/HJQV1dXwVk3mUwmr0vObrfD4/Ggurr6ib/BKdfgdDqxa9euvH0siiJWVlYKviHZ2NhY8Mb8JHQ6HVpbW9Ha2poX6PJsm/VPK263G/v27cu7MT8J+duiO3fuzJuTHovFMDo6SoFeAtuiy0V+lXtycjLvxRmz2YzW1tbHnrmwEavViu7u7rwWGGNMaRGvnVvM8zxqamrQ3t6+ZS0wWUNDA9ra2vICPZlMIp1O53VzlJWVoaenZ0svWNwPgkLTKAVByHusl+dby/34W8lkMqGjowN1dXXgOC7vq0Jr6fV6uN1ueDyeLelukTkcDvT19eW1cuVvl64lnx9y99OTjmms/7ubm5vR3Nyc16WVSCRy+rOx5mUzee2ZrVRZWYm+vr68/RyPxzE2NoZAIADGGH3NqIi2RQs9FAopi1WtbY2aTCaUl5ejpqZmS/oC15LXHZH7fte/zLI2OOQpdV6vF1VVVVt6weJ+/29TU1Pem3zyVM61gWa1WlFRUYG6urot6V5Yq6ysDN3d3SgrK8tpDRaqw2QyweVyobq6WvkC0VaRbxTyB5If9HcbjUY0NDRs+QcX5HEK+YtCDzo/5OmwVVVVG66o+LjkG0VDQ0PeS2jrj4v85OnxeJT157dSeXk5Ojo64HA4cs6PRCKhvB+w0YfSydbYFoG+vLysfKxh7YXicrmUT5Ft9Ypuer0eLpcLlZWVqKyszAlpxljOSWk2m9HY2IjKyspHer1+s9Z2GawN6fV1cBwHr9eLurq6R176YDPkZQm8Xi/Ky8vzQn1tLU6nE83NzSgvL9/yY6PT6VBWVobKykpUVVU9sBvFZDIV5Qs6BoMBbrcbXq83bw2U9ftCXgbY4/HAbDZv6c1NXuJXPj/WhvT6OnQ6HWpqalBTUwOr1brl54f83d6qqqqc1r8oiojFYvD5fFhZWaGXjIpoWwT6wsICZmdn8wa6Kisr0dnZueUtDazpMvB6vWhubn7gXG6bzYbOzs4tmapYiF6vR1lZGVpaWh46S6ChoQGNjY1bMqNkPXn1w7q6OtTW1j7wxuV2u9HT0/NIC09tlrysrfzR7wcNQsuLcW31xxbkj1NUVVWhsbHxgTctp9OJnp6eos3wMBgMcLlcaGtre2A3ik6nU2bnFINOp4PFYsn7RKG8nPHy8jJmZmbyppSSrfPUBzpjDEtLS5ifn88LdPmjy0/64syDbGYb8spzxfyOotVqRXt7+wO3wXGc8vhdjECX1dXVob6+/qGB3tnZueXdPmuVl5c/dBtyl8tWjyfIqqqqlE8UbsThcKCrq6uoU/bkbTyo61Gv16OhoWHLx5s2uw2fz0eBXmRPfaDj/olQ6GO28gtFWz0IuZbL5XroNiwWCxobG7e8H3/9NuTupY3IXS5y33IxbHYbcpdLMZ6eZPI6Mw/ahvxpta0eAJRVVFQ89OUtuctlKwdl17PZbGhpaXngNuSB+62c/bTRNgo9EQUCASwsLFCXSxFti0APhUIIBAJ5ge5wOLZsKtpGnE4nqqurH/hIbTQaUV1dXZTuBZnJZEJNTc1Dt+F2u7d8EHItjuNQUVEBj8fzwEC32+2ora0t6s12M9vQ6/UoLy8v2geL5cHOBwW6xWJRxjWKZTPb4HkeFRUVRX1S0Ol08Hg8BZ+IwuGw8j1UUhzbItCDwWDBQLfb7aiqqirqJ67sdju8Xu8Dt2EymVBVVVXU7gV5Gw8LhfLy8g0/3rwV5G+OPuzLNlarVXklvVisVusDB0X1ej0sFgucTmfR6nA6nXlfUlrPbDbnDVhutc1soxSBLm+j0JNkJBKhQC+yp3oeuvx6fSQSyfmsmvxmmsPhQHl5+ZaP1q/lcDgeGOhyaLjd7qL25csDtBvdNOS3BsvKyrZkvZIHedBNQz42drsdbrd7y6dwrmWz2R540zCZTLDb7bBarUWrw+l0PnAqol6vV6aSFvPm9rBAlwe0y8rKitrwkOe5PyjQ14+Fka3zVAd6JpNBJBJBIpHIWTdF/pqOw+GAxWIpang9rIUutwBtNltRw+thTwFGo1G5WB/lyzOPSv7qu9vtLrgN+dX8UhwbOdA3aqHbbDaUl5cXdYBYbqEXOvbyvG+n01mUaYJryYG+0RPc+vOjWORAL/QUEI1Gcz6UTbbeU93lkkqllI8vr51PK7dWi90SxZoWlt1uL9jCWvuUUMxa5LdibTYbbDZbXutYXu97q+c5F2I0GmG1WuFwOPKCTF4HR365pJi1yK1Om81W8NhYrVY4nc6iBrrBYFDOj/VBKS8RUFZWlvfy0VZbuy+sVmve+SE/JRTzZo81033lm+nahlA2m1UWC1v/gRqyNZ7qQJeXq11/8A0GA7xeb1EHIWXyAlkbhYbdbofT6Sxan7VM/halxWKBzWbLCymTyQS3213U8QSZPAfb4XDkbU9+6aeYA4Br65CPTaHuLvnGU8xjI9ewUctXflop9k1W7uqyWq2wWq152zObzUV5yasQnU4Hq9UKj8eTs0/kbxoEg8G8BcPI1niqAz2dTisfu11LftGmmH3Wa8kLQhW6GAwGw2N/hedxGAyGgm+jyi20YrZG12+vUDeC3EIrZvfT+u2ZzeaCYcpxXEmOC8/zsFgsBc8Po9FYkhBdu71CT2l6vb4obzFvxGQyKU+MawmCgEAgkPcRFLI1nupAF0URmUwmb3aL3BopVXjhfoBtNAhYqosE98Oj0L9bbsGX6sYib6/Qv73YXS2FatmoP78U+0Q+B9ZvZ6NfLyae55+KWnQ6HYxGY975wRhDNpulgdEiKfqgqPyFnfUfg9iMQqvFYc2rxOl0etN3enldC7kG+UTbzAmeSCQgCELB+uWZOIlEYlO1yH/H2q/6bLYO3B8oLlSHvBBTKpV65H0iSZJysW+2Dvm4bLRP5C86PUodj3Ns4vE4stnshl+VF0URyWTyobUU2hebrSGRSBTcF/Lfl81mEY/HN6xx/Z9BEc+PzeyLtXU8yfkhSVJeLZIkIZVKbfp6WUtuyBkMBlqxcQNFDXRJkpBMJjE7O4vR0dGcz3VtxuLiIgYHB/M+xJzNZuH3+3Ht2rVNj5gLgoB0Oo1IJAKTyaQMlm3mxAgGg5ifn8/r+sH9tZ7Hxsbw4Ycfbmo6mHyBR6NRCIKgLCy22Vb+rVu38j5thvsX0MrKCr788kvlKz4PI9+IIpGI0u+92aeekZERhMPhvP0viiJCoRBu3ryJ9957b1N/l/wkFolElO60zR6bZDKJ6enpgq+TR6NRTExM4OOPP37osgyCICCVSiESiSgDvptt0S4sLOR95k0WiUQwMjKCDz74YFPdUGun6jLGlA98b/b8GB0dzVvEDvdvOgsLC/j8888xOTn50L9HbojF43HEYjG4XC5YLJZNnx+3b99WzvG1wuEwLly4gFAolPet3AfR6XSw2WxobW1FR0fHI10z/5sULdAzmQyCwSDOnz+PwcFBjI+PI5lMPtKUpWg0iqWlpbyF8TOZDObn53Hx4kWMj49v6u+SQyMWi8FoNMJut2/6gk2lUjnfr1wrHA7jzp07EEVxU32l8oUSi8UgiiKcTucjtTjGx8cLtvbkGUFnz57F0NDQpv4uOcRisZgyzXCzF8nq6iqCwWBekIqiiEAggIGBgYIfeShEbtHHYjHl/YLNHhtBEDA5OZn30XDcD9Px8XF8/PHHDx1vEUUR6XQasVhMmS2y2fCKxWJYWlrKOz8YYwiFQhgeHkYmk9nUvpUkSTk/GGNwOp2PNINqdHQUiUQir2Usf+/0888/3/QyCIIgKC16+eWsRzk/fD5f3nGJxWLo7+/H7OzsIy2FII/ZNDc3o6+vD88+++yWfA9VazhWpMWJQ6EQhoaG8M///M+4fPkyrd9ACHli8ppGP/7xj/HCCy8U9WWt7ahozywLCwu4fv06gsEgDYAQQraE/OQ/ODiIu3fvql3OU6dogR4KhTAzM4NEIrGpwSBCCHkYURSVLyAtLi6qXc5Tp2iBLorihjNDCCHkcTHGEI/H6W3TAoo6y2X9J7AAwGC2wlrmgbXMA5O1eIsEyTLJOMLLM0gnIhAyXw1acbwOtjIPrC4PrGXF+zCFjDEgvDyDRMiHbDp30MpsL1P2id5YvHU2ZInwKsIrc8imE5CEr8Y29EbzvTpcHphtxVu7W5ZNpxBenkEqFoKQWTN4xnH3js39/3B88aaopeIRhJdnkEnGIWa/Oj94vUGpweIs3uqEMkkU750fkVVkU7lvUVoc5cpx0emL/8JWLLCCqH/h3vkhfjWJodTXrpBJIxHyIx72Ix3/6uPw66e5kq+UfHEuo9kOd20rKpt74fDUFX17scAixGwGopDNCXRep4PDU4PK5j5UNvcWvQ4whsmBLyBkUshmkvcS/j6Lww1PYze8LX0w2YrzIYa1fNPDyCTjkMRsTqAbTBa4aprhbe5FWVVT0etIRgKYGvgCopDJCXQOHGzuKnib++Bt6QXHF+80DS9PI5tKQhKEnEDX6Q1wVtajsrkXFQ2dRdu+TMymMHn9jxAy6bxAt5Z5UNnSC29zHwzm4i+psDQ2gGwqAVHI5AS60WxHeW0rvCW6dlOxIHyTw5CmhJxAJxsrfaBbbCivbUV93xFUNnUXfXurc3fhnx5BPJQ7l53ndXB4alHdsQcte08UvQ7GJER8cwgtTiER9mFt28LiKIenqRtNe47DXl5V9Fr0RhNWJoeQigWxdu6RwWSFq7oJdT2HUN2+u+h1RHxzWJ27i1hgCTkPzxwHu7sKVW270LLva0VtlS6N3bi3L6IBpNfkqE5vgNNbj9qufWjY8WzRti/LpOIILU0jsjKLeCj3Z9YyD7zNvWje+zVYHMX7KpaMSSL80yNIRnOnCxstNrhLeO1GVxchiSIiqwvA0nTRt6cFJQ90jtdBbzTDZHPA7Cj+o6zJ6gCvN4JbP3+W46DTG2G02EpSB2MS9CYzeJ0OQG4XAq83wGCywmwrK0ktBrMNvE4PcLn7hON56A1mmKylOTbpRBR6gxHc+jqAr46N3QWdoXhroRitjsL7guOhMxhhtNhLsi94vQF6ozn/PAXA6/X3zg97Kc+P/Be7Sn3tZlIJGMyWe8eHbAq9akUIIRpBgU4IIRpBgU4IIRpBgU4IIRpBgU4IIRpBgU4IIRpBgU4IIRpBgU4IIRpBgU4IIRpBgU4IIRpBgU4IIRpBgU4IIRpBgU4IIRpBgU4IIRpBgU4IIRpBgU4IIRpBgU4IIRpBgU4IIRpBgU4IIRpBgU4IIRpBgU4IIRpBgU4IIRpBgU4IIRpBgU4IIRqhL/UGhUwS0dVF+KZuQ0inir690PI0UtEAxGwm59eZJCERWUVgfhwWx9Wi18EYQ8S/gGw6CcZYzs/SiSjCKzNYGr8Jq2++6LUE5seQScQgiULOrwvZNGLBJfhnRvJqLIZYcBmJsB/C+mMDhmQ0iODCBBbvXAOvMxStBv/sKNLxCCQhtwZJFJAI+bE6dxcGs61o25dl00nEAksQMvnXRDoeQWh5GktjAzBZnUWvJbg4iUwyDkkSc3691NduIuxDZHkOmUSs6NvSipIHeiYZR3BhAkwSEZi9W/TtJaIBxALLeReKJAqI+hexdHcAqUiw6HUwMATm7gUp1oVlMhKAf3oEQjoJo9le9FpCy9NIxYJ5IZZNJxFanAYY7v1vkaUTEUR8CxDSidwfMIZYYAlL4zeRioXB87qi1RALLiMe8kPIpnN+XRQyiPjmwPE6xAMrRdv+2u0FF6eQScbzfpYI++GbGkY2mYDeaC56LYGFcaRiYUhC7g2/1NduJhlDaGkKqVjxr0+tUCHQYwguTCC6ugidvngtL5koZJFJRAu00EVEVxeQigbhnxkpeh243xK/10KXcn49GQ1CyKQQWp4uanjJhHQK6WQMkphd9+tJhJamEA8uQ2cwFr0OSRSRTkQhrgtTxhjigWWk45F7wcEVrwYxm7lXg5C7L0Qhi8jKHBLhVfimhopXwH2MMaQT0YIt30R4FZlUHMGFSXB88XtJs6kkMqn8J7hSX7uSKELIJJFNJ4u+La0oWqBzHAee58FxHOx2O9zuCuh0PPgSnJC5zIDbofw/xgBwRc2IjTm/al2x+//FqVKIGYArpw7V9kn5V90Z98soMTNQ8VU3htzVxKlxYMosT0cdTjOA8nt13CtGnToAAPfOD8YYRFFEJBJBNpuFwWCAXl/y9uhTr2h7hOd56PV6cByHigoPdu3eDbPFAkMJ7uwbYWBgkgRwHHhO3fFgSZIAMHC8Tp0gvY8xBkkSwfM6FS/aeyQmgQPAqXRs7u0LARzHl+RJ6UEkSbh3w9fpVT4/pDXnh3rXjCRJSKUSuHvnDmZmZmCxWGA2F7/7abspWqBXV1dj586dOH36NBKJBCxWK+ztz8HobijWJh9KTIaRmLgEvbMKloY9qtUBAMnpaxDjAVhbnwFvdmziTxRHNjCDxMQlWJoPwOhpUa0OKZNEcuISeLMNluZDqtQgxPxIjF+EsbIV5to+VWqQJSYugWVTsLYdAac3qVZHxjeG5Mx1WFuPwFBer1odYjIM7u55GI1TsFqt2LFjB9rb21Wr52lVtECvqKhAb28vnnvuOczNzUGvN8JY0QRTTU+xNvlQQnQFqdkB6G0VMKl8wWZWp8CySRirOqCzVahXCLv3xGJw1aq6T6RUBOn5m9BZy1Wrgw/MIDV9DXqHV/XzI700Aikdg7G6C7yx+LNsNiJlEuC4mzC4G1W/dvWzA2hpaUF3dzd27tyJqqoq1ep5WhUt0J1OJ3p6evAP//APuHjxIj774stibYoQ8r/E8ePH8fLLL6Ouro66XAooWqcYx3EwmUyor69HZWVlsTZDCPlfxOl0KmGu9pjP06iow8Q8z8PpdMJmU++RkRCiHUajEXZ78d/V2K7o1X9CCNEICnRCCNEICnRCCNEICnRCCNEICnRCCNEICnRCCNEICnRCCNEICnRCCNEICnRCCNEICnRCCNEICnRCCNEICnRCCNEICnRCCNEICnRCCNEICnRCCNEICnRCCNEICnRCCNEICnRCCNEICnRCCNEICnRCCNEICnRCCNEICnRCCNEICnRCCNEICnRCCNEICnRCCNEICnRCCNEICnRCCNEIfSk3JqVjEBPBUm4yd/vJCCCJYEJK1ToAgGXTYJIIMRkGOPXuq1I6Dg6AlEmoe2xSMTBJgCSkVatDSkXAmASWTap/fghpMFGAlAiBCRnV6pAyCQDs6bh2maja9reLkgQ6x/HgwJCcuITU7EApNlkQE7OQUhFkVsYgRH2q1QEAUjIMJmYQG/oEHF/S+2oOlk0CHIfk9DWkF2+rVgckEWIiCDERRuTau6qUwIQ0WDqO9MIwssE5VWqQifFVMElC9MZvAV6nWh1SOgbGJCTGLz4F125U1cbPdlCiJGEAAJ3VBd7iKs0mC1WRTSKTjoIzWaF3VqtWBwBkxSxYmkFv94DTm1WrQ0wEIMaD0Fmc0Nk8qtXBxAykTByc3qTasZHSUYiJEHizXfXzQ8okwIlZ6JxecLxBtTqEmA9iMgyd1QWdtVy1Olg2iWw6ptr2t4uSBDpjDAwczE0HYKrpKcUmCxKiKxCu+WGsaIV9x8uq1QEA0cEPIQTnYOt+ATpbhWp1pOcHkfFPwly/G+bGfarVIaUiiFx7FzqbG47dr6tSQzYwAyG8BGNVF2xdJ1SpQRbp/w2kdAz2vq+DN9pUqyM5dQVCcB6W5oOqX7uRa+8CTFKthu2Anl8IIUQjKNAJIUQjKNAJIUQjKNAJIUQjKNAJIUQjKNAJIUQjKNAJIUQjKNAJIUQjKNAJIUQjKNAJIUQjKNAJIUQjKNAJIUQjKNAJIUQjKNAJIUQjKNAJIUQjKNAJIUQjKNAJIUQjKNAJIUQjKNAJIUQjKNAJIUQjKNAJIUQjKNAJIUQjKNAJIUQjKNAJIUQjKNAJIUQjKNAJIUQjKNAJIUQjKNAJIUQjKNAJIUQjKNAJIUQjKNAJIUQj9KXYCMdxABjS84MQwgul2GRBUjoBKRNHNjiL+MinqtUBAEJwHlIqhsT4RfBGi3p1RH3gwCG9NAIxEVStDiakISbDkIS0asdGTIYhZVPI+CcAJqpSg0wIL4GJGSTufAlOb1CtjmxoEYxJSM3fVP3aZZkEwHGq1bAdlCTQAQ4cgGxgBtnwYmk2WYgkgmXTEKVVpDIJ9eoAwLJJMElEZuUuwKn4oCRmAY5DNjgPIepTrw4mQcokwGVTSM3fUqcGUQATMxAjK0ilourUcJ+UigFMQnrptqrnBxPSAJOQXZ2BEF5SrQ4wEUxI308SspGSBDpjDAyAtfUZGDwtpdhkQVI8iPjIZ9C7amFpO6JaHQCQHDsPIboCW/cL4C1lqtWR9Y0jPvIZLE37YazuUq0Olo4jPvIZeIsT1s7nValBCC8hPvIZTNVdMDftV6UGWXzkM7BMEraeF8AZ1HuCSy8OIzl+Eda2I+pfu6OfgTFJtRq2gxK10BkADjpbBQyuutJssgBBZwB0evAmu6p1AEDKZAOXMEDvrILOVqFaHVI8AAZAZ3Wpuk+kVASc3gjeaFWvDkkEx+vAm52qnx+80QqJSdCX1YA32lSrQwgtPD3XLl+iuNrGaFCUEEI0ggKdEEI0ggKdEEI0ggKdEEI0ggKdEEI0ggKdEEI0ggKdEEI0ggKdEEI0ggKdEEI0ggKdEEI0ggKdEEI0ggKdEEI0ggKdEEI0ggKdEEI0ggKdEEI0ggKdEEI0ggKdEEI0ggKdEEI0ggKdEEI0ggKdEEI0ggKdEEI0ggKdEEI0ggKdEEI0ggKdEEI0ggKdEEI0ggKdEEI0ggKdEEI0ggKdEEI0ggKdEEI0ggKdEEI0Ql+SrXAcwAFCdBmcwVySTRYiJUJgYhZSKoKMf1K1OgBASkXBhAyywTmIyYhqdQhRHzhwEGJ+VfcJyyQgCWlw6ZhqdYiRZTBJgJgIqn9+pGNg2SSyqzOqXjNibBUAgxBR/9qFmAXAqVbDdsAxxlixN/LZ51/g52/9P4DXA5yu2Jt7AAlMyILjeYA3qFgHACkLxhg4nUHdk5SJYGL2Xh2qHhsGJgoAx4HjS9POyC9BhJRNgdMZwOmM6tQglyKkACaBM1hUPT+YlAUTMuD1pnvXr3qVAGIWr778Z/je//0/KtbxdCvNEWIMjDGYqjqht1eWZJOFSOk40otD0FnLYfR2qFYHAKSX70BKRWCq6QVvtKpWhxBdRnphGAZPKwxlNarVwYQ0UgvD4I1mmKp7VKlBTIaQnh+E3lUHo6dVlRpkqYVbYEIG5rodqt5csqE5ZJbvwFjVCb3Dq1odUiaO9MIQGJNUq2E7KEmgMyYBDDBV98BUo87FCgBCdAUZ/wT0ZbWwdhxTrQ4AEFMRCJIAS/MB6GwVqtWRnh9Eav4WTN52mBv3qVaHlIogG5iBzuZW7dhkAzPILN+Fwd2k+vkhRFcgpWOwtD4D3mhTrY7k1BVklsdgqulV/9r1TQDF71DY1mhQlBBCNIICnRBCNIICnRBCNIICnRBCNIICnRBCNIICnRBCNIICnRBCNIICnRBCNIICnRBCNIICnRBCNIICnRBCNIICnRBCNIICnRBCNIICnRBCNIICnRBCNIICnRBCNIICnRBCNIICnRBCNIICnRBCNIICnRBCNIICnRBCNIICnRBCNIICnRBCNIICnRBCNIICnRBCNIICnRBCNIICnRBCNIICnRBCNIICnRBCNIICnRBCNIICnRBCNEJfio1wHA+O45CcvIT04nApNlkQy6YgpWPI+McR6f+NanUAgBBegpRNIjb0e3B6o2p1iMkwOF6P5Mx1ZPyTqtXBxCzERAhSOq7asZHScUiZBNKLwxDjq6rUIMsGZsBEAdEbvwOnK8llWpAYXwWYhOTERXWvXSENlokDvE61GraD0pwpHAcAYNk0JC5Wkk0WwsQswBiYKEBKq1fHV7VIkDIJcGJGvTqEtPK/qu4TSQSYBCapd2xYNnWvBjHzFJwfAsBEsEwcTMUQY8K9c1PKpgFe3WuXMUm17W8XJQl0JolgYLC0HIaxqrMUmyxIjPkRvflbGCqaYOt6QbU6ACB++w/Ihhdh7/s6dNZy1epIL91G9ObvYGncB1PdTtXqkNJRRG/+DjqLC/Ydr6hSQzY0h9iN38FU0wtr23Oq1CCL3vwdWCYO+67XwRutqtWRmh1AfORTWFufeQqu3d/du/GTDZXuWY4BnMEM3mQr2SbXkzJxgOPB8QZV6wAA6AzgOB680aJqLbzeBADg9EZ19wkT73XN6fSq1cEbLADHgdOpvC8AcDo9GK8Db7KCN6oXskh4AAAQ/UlEQVRXy73uQO4puXY51ba/XdCgKCGEaAQFOiGEaAQFOiGEaAQFOiGEaAQFOiGEaAQFOiGEaAQFOiGEaAQFOiGEaAQFOiGEaAQFOiGEaAQFOiGEaAQFOiGEaAQFOiGEaAQFOiGEaAQFOiGEaAQFOiGEaAQFOiGEaAQFOiGEaAQFOiGEaAQFOiGEaAQFOiGEaAQFOiGEaAQFOiGEaAQFOiGEaAQFOiGEaAQFOiGEaAQFOiGEaAQFOiGEaAQFOiGEaAQFOiGEaIS+FBvhOA7ggKx/EiybLMUmCxJTUTAhDSHmQ2qmX7U6AECMrULKppBeGAZvsqlWRza0AI7jkQ3MqlYDAEjZFKRMAgCn2rER4wEwMQMhvKj++REPgAlppOcGwemNqtWRDc4CYMj4J56Kaxccp1oN20FJAh0cD47jkZy6AsakkmyycB0cOF4PKRVFZmVMvToAcLwe4DjERj4FGFOvDo4HdAak5m4gqWKIcRwHTmeAmAghszqlWh0AQ3ppBOmlERVruFcHAERvfaRqFRzH3bvJTl5BEmqep/fOD47XqVbDdlCSQGdMAmMSLK3PQO+qLcUmC5KSESSnrkDvqISpfpdqdQBAanYAYjwIS8tB8Ca7anUIwTkkp67A3LgPhoom1epg2SSSU1fAG20wN+1XpQYx5kdy8k8weFpgqulVpQZZcvJPYEIalpbD4PQm1erI+iaQmrsBS+th6F11qtUhJSNITl8Bk0TVatgOStNCZwxggMHdCFNNT0k2WYgQXUFq7gZ0tgqY63aqVgcAZAMzYJkETFWd0NkqVKsjDSAx+ScYXLWq7hMpFUF6/hZ0VpdqdWQDM0jNXIfeUaX6+ZFZvgMpHYOppge8Ub0uOZZNAXM3YXA3PRXXrppPs9sBDYoSQohGUKATQohGUKATQohGUKATQohGUKATQohGUKATQohGUKATQohGUKATQohGUKATQohGUKATQohGUKATQohGUKATQohGUKATQohGUKATQohGUKATQohGUKATQohGUKATQohGUKATQohGUKATQohGUKATQohGUKATQohGUKATQohGUKATQohGUKATQohGUKATQohGUKATQohGUKATQohGUKATQohGUKATQohGUKATQohG6EuzGQ7gACkTh5gMl2aTBUipKMAkMDGjah0AwIQMGJPu1cSX6DAUIGWS4MBByiZVPjYxMEkCE7Oq1SGlY/fODyH1dJwfogApGQETBfXqyCYBPD3XLnmwkiQJx/PgOB7JyT8hNXujFJssTBIgpePI+MYhRH3q1QFASkXAxCxiQ5+oGugsmwKnNyA1cx3pxRHV6gATISYjkNJRRK69q04JQhpSJoH0wjCywXlVapCJMT8YkxC9+VuA06lWh5SOAWBITlxS/dplmQQ4Fa+V7aBEe4cBYODNDujMZaXZZAGSkIKUioI3WKC3e1SrAwCyYgZgEnQ2NzidUbU6xGQYYjIE3mSHzlquWh1MEiBlEuB0RtWOjZSOQUwEwRmtqp8fUjoGiFnobBWqhpjAAVIyDN7shM6i3rXLhPS9VjqYajVsByU5U5gkgUkMlqaDMNX0lGKTBQnRFUSuvQtDRTPsO15WrQ4AiA5+CCE4B1v3C9DZKlSrIz0/iIx/Aub6XTA37lOtDikVQeTau9DZ3HDs+ZYqNWQDMxAiyzBVd8PWdUKVGmSR/t9ASsdg3/EyeKNNtTqSU1cQCy7A0vx0XLtMElWrYTugQVFCCNEICnRC/n97d/rcxnnYcfy72MWxuEXwPmQdFCVHsp36ijTuTF9lpkmm/0Dzpu1/1j/AmWnGnek0M2mbuK5rubFjRTclUjzEAwSJ+9qrLyDTpI6YUgyCWvw+M9QLQFo8AMnvrBYPnkckJBR0EZGQUNBFREJCQRcRCQkFXUQkJBR0EZGQUNBFREJCQRcRCQkFXUQkJBR0EZGQUNBFREJCQRcRCQkFXUQkJBR0EZGQUNBFREJCQRcRCQkFXUQkJBR0EZGQUNBFREJCQRcRCQkFXUQkJBR0EZGQUNBFREJCQRcRCQkFXUQkJBR0EZGQUNBFREJCQRcRCQkFXUQkJBR0EZGQsI7jQUzTJBa1cDZu4lY2juMhn8vvNgm6TZzyGo07vx3YOADc8jp+p07r4ecYUXtg4/DqRQzDoLN5F69ZHtg4Aq+L364SeN2BfW/8dpXAbeOUlmjc8Qcyhm951U0Cz6F5/1MMMzqwcfR+X3066zdOxO/u/fuLfPzxxwMbx0liWRbxRIK3rlxhZmYGACMIgqDfD3z9+pf8y69/TafdwnXdfj/cCxmGgWGYBAQEvjewcQAYERPDMAh8j2P4FvyZcUQwImZvHP7gImYYRm8cAQT+YH5Gej8fBkEQDPR7cnAs/gC/J9+NI0IQ+AN9TTzPo1qr42JiWPGBjeMkiZoGqViEX/7y77n6k5/AcZ2hX7y4wD/94z/g+4P9oQDAMCCAJ38MdhwAg349+PY1OSHj4IS8JnKAMfDfl+1ikV99/Cv2zFHss1cHOpaTwi0tUV38HU63u3/bsQQ9m82SzWaP46FEJIRs2yYejxExM0RH5gY9nBPBb5VxXPfQ/+L0pqiISEgo6CIiIaGgi4iEhIIuIhISCrqISEgo6CIiIaGgi4iEhIIuIhISCrqISEgo6CIiIaGgi4iExLGs5SIi8rrrrcLpw4HVOHvryRm9VUsN48lCZoOjoIuIfI/A93A6LTqNKk6nhe86ABimiRVLkEjnicZtIuZgk6qgi4g8JfB92vUyzcoOjXKRdr1Mp16h06zidtt4T/Z1iJgmphUjnsqSSOdJZPKkcmMkcwXsbAEjcrxXtRV0EZEDgiDAc7vsbSzx+M6XrN78nL31BzTKRXzPeeG/S+XHODVzntk3P2T60gdMLWQxreixRl1BFxHZv6zSZOvhn1i7+Tml1XtUi+s0yzt0WrXv3eWs06yxu7ZIu7bH9tJNHn3ze954+68ZO3OZeDJzLGFX0EVk6HmuQ7teprh8i5VvPuXRH39HrbSJ024c+Rhut43bbdOs7FDZXqW0ehffdfA9l4lzbxNLpvt+jV1BF5Gh57Tq7K7e4+t/+2eKS7do18t/0b7DTqdFdWeDu599Qm13k0Q6T37qLPFk5gcd99MUdBEZWoHv47kO63eu8+D6b9hdvU+7UcH3Dm9UbkRMYnaazMgE8XQOK2YT+B6dZo12bY9GuYjbbR84cEAQeHTqFUor97j72b8y/+FPmb74fl+fj4IuIkPLddrUS5us377O8tf/RadRPRRz04pixW1S+TGyY7OMzM6Tyo8Rs9P4nkerWqJW2mB37T7VnQ1a1RKB7+3PU/fcLvXSBstf/Qe5iTlGT18iGrcxImZfno+CLiJDq1Xd5eEffsvWwz/1Yv7UZZZ4Ok9hZp4LV3/G5IUfY2dGiOzPXAnwPQ+n3aS8uczyV//J3c8+wWnV8dzvZsO43TbV4jq7q/fYXV+kMHuBaCLVl+ejoIvIUPKcLo3dLdZvf0Fl69GhM3MjEsHOnGJy/h3mP/xbJs6/RXZsBisa//bjoft8zyNmpwl8nyAIWPnm91S2VvbP0oPAx3M6lDcfsb10i+zYrIIuIvJD6rZqVHceU1y6SbNcPHRfxIySnzzD3OVrXPzo7w58tP9ZEdMkmSswtfAuydwo1eIa9d0tPKdDxLR6X1YUp92ktvMYz+n27Tkp6CIylMqbK5RW7+F2O/tn09+yYnHmrnzE1MX3iEQiz5yVP0/MTpEdm6Ewd4HazmMq26ukT02QGZ0mOzbDqelzjM4tELPTfXtOCrqIDKXazjp7G0t47uEzZjMax86OUJi7QG587kgxB4iYFrFkhpmLHxC3MzQrJexcgVR+lGR+jGRulGR2FCue6NMzUtBFZEjVd7eobq8+M0UxZqfIFKbIFKZIpHMvdUzTtJi9co3Zy1cxo/E/e6mmHxR0ERlKrdoujb1tAu/wzJZEOkdu4jRW3H75gxoGZjQGAccecxR0ERlW3VaDTrPaW+P8gGg8RTI/1gvzK4j0aY75USjoIjKUfLeL2+08c7sZjRJPpAca5lelLehEZCgFL7jdtOLHspBWPyjoIiIHRExz/w3N183rN2IRkT4K6O0d+vTc9NeBgi4icoDvuridFoHvH+FvnywKuogMpRdNKPTdLk67QeC7L/gbJ5eCLiLDyTCee53cdR06rQa+9+obXAzK6/c2rojIDyCWSBFPZug0a4curzitOo29LVzn2SmN3yfwfSrbq9T3NmlVd7EzIyRzBexsgVgi9cpz249KQReRoZRI57FzBZx2E+9A0DuNKtXtNZx2kyDwMYyjX8jwPZftpRus3fqCnUe3KcwuMPrGJUbfeJPMyCR2dgQrlujbDBoFXUSGUurUBNmxOeo7G4c2pOi26tR2HtMoF+k268RT2SMfMwh8yhvLFJdvUd5Ypr67zebi18TsNLnx04yfu8KFaz8nlR/ry3NS0EVkKGXGpjk1eYbN+19Bp7V/u+c6tBsVdh7dITs6zcT5t490PKfdpL63xd7GMtXtVdqNCu16mdqT+zvNKolMDu8VLuUcld4UFZGhlBufY2R2HtOKPnOf2+2wfut/2Vr845GP16rtUly6SfnxEs1KCZ6axx5NpEikT/X1E6g6QxeRoWRnRshPnqEwt0AQ3KNVLe3f53sOexsPWbnx38SSGaYW3iM7Pvvc1RN916G+t83Kjc+49z+fUCmuPffxchOnmZh/p2/bz6Ggi8iwiiaSZMdmmHnzQ5x2k3Z9j8APep8V9X2alRLbSzcBcNotRt+4RCKdw4rGMUyLIPBxOy3a9TKltfusfPMpj+/8H77nHHoc04oRT+cYmT7PyMw8VkwbXIiI/OCS+VEuXPs5jXKRnZW7eE730Ef+63vbtGp7lNYWyU+dZeLcFdKnJojaKTy3S7W4xu7aIsVHt2nsbfd2P3rqUks8lWFy/h0KcwukT4291KyZl6Wgi8jQMqNx0iOTzF2+SrdZY/Xm57Sqpf156YHv4XY96rubOJ0mzXKRmJ3CtKL4vk+nWaVd26NZKfXe7Hwq5jE7TX7qHOc/+CmF2QsYfV6SV0EXkaEViZjEEikm53+MYUToNGrsrNyhWdkh8L39s3W328bttmnsbR/5uBErRn7qLNML7zJ3+RrJPk1VPEhBF5Ghl8yPMbXwLlbM5sGXv+HB9X+n26wdmp/+MqxEkszIJBev/YIzf/U32NnCsayvrqCLyNAzrSh2doTxsz8CA5LZEUpri5Q3l6kV13GdzjObST9zjGicmJ0mOz7LyMw842d+xPSl98mOz2FGY8eyv6iCLiICREyLZH6M0299xMT5t1m//QXrt6+zce8PtOvl3lIABy7DQG/JRsOIYERMEqkc6cIkM5c+YPrS+0wtvEvEtI51o2gFXUTkACNiErfTTF98j5GZeRau/YJmpUizUqJV3cVzuvhPltY1rRjRuI2dK5DM9hbhSqRzxFPZY485CrqIyGGGYWBYUZK5UZK5UXjysf1Oo/fluQ6B31taN2JaWLEEiXSOmJ0hmkgOdOwKuojI94gns8STWej/RJW/iNZyEREJCQVdRCQkFHQRkZBQ0EVEQkJBFxEJCQVdRCQkFHQRkZBQ0EVEQkJBFxEJCQVdRCQkFHQRkZBQ0EVEQkKLc4nIiWcYBqZlETR3aa/fGPRwTgSvvEbUsohEvjsvV9BF5MQzjAjxeAJ/7QHVjbuDHs6JELUsEraNeWBrOyMIntqmWkTkhGk2m9y/v0itVsXzvEEP50SIRCKYpsX8/HnGx8dBQRcRCQ+9KSoiEhIKuohISPw/HmXH4HkTmr8AAAAASUVORK5CYII=;" vertex="1" parent="1">
          <mxGeometry x="2650" y="351" width="382.28" height="409" as="geometry" />
        </mxCell>
        <mxCell id="EplgCJx75FvECkNWApzD-9" value="" style="shape=image;verticalLabelPosition=bottom;labelBackgroundColor=default;verticalAlign=top;aspect=fixed;imageAspect=0;image=data:image/png,iVBORw0KGgoAAAANSUhEUgAAAYwAAAGOCAYAAACE8TRBAAAACXBIWXMAAA7EAAAOxAGVKw4bAAAALnRFWHRDcmVhdGlvbiBUaW1lAFR1ZSAyNSBKdW4gMjAyNCAwNjozNzo0NyBQTSBDRVNUlXHUxAAAABl0RVh0U29mdHdhcmUAZ25vbWUtc2NyZWVuc2hvdO8Dvz4AACAASURBVHic7N3Xc1z3nef99zmdEzqhkXMgCQIMYpBIUcGWR9Z4tJ7xrse73tl6qnZqb57/4bndy73Zi72YXDVVs1WzWo9LpqRRGIsSaVCiGEUCJAAi59Dd6Jz7nOeCQtswCLApEX1I+vuqQtHTYM/5otXsD84vfH+Krus6QgghxCOoRhcghBDi2SCBIYQQoioSGEIIIaoigSGEEKIqEhhCCCGqIoEhhBCiKhIYQgghqiKBIYQQoioSGEIIIaoigSGEEKIqEhhCCCGqIoEhhBCiKhIYQgghqiKBIYQQoioSGEIIIaoigSGEEKIqEhhCCCGqIoEhhBCiKhIYQgghqiKBIYQQoioSGEIIIaoigSGEEKIqEhhCCCGqIoEhhBCiKhIYQgghqiKBIYQQoioSGEIIIaoigSGEEKIqEhhCCCGqIoEhhBCiKhIYQgghqiKBIYQQoioSGEIIIaoigSGEEKIqEhhCCCGqIoEhhBCiKhIYQgghqiKBIYQQoioSGEIIIaoigSGEEKIqEhhCCCGqIoEhhBCiKhIYQgghqiKBIYQQoioSGEIIIaoigSGEEKIqEhhCCCGqYja6gG9L0zRyuRwrKytMT0+Ty+UolUqG1aOqKk6nk/b2drq7u7FYLKiq5LEQ4vnxTAZGqVQikUjw9ddfMzIywtjYGNlslmKxaFhNJpMJt9tNb28vR44c4ejRo9TX10toCCGeG89kYGQyGSYnJ/kf/+N/cPXqVbLZLLquo+u6YTUpioKiKLjdbrq7u/nv//2/c+7cOWw2m2E1CSHEk/RMBsbKygq3bt1ifn6eSCSCpmlGl4TNZqO1tRWv14vT6WR4eJj5+XlMJlPNa9m6q3laQvRpqYNvhjKNrMHo14LfeX8Y/e/maXlNTCYTDoeDAwcOMDg4aFgdz4JnMjAikQhTU1OkUinD3/RbrFYr7e3tNLR2YffWc38lzv2VuDHF5JPo5SKK3Qtq7QOrophDzyVQ7B6wOIyrQ9MgF3/wWtjrjKmhXETPxVEsDrC6jKlhSy4BuvbgtVAMHDItZtHzyQfvU7Nxd+ImRcdlKqMoigTGIzyTgVEulykWi4b/pva7VFXFZrPhajuMq/81Q2vJ3P+cUmIN9+Efojp8htVRWL9P+u7HuDpOYW0eMKwOPZ8idfdjTA4vzkM/MKSGUnyF9N2PsTYdxt512pAatqTvfYxeyOI6/MMHAWaQ/PIImfuXcPecwVLfa1gdWiZKeuzfyGazhtXwrHgmA2PrFvb3A8Nsc+Bw+3B4/Fjs+/9bXLmYJ5vcJJvahG9Cw2R1YfaE9v3ae1EsDhTVjMkVwOQKGlZHObGKDqh2t6GviWaxoZgsKBa7YXXoxSwoKorVafz7w2xHL5cwuYOoBt7tFG1uQEG1ew19TUrolHXlqRmteJo9k4GxG6vdhb+lh/qOQ7iDTft+vXwqTnh+jPD8OOQT+349IYQw0vMVGI4HgdE+dIZg+4F9v14qsgropDbXyUlgCCGec89VYKgmCzanB6evAU99675fT9d1bC4vJot1368lhBBGk11lQgghqiKBIYQQoioSGEIIIaoigSGEEKIqEhhCCCGqIoEhhBCiKhIYQgghqvLU78MoFAokk8lt510sLi6ysbFh6PkXQgjxh8bQwNB1nXK5TD6fp1AoUCgUKJfLlEqlylcqlWJ9fZ1EIlFpDjYyMsLc3Jw0CxNCiBoyNDAKhQKJRILZ2Vnm5uZYWFggGo0SDocJh8NEIhGSyST5fJ5SqVRpDpZOp0kmk6TTaSPLF0KIPyg1CQxd10mn05UQiEajRKNRIpEI4XCYtbU11tfXCYfDJJNJEokE8XicVCpFLpeTLpJCCPEU2LfA2BpaKhaL5PN5VlZWuHv3Lvfu3WN8fJyJiQnm5+fZ2NjYrxKEEEI8QfsSGMVikbW1Ne7fv8/o6Cj37t1jdnaW9fV1kskkqVSKdDpNJpPZj8sLIYTYB08sMAqFAtFolMXFRebm5pifn2dycpLx8XEmJydZX1//VpPUZrMZh8OB1WrFbH5QbrlcplAokMlkKJVKT+pHEEIIsYcnFhiZTIa7d+/yq1/9ivfff5/l5WWy2ex3PkbVZrPR1NSEz+fD5XpwOlg2myUej7OwsCCBIYQQNfKdAiOZTDI3N8f169e5efMmExMTzMzMsLa2RqFQeGRYmEwm7HY7zc3NlS+fz4ff78fr9eL3+6mrq8Plcm27wxgdHeWLL75gc3NTVkoJIUSNPHZg6LqOpmksLCwwMTHBzZs3GR4e5ubNm6yvr1MoFB76PFVVsVgseL1evF4vHo+Huro6AoEA7e3ttLe309bWRjAYJBAIEAgECAaDuFwuVHX7hnSbzcbc3Bw2m+3b/+RCCCEey2MHxtZGuw8++IDz589z/fp1UqkUhUJhz+WvVqsVv9/PCy+8wPHjxxkcHKSvr4+2tjbsdjsWiwWTyYSqqju+hBBCGK/qwNA0jVgsxsjICBcuXGB4eJjR0VGi0SjlcnnH31dVtXL30NfXR09PD11dXbS0tNDU1EQoFMLv9+PxeFBVFUVRnvTPJoQQ4gmqKjCKxSLpdJo7d+7w4Ycf8k//9E9EIpEdy2IVRcHhcOB2uwkEAvT29nL06FFOnjzJ4OAgvb29mM1mCQchhHgGVRUYiUSCiYkJ/vZv/5ZLly6xtra2Y3WSoiioqkpHRwenT5/mjTfe4PDhw7S2tuJ0OnE4HBIWQgjxDNszMHRdp1gsMjIywrvvvsvVq1dZWlraERYej4fm5mZOnDjBsWPHOHLkCAMDAzQ2NlaWwgohhHi27RkYpVKJjY0Nrly5wj//8z8TjUa3hYXZbMZut9Pd3c3p06f5L//lvzA4OEhDQ0MtahdCCFFDewZGLBbj3Xff5cKFC0QikR3nT9TX1/Piiy/y1ltvce7cOdra2vB4PPtdsxBCCAPsGhjlcplYLMbly5cZGRkhn89v+35bWxsnT57kJz/5CS+99BL9/f2YTCZD5yiKuTSx1TmWx66S3lzb9+tl4hEii5PkU3E0TSOVSpHNZnCWSyiqsa+FEEI8absGRj6fJxqNMjo6yuLiYuVxRVFQFIXjx4/z4x//mJ/97GeGzFM8bBd5NhVjZeImsZVZLHbnvtdQLubJJmNkU5uY9BKRSIS6aARPJoXF4cJktux7DUIIUSu7BkY4HGZ6eppcLrftcZfLRX19PW+++Sbf//73DdltXSwWH3pORrlYIJvapJBLoZr2/6gPXdMolwqUiwXK6CwtLZH8zQcsLi0x9P2fEew4WJM6hBCiFnb9NItEIszPz+8YivJ4PPT39zM4OEhPT08tatwhm82yubm5Y7WWrpUp5bOU8rU/utVsNmO1WlHyCQqrY+RX7pG3lFFNtb/LKKejaMUchfUpVPt6za+/pRhbAl2nGF9BWblnWB1aIYNWyICikjeojnJqA71cpJzaMKyGSi3ZOHoxR2FtAsVsN6yOUnwV0ChuLhhWA4CWjaOX8lX8TbFrYMTjcZaXl3cEhs/nY2hoCK/XW4v6HiqZTLK2trajNiPZHQ4OHTpEsL4em9WGKTxCKnoXqP08hq6XQYfU6IeGXP+3HtwB5mavkZu7YWAd+oMhzFSEYtSoDycNvVwmtzxKfmXMoBoe0LUHv2glvz5v7PtD19D1MtnpL8hyxbg60B98KdKG6FF2DQyXy0UgEMBi2f4bciqVYmZmhlQqVYv6HsrpdOL3+3fUZiRVUbDb7XjaDuNsO2JoLfmlEcqZTewdJ1Btxu2DKcWWyc7fwNZ6BEug3bA69GKO7MJNVKsTe9sxQ2oop6Pk5m9gCXRgbTxgSA1bcvM30EsF7B0nUMxWw+ooRubIL49ibz+B2dtkWB1aLklu4SbochT0o+waGD6fj5aWFqzW7W+orV3f8/PzRCIR/H5/zRsEOhyOhwaGajJjtjmwWO2oNZhw1rUyxXyOUiGLoiiYzWZsvhYcXaf3/dp7KSXX0csF7G1HMLmChtWRX7pDduEm1vou7B0nDKtDyyUorN/H5AoY9t+mGJ0nvzyK2ddq+PujGJ1Hy6ewdxxHtRq7sTa/cg9rQx+25gHDaigl18mvGnvX96zYNTBCoRA9PT3Y7dvHOJPJJFNTU1y+fJnGxkZef/31HX9nv9lsNjweDyaTadvjVocbX1MnvsZOHN79/6AsZFPEVueIr86BlqviGUII8ezaNTCcTieNjY10dnayvLxMJBKBb7rW5vN5hoeHUVUVk8nE4OAgzc3NNSt6q2/V77M6XPibu2kdeBFfc/e+15GJbWC22sin4xTjq/t+PSGEMNKugWG1WgkEAhw7dozV1VVisRiaplX2P4yMjJDJZLDZbOTzeU6ePInP58NqtRp2hoXZ6sBT30Koe5CG7sF9v15iY5FUdJWNuTEJDCHEc2/PTQI+n4+f/vSn5PN57t+/Tzqd3raUdXl5mXfeeYeJiQleeeUV/sN/+A+0t7fjdO7/pjkhhBC1tWdg2O12+vr6OHfuHHNzc1y+fJnl5eXKXUYul6t0r43H4yQSCY4ePcrBgwfp7OzE6/VWzuEWQgjxbNvz01xVVTweDydPnkRRFKLRKPF4nEwmg67rleBYW1tjY2ODGzducPr06cou8N7eXjweDxaLBbPZLMetCiHEM6yqX//r6+s5efIk//W//leam5s5f/48mUxmW/daXdcpFAqMjo4SDoe5ePEiAwMDHD9+nKNHj9LV1UUgEJCGfEII8YyqKjAcDgfNzc28+uqrlUntW7duMTMzQzqdrkyGl8tlIpEI0WiU6elpZmZmmJmZYWxsjN7eXtrb22loaCAYDOLz+XA6nTv2eQghhHg6VT3BYDKZ6OzspL6+nrNnz/I//+f/5Fe/+hUzMzM7mgDquk4ul2NycpLJyUnee+89AoEAfX19nD17lhdffJEjR47Q2toqgSGEEM+Ix56RttlsBINBfv7zn3Po0CG++uorrl+/zsTEBJlMZkd48E2ApFIppqamiMfjXLt2DZ/PRygUorGxkba2NlpaWmhubsbn81W+LBbLjs15QgghjPHYgWE2mzGbzZw4cYK2tjba29tpbm7mxo0bzM/Ps7q6SjQapVwubzuzIp/Pk8/nCYfDlcfcbjfBYJDOzk46Oztpa2sjEAgQCAQIBoO4XC7sdntlGGxr/mNiYoKNjY0dJwAKIYTYP996zauqqoRCIV5//XVOnTrF0tISn332GR999BGXLl0im83uaD/++9LpNLlcjtXVVa5fv47JZEJV1cpXMBgkGAzi9/ux2+2VJbqRSISlpSUSicS3LV8IIcRj+k6bJEwmEyaTCavVWrkL6Ojo4Hvf+x6zs7PMzMwwOzvL8vIyyWTyoXMdpVKJUqn00Fbl6XSajY2NSlhsLcvN5/Nks9mnqr25EEI8757Irrqt/RpDQ0MMDAyQTqe5d+8ed+7c4fbt29y7d4+FhQWi0Wjlg75UKj30mNXflc1myWZrfxiSEEKInZ74NmxVVXG5XAwNDdHb28ubb75JOBxmZGSETz75hPHxcRYWFtjc3KRYLD4yNIQQQjwdnnhgbE1M53I51tbWWFhYYGpqirt37zI9PU0kEiGbzT50NZUQQoin1xMLDE3TKBQKZLNZEokEMzMz3Llzh6+++oqbN28yNzdHOp1+7DuKrVbmiqJUwkjX9cpmQblDEUKI2nhigZHJZJiYmGB4eJjh4WGWlpYIh8PE43GSySTZbPZbfbhbLBbq6uqw2WyVPRmFQoFcLkcqlXrkSiwhhBBPxncKjFwuRyQSYXZ2lsnJSUZHR7lx4wa3b98mHo9TKBT2fL6qqlgsFrxeLz6fD6/Xi9Pp3PblcrkqDQy3AmNhYYHx8XHu3r1LPB7/Lj+CEEKIKn3rwCiVSkQiEW7dusX58+f59NNPmZ+f33Op69bw0tYQk9Vqpa6ujv7+fg4ePEh/fz/Nzc00NzfT1NREU1MTXq93x27vixcv8stf/pKlpSUJDCGEqJHHDoxyuUyxWOTjjz/m4sWL3Lhxg7m5OdbX1/fceW21WnG73fT399Pb21vZ2d3U1FS5u3C73djtdhwOB3a7HbvdLi3RhRDiKVF1YOi6TjabZWlpibGxMX71q18xPDzM5OTkQ+cRFEXB6XTi9/upr6+nsbGRlpYWDh48SF9fH52dnbS2tlJfX4/ZbJa250II8ZSrOjA0TSMcDnPhwgX+1//6XywuLlbO+X4YVVVpbGzkxIkTvPrqq5w6dYrDhw9js9kqu7a3hqiEEEI8/aoKjEQiwdLSEu+88w4XLlxgbm7uoZ1pVVWltbWV/v5+jh8/zqFDh+jp6aGlpYVQKITH49nWRFAIIcSzY8/A2NrvsLi4yMWLFzl//jy3b9/esfrJarXi8XhoaWnh6NGjvPjii7zyyit0d3fj9/v3+2cQQghRA48MjFwux1dffcVf//VfMzMz89CJbb/fz7Fjx/jP//k/c/z4cTo6OnA6nVgslv2sXQghRA3tGRjJZJJLly7x+eefMzU1RSaT2bb5zufz0d/fz9mzZzl79iynTp2iqakJt9tdi9qFEELU0K6Boes6sViMjz76iC+//HLH2RMul4uenh7++I//mB/96EecOnXK8NVOWrlEIZsiE9sgGV7e9+ulN9fJpxOUiwV0XadYLFIqP+jCK/M0Qojnza6BUSgU2Nzc5M6dO8zPz+/4/tGjR/nhD3/Iz3/+c1paWgwPC4BsMsry+HVS0TUcdYF9v14hmyaxvkAqsoJeKhGNRqmLx3AXC5jMFhRZASaEeI7sGhjxeJzFxUXC4TCZTKbyuM1mo66ujldffZU333yT7u5ubDZbreqFbzYPFgqFHb2pSvksifVFsokoJot13+vQyiWKuSzFfBpF11hZWaF0+wrJkpX2oZfx1DejqHImuRDi+bBrYGxsbDA9PU0ul9v2uNvtpquri+9973ucO3euFjXuUCgUSKfTlMvlbY+XS0XKpTi5dO3bhSiKQiQSIZH6DesLU3h8QRwud02Ca4dyCV3X0Io5lEKmiifsD630YDWdXi6gGVlHIYeua+jlkmF16MUc6Dp6uWjoawGgayXQNPRCFg3jRgX0chHQ0Ut5Q1+Trf824tH2vMNYWVnZsYTW5/MxODiI1+utRX0PlUwmWVtbe2Rzw1qyOxz09fXj9flwOJxYwiOkcosoau3/QZZTEfRSntTohygm41aqafk0iqKQnbtBfm3CsDoolymnImjZBIkb/9eQEvRCDq2QJr8ySimxYkgNW0rxNdDKJG+fBwPvgLVsAl3XyEx/QW7ptmF16KUiWj4JigwhP8pj95La2pthJKPnSh7GYjYTCoVo7DyIPdhuaC2aGkdXiqhmO4q5tsOFv0svFUEHxWRBtTiNq0MtgqqCajKsDk3XQVFRVGNfCwBFNaGjo1gcKOoTP0OtanrhwfHLislq7PtDyRl6p/Us2fXd4vF4aGho2LGXIpFIMDExsWPVVC25XC5CodBTtc9DURSsFjPOlgHcQ28ZWkvyzgeUNhdxD/4xJvf+T/7vJrc0QmJzAUfnSewdLxhWh5ZNkrjxf1Gdfupe+IkhNRSj8ySu/wJbyyCug68bUsOWxI1foOXTeI7+GNVm3Ad1dvYapZEPcfaexdY8YFgdpcTGgztPXU4BfZRdAyMUCtHT04Pdbt/2eDKZZHJyksuXLxMKhThy5AhWa23H6W02G263G7N5e/lWhwuXvxG3vwGbs27f6ygWsqQ310ltrgO/+2Z7Sn5bUTC0FmWP/6umvrn0gztTo+pQdvnfRlB+5w+ja9mqwfj3h3i0XQPD6/VWusk6nc7KSql8Pk8+n+fy5ct4PB5cLhetra14PJ6aFW0ymbDZbDuGpqx2N/6WHhp7hqgLte17HdnkJutTdygXC2iZ6L5fTwghjLRrYNjtdurr6+nr62NhYYGZmZlt3x8eHiYej2M2m/mjP/ojjhw5Uot692RxuAi09NA2eJZQ1+F9v14yvES5WCC+sUhGAkMI8ZzbNTAURcHn8/HjH/+YQqHA2toa+Xy+spQ1l8sxPT3NL37xCxYXFyvtQerr62u+L+O3NauoJjNmqx2LzbHv1zNb7bJBTwjxB2PPJRJut5vXXnuNjY0NRkZGmJmZ2XYkajQaZXh4mKWlJebn5ymVSgwMDNDc3ExdXR1Wq1XOuxBCiOfEnoFhMpmoq6vjzJkzZLNZ/v7v/547d+7sWFa7srLChQsXuHv3Li+++GJlU19bW9uOSXMhhBDPpj0DQ1EUzGYz7e3tvP7660SjUbxeL9euXds2PJXP5ykUCiQSCfL5PBsbG4yOjnLgwAH6+vro6OggFArhdrufyj0UQgghHq2qXTs+nw+Xy4XZbKauro5oNMrq6iqxWKxynvdWt9apqSlmZmb47LPPOHjwIGfOnOHs2bMMDAzQ2tqK3W7HarVisVgwmUwyZCWEEM+Iqrd5ms1mOjs7efvtt+nt7eWf//mfuXTpEisrKzt6OmmaRi6XY3Jyko2NDS5dukRzczPd3d0MDQ1Vjm7dOrZVCCHE06/qwFAUBbfbTXd3Nw0NDRQKBRoaGvj666+ZmZmp9Hbamt8ol8skEgkSiQQLCwtMT09z//59Jicn6e7uprW1lcbGRkKhEIFAAJ/Ph9frxel0Vr7kDkQIIZ4ej91Ixmq1YrVa+elPf8qLL77IZ599xvvvv8/w8DCbm5sUCoUddxwA6XSamZmZbfs5fD4fzc3NHD58mIGBAfr7+2lqaqK5uZmmpiYcDse2cza2/iyVSg+9hhBCiP3zrTuPKYpCfX09r7/+Or29vfzJn/wJ165d4+rVq4yMjGybFN9NOp1maWmJZDLJvXv3cLvd2O12HA4Hdru9ctfhdruxWq2YTA86a87Pz3Pv3j1D+1kJIcQfmu8UGC6XC5fLRXt7O4cOHaK9vZ3W1lY6OztZW1sjHA4/OCMikSCXy+048KhYLFIsFnf94K+rq8Pj8eDxeLYFRiaTIR6Pk81mv235QgghHtMT6W1sMpkIBoO89tprvPTSS8RiMW7dusVXX33FlStXGBkZYW1t7bGHkZLJJKlUitXV1R3fexrarAshxB+SJ9YMX1GUylJZi8XC8ePHaWlp4cyZMywuLjI+Ps7NmzdZXFxkY2ODVCpFuVzecdfxu3Rd3/P7QgghaueJn56iqipWq5VgMFg5/9vj8VAqlZifn2dzc5NYLCYb+IQQ4hmzL8dtFYtFVlZWuHPnDlevXuX69etMTk6yvr5OoVCgWCyiaZrcPQghxDPkiQVGLpdjeXmZsbEx7t69y/z8PAsLCywsLLC4uEgsFiOfzz9+gWYzTqcTs9lcmfQulUoUCgVyuZwsrxVCiBr5ToFRLpfJ5/Mkk0nW1ta4desWv/71r/nss89YX18nl8vt+XxFUSpDWFtfW8FgNpsxm804HA58Ph92u71ywl4sFmN9fZ3l5WVZKSWEEDXynQIjmUwyPj7O559/zhdffMHU1BTr6+vEYjGKxeIjn6+qKi6Xi46ODrq6uujs7CQUClFfX08wGCQUClFXV4fFYkFV1cq8x40bN/j1r3/Nv/3bv0lgCCFEjTx2YGiaRrlc5s6dO3z99dfcuHGDW7duMTExQTQarTQj3HEhsxm73U5jYyONjY3bQqGpqYnGxkYaGhrwer3U1dVRV1eH1+vFbrfvaA+yublJMBjEYrF8+59cCCHEY3mswNA0rbJp7v333+e9997j1q1bFAqFh/793x1a8ng8BINBTp48yfHjxxkcHKSvr4+2tjYsFousmhJCiKdc1YGhaRobGxtcuXKFX/7yl5Wmg7vdUaiqSmNjI/39/Rw9epRDhw7R19dHMBjE5/Ph8Xhwu93bekUJIYR4elUVGLlcjmg0ysWLF/nkk0/48MMPicViOya1t84Bb2xspL29nf7+fgYGBjh8+DA9PT20tbVhMpkkIIQQ4hlUVWDE43HGxsb427/9Wy5fvvzQieatFU+dnZ289tpr/Omf/ilDQ0M0NDRUvi+EEOLZtWdgaJpGoVDg6tWr/NM//RP3799/6HyF3++np6eH73//+xw7doyDBw/S3t6O1+uVoBBCiOfEnoGRz+eZmJjg8uXL/PrXvyaRSGzbKGe326mvr2dwcJCXXnqJt99+m76+PgKBQC1qF0IIUUN7BkYsFuPdd9/lwoULRKPRHd1h6+vreeONN/jJT37CK6+8UtkzIYQQ4vmza2AUi0VisRg3b95kampqRwuOQ4cO8fLLL/PTn/6UoaEhAoHAts11Rsin46xPj6BpZVbv39z36+VSMTZmx0hvrlMul4nFYniTCRylIqpJVn8JIZ4vuwZGJpNhbW2N6elpNjY2Ko+bTCasViunT5/mT/7kT/j+97+Pw+GoVb3wTdvzh/WQyqcTbMyNkQgvY7HZ972OcqlILp0gn06g6iXW19exLcygNo7jbezA6vRIaAghnhu7BkY4HGZ6enrH0lmXy0VLSwtvvvkmb7zxBjabrRZ1blMsFslmsztCo1wqkk1uks/EURR11+c/Kbquo2tlNK0Mus7S0hLR1AfMz9zn1J/9vzT2HcNkliE6IcTzYdfA2NzcZHFxcUeHWa/XWzmO1e/316LGHdLpNJFIZEe/Kl3X0MsamgENbK1WK41NTbjcHpy2Evr6KFmSqN902K2lUnwFLZ8mO3sV1eqs+fUrdSTWUFDIr91Hy6cMq0Mr5innEujlIpn7Fw2poZyJoRVzFCNzhtWwpZRYQy8XyU59gWK2GlZHcXMJXdfIr9ylnNqo4hn7Q8un0YtZkNGAR9o1MNLpNJubmzt2cjudTtrb23G5XLWo76Gy2SyxWGzXXeZGsNnt9PT2EmpswepwQ26D3LxB/whKBXRdI7d4G2pwp7UrrQSKQjEyQ3Fzwbg6dB29lEfPp8nMfGVMDVoZvVSgGFukZOCHI4BeyIKuk52/aeiHpF4ugq5RWLtPITxjWB3oGpQLMnxcZF+lhwAAIABJREFUhV0Dw+PxEAqFdqx6SiQSjI+Pk0gkalHfQ7ndburr65+qFVmKomA1m3G2HMLVc8bQWjLTX1JObuA88DomR51hdRTCM2QmPsfecRJbY79hdWj5NOn7FzHZPDj7XzGkhlJijfTE51gbDuDoOG5IDVvSE5+jF3M4D7yOatn/ub7d5FfHyM58haP3LNZgp2F1lDObZCYuov/eKlCx066BEQgE6Ojo2DFHkUwmmZyc5N69e/T29tLW1lY5p6JW7HY7Xq93x3XNFhs2Vx02Vx1ma20mvfPpBPlMAuWb/llmhw9LsGvfr70XdXkULRvH4m/F5AoaVoeWS6IDZnfQ0NdEyyVQzTZUu9u4OhQVRTVjcj4F7w/bdTTAEmhHtRo3UlBKbgAKZk+Doa+JYnWC6en55fNptusnfX19Pd3d3TidThRFqRynmkqlSKVSDA8P09jYSDAYxOVy7WhBvp+sVitut7tyAt8Wi8OFv6WHYFsfLn/jvteRTyeILN4nujQJBePG6IUQohZ2DQy73U4wGKS3t5eVlRVWV1e3ff/y5cuUSiV0Xef06dN0d3fXot49WR1u/C09tA2eJdDat+/XS22uoagqmXiYfFQCQwjxfNs1MMxmM4FAgHPnzrG5uVk5HGlrt/f8/DzlchmbzUY8HufFF1+kq6sLl8tV8yGqLSazFYfHT11DO4G2/Q8Ms81OZH4cs83B459WLoQQz5Y9P9l9Ph9//ud/Tjqd5ubNmySTyW3tQVZWVnjnnXcYHR1ldHSUv/zLv6S3txe3212L2oUQQtTQnoFhNpsJBoOcOXOGv/iLv+Bf//VfmZmZqYTGVjfb2dlZSqUHO51PnDjBCy+8wOHDhwkGg1itxq3zFkII8eTsGRiqquJwOBgcHERRFKLRKOVymaWlJcrlciU4YrEYiUSCyclJ7t+/z/z8PGtra/T19VXO6Xa5XBIeQgjxDKtqsqG+vp4TJ06gaRoNDQ384z/+I6lUatvZGJqmkc/nGR0dZXZ2lo8++ojDhw9z9uxZzpw5w4EDB2hsbJTNMUII8YyqKjDMZjMej4ehoSEURaGuro7PP/+ckZERNjc3K3cauq6TzWbJ5XIkEgnS6TQbGxvcunWLzs5OOjs76ejooK2tjcbGRurq6mreuFAIIcS3U/VyJpPJRFNTE16vl8HBQZxOJyaTifHxceLxONlsFk3THjTk03UKhQJLS0ssLS0xPDyM1+uls7OT48ePc/ToUQ4cOEBLS0tlnsNms2G1WjGZTJjNZszmB+3B5Y5ECCGeDo+9/tVmsxEIBPj5z3/O8ePHGR4e5vPPP+frr78mlUo9tO043/SmmpqaYm1tjd/85jc4nU4CgQDNzc309PTQ3d1NZ2cn9fX1lS+bzbZjc54QQghjPHZgqKqK1Wqlo6MDj8eD1+ulra2NY8eOMT4+ztTUFAsLC9v2bACUSiVKpRLpdLrymMPhwOv1MjExQVNTEw0NDdTV1VFXV4fX68Xj8eByubDb7ZjN5spu8rt37zIzM0M2m31Sr4MQQohH+NY77BRFIRAIcObMGU6dOsXa2hqfffYZH330ERcvXiSRSJDP5ykWi9tWVP2ubDZLNpvdsYt8SzAYJBAI4Pf7sdvtlWaD8XiccDhMKiW7q4UQolaeyJZsk8lEMBjk9ddf58CBA/zkJz9hfHyce/fuce/ePWZmZrZNjlcrmUySz+cJh8Ooqlq5wygWixQKhW2rtIQQQuyvJxIYiqJgt9tpa2ujpaWFw4cPc+DAAQYGBpiYmGBycpLZ2Vnm5uaIxWKkUilyuVxlgnw3EgpCCPH0eOJNn1RVxeVyMTg4yODgILquE4vFuHXrFr/85S+5ffs2U1NThMNhCQMhhHiG7EuXwFKpxMbGBrOzs5WhqbGxMe7fv080GiWZTD5Vp+UJIYR4tCcWGKVSiUQiwcbGBsvLy8zNzTE+Ps7IyAj37t1jZWWFbDa75xDUw6iqisViwWQyVfZkaJpGuVzesRJLCCHE/nligZHJZBgdHeWjjz7ik08+YWlpiWQySbFYrKyUetywALBYLDtWSeVyOTKZDIlEQgJDCCFq5DsFRjqdZmlpiZGREUZGRhgbG2N8fJzp6WlSqdQjh51UVcVutxMKhWhoaNi2D8Pj8VT+dDgc2/Zh3L9/nxs3bnDt2jUikch3+RGEEEJU6bEDY2tlUzgcZmZmhlu3bvHpp59y5coVVlZWdp3IVlUVk8mE0+msbMZzuVz4/X66uroqO71DoVBlp3coFMLj8ew4/vXixYtks1nu3bsngSGEEDXy2IFRLpcpFAp88MEHfPjhh9y4cYNIJEIqlaJYLO76PIvFgtfr5ciRIwwNDXHgwAF6enpobW3F6XRit9ux2WyVPlIWi2XbXYUQQghjVR0YmqaRTCaZmJjgyy+/5NNPP+XGjRuVszF+n6Io+Hw+mpub6ejo2PbV3t5OU1MToVAIr9e7bUJbCCHE06mqwCiXy+RyOaanp/n444/5u7/7OzY2Nh7amsNisVSGm3p6enjhhRc4e/Ysx44d48CBA1gsFgkHIYR4BlUVGIlEgunpaf7u7/6Ozz//nNXV1R1zFYqioKpqpYX5uXPnOHz4MO3t7fh8PjweT6VluRBCiGfPnoGh6zqlUomJiQk++OADLl26xP3793fMVTidThoaGhgYGODo0aMcP36c48eP09raisfj2e+fQQghRA3sGRiappFKpbhy5Qr/8A//QDgc3hYWW3cVDQ0NnD59mv/23/4bx44do6mpqRa1CyGEqKE9AyMWi3H+/HkuXLhAJBLZMQxVX1/P8ePHeeONN3j55Zfp7+/H5/Ptd81CCCEMsGtglMtlYrEYFy9e5NatW2QymW3fb2ho4NixY/zpn/4pr732GocPHzZ8tVOpkCUZWWFj9i6lwv4frpSJbRBfX6SQSaFpGtlslnw+h0sroygqyHyNEOI5smtgFItFNjc3uXPnDvPz8zu+f/ToUX784x/zF3/xF5WlsUbLJjdZHr9BfHUeq9O979crFXJk4mEysTCKViISieCNx/EWC5gsVhTF+NdECCGelF0DIxKJMDMzQzqd3tavaess7h/84Af84Ac/wOPx1DwsSqUSuVxuRx+pcrFANh6mkE2imiz7XoeulSkV85QLORR0lpeXyXzxMasbUQ68/Db+lh5U0740BBZCiJrbMzDm5ubI5/PbHvd4PPT29nLixAkOHz5cixp3yOVyJBKJHb2qtHKJQrkEufSuz90vJpOJclkjtbEApRxtXb24bSZU8/4H1+/Tcin0cpFSbBktX/vXYkspFUFBoZyOUozuvEutFS2fRisVUPJpw+ooJdbQtRJaNm7oa8E3r4dezFHaXEKx2A2ro5zZBHTKqQ2KUZexdWhy3EI1dg2MWCzG8vLyjsDw+XwMDQ0ZOrmdTCYfuhfESA6Hg4HBIQJ+P1arBWt4hGTiPgq1n8fQSwV0vUxq9CNQjGutomslUFWy8zfILd42rA7Q0Up5tGyMxPX/a0wFWgmtkCG3MkphY8qQGrZohQzoGsmvzxs6z6aXC+i6Rmb6C5TZa4bVga6hl/IoqgwhP8qugWGz2XC73TuGm3K5HOvr6+RyuVrU91BWqxWXy/VUzJtsUVUTbpeTQMcA9qYDhtZSWJ9EyyWwNQ+gWByG1VFOrpNfHcMS6MBcZ9xSa72UJ786hmqxY208aEgNWjZObmUUi7cFS7DLkBq25FfuopcL2JoHUWowdLubUnyZ/Pp9rPU9mNwhw+rQC2nyq2PouhyV8Ci7BobX66W5uRmr1brt8UQiwcTEBKurq6RSKVwuV81XRjmdToLBYOV8jC2KasJktmAyW2oyd6BpGlqpQLlURFHAbFKxBTtwHfzevl97z7oKaUqbZRzdL2JyBQ2rI790h9zKXWyNB7B3nDCsDi2XoBRbwuQKGPbfphidp7AxhSXYZfj7o5yOoOVTOPteRrUaNxSUnb1KYX0KW8sQtuYBw+ooJdcpRObgW5zX84dm10/VUChET08Pdvv2Mc5kMsnU1BSXL1+moaGBs2fPYrPZalFrxW53P1aHi7pQG95QG/Y6/77XUcymSWwsEt9YAv3pGR4TQoj9sGtguN1umpqaaG1tZWFhgXg8Dt+sUEqlUgwPD2O1WrFarfT39xMK1e6WUlXVh/alstpdBFp6aD5wAl9T577XkYlHWJ64TiGbppRc3/frCSGEkfacwwgGgwwMDLC4uEgikdh2xOq1a9eIx+NYrVbeeuutypkWqqoatnnPYnfhbeyg+eBJGroH9/16iY1FcqkY0aUpCQwhxHNvz4F+n8/HT3/6U4rFIvPz82Sz2W1LWVdWVnjnnXeYmpri3Llz/OhHP6KlpQWHw7iJViGEEPtjz8BwOBwcPXqUxcVFpqamuHnzJuvr65U7jVQqxcTEBKlUinA4TCaTYWhoiJ6eHpqbmx86zyCEEOLZtGdgmEwm6urqOHPmDKqqEo1GCYfDO07YW15eZm1tjS+//JKzZ8/yox/9iB/+8Id0d3fjdDr3+2cQQghRA1WtPQ2FQpw8eZK//Mu/pK2tjU8++YRcLret1bmmaeRyOUZGRojFYnz55ZccPHiQoaEhBgYGaGtrw+fzyQFKQgjxjKoqMFwuF52dnbz55pvY7XYKhQJjY2MsLy+TzWbRdb1y2NLKygqrq6uMjIxw584d7t+/z9TUFP39/ZXT97xeL263G5vNtmMvhRBCiKdT1bvbzGYznZ2d1NXVceLECf7qr/6KDz/8kPn5+R09nXRdJ5fLMTk5yfz8PB9++CGhUIje3l5OnTrFCy+8wMDAAM3NzXJ+hhBCPCMeazu02WzG5/Nht9v52c9+Rnd3N9evX+fOnTvMzs6SzWYrHWR1XadYLFaGrXK5HMlkkvX1dW7cuEEoFCIUCtHQ0EBTUxONjY00NDTg8Xioq6ujrq4Oi8WCqhrXC0kIIcRvPXb/DIvFgsVi4bXXXuPAgQP09fXR1NTE1atXWV5eJhqNkko9OFDod/dt5HI5VldXWV1drTzm8XhoaGigt7eXnp4eOjs7qa+vJxQKUV9fj8vlwmazYTKZtu3vWF5eJh6P77izEUIIsX++dcMlVVUJhUK8/vrrHDt2jLm5OX7zm9/w2WefceXKFbLZ7I7VVL8vk8mwuLhIOBzm1q1bWK1WzGYzFosFs9lMIBDA7/fj8/mw2WyYzQ/KXVtbY3Z2lmQy+W3LF0II8Zi+U4c+i8WC3+/H6/USCARwu910dHRw+vRp5ufnWVxcZGlpifX1dVKp1LY7Dr45BrZcLu9oob7F5XLhdDpxOp2YzebKno5cLkcqlTK0Y64QQvyheSItXVVVxev1Via0k8kkIyMj3Lhxg2vXrjE6OsrS0hLpdJpisUipVNoxZPUw6XSadNq4A4CEEEL81hPvAa6qKm63m8HBQdrb2/ne977H2toao6OjXLp0iampKZaWlipzEI8KDSGEEE+HJ74ESVEUVFVFVVVKpVJlZdT6+jrxeLwytyFBIYQQz5YneoehaRrlcplcLsfc3Bw3b95keHiYr776iunp6YfOY1Rjt93hEjpCCFE7Tyww0uk009PTXLt2jatXr7K4uMja2hrhcJhoNFrZEf64LBYLHo8Hq9VamfQuFovkcjkymYwsrRVCiBr5ToFRKBSIx+OsrKwwOzvLyMgIX375JVevXmVzc3PX1U9bFEXBbDbjdrvxeDy43W7sdjs2mw273Y7dbsfpdFJXV7ctMFZXV5mZmWFyclKW1gohRI18p8BIJBKMjIzw3nvvceHCBWZnZ0mn05VVUI9iMplwu9309fVx4MAB+vv7aW5uruz8bm5uxuv1YjKZtg1LDQ8P86tf/YpwOCyBIYQQNfLYgVEulymVSly6dIkvvviCGzduMDk5yeLiIslkctfNehaLBZfLRVdXF52dnbS2ttLc3ExjYyOBQIBAIIDP58PpdG7bf2Gz2XbMYdjtdiwWi3S+FUKIGqo6MHRdp1AosLGxwezsLOfPn+fTTz9lfHx8W5vzLYqiYLPZcLvdeL1egsEgTU1NDA4OcujQIfr6+ujo6KCxsfGh53MLIYR4ulQdGJqmsbGxwaeffsrf//3fMz09zfr6+q6Tzqqq0tjYyNGjR3nppZc4fvw4hw4dwuVyYbfbsVqtlRYgEhZCCPH0qyowUqkUq6urvPfee/z617/mzp07pFIpCoXCtr+3FRJdXV0MDAxw8OBB+vr66OrqoqWlhVAotK2JoBBCiGfHIwND0zTW1tb46quv+D//5/9w48aNHaufzGYzDocDv9/PkSNHOHv2LD/4wQ84cOAAgUBgP+sXQghRI3sGxtaxq1999RV//dd/zeTk5EPnK/x+P4cPH+bf//t/z/Hjx+nu7sbn8+FwOPazdiGEEDW0Z2Ck02muXr3KpUuXuH37duWciy0ej4fOzk5OnTrFmTNnePXVV2lra6Ourq4WtQshhKihXQND13VisRjvv/8+ly5dYnNzc9v3LRYLra2tvPnmm/zZn/0ZZ8+eNXypq65rlEtFSvkMhWxq369XzGUoFwvo2oOlxJqmoeka6DrIPI0Q4jmza2AUi0U2Nze5c+cO8/PzO75/9OhR3njjDf7jf/yPdHV1PRWrnbLJTZbHr5NNRHF66/f9eoVsks3lGZKRFfRSiUgkgicex1UqoprMKHK8rBDiObJrYCQSCZaXl1lZWSGRSFQet1qtuFwuXn75Zd566y2Ghoaw2+21qhe++U2+WCzu6E1VzKaJrcySiW1gstj2v45ykUI2TSGbRqXM2toajN0iZwnQ1H8Ml69BQkMI8dzYNTDC4TDT09M7TrVzuVx0dHTwwx/+kDfeeMOQu4pisUg2m93RfqRcKpBNRskmN3d97pP329BaWlpibeMDZse+5tX/5//D4QlgUq01rEUIIfbProERi8VYXl7esdfC5/MxODiIz+czbAgqmUyytra2R3PD2rc9dzgcdPX0UVfnwe5wYQ2PkPp6FUU11byWUnwFrZgldfdjFNP+32ntRsvGUVQT2fmbFMKzhtWha0XKmRhaIUPixr8YUoNWSKMVMuRX7lJORw2pYUsxOo+ulUjefh9FfeJnqFWtnI6ArpGd/pL8yj3D6tBLOfRCGgz4t/qs2fXdUiqVKBQKO36LN5lMOBwOzGYD32jl8kOHpIxksVhpaW0h1NqNzfNg/kQvpA2ILtDLRdA0tHwaRd27Y/B+0oo5QEEv5dByiSqesT90vQx6Gb1cNKwOvZQDXUMv5Q19Lai8P8po+SSKYtyHpF58MHqhFbOGLhLRy0V0/dHNUsUegeHxeGhoaMBisWx7PJFIMDExsW1eo9ZcLhf19fU7ajOSooBZVXA2HcR16PuG1pK+928U4yu4B9/C5PQbVkd+dYzk7fewd5zA3nrEsDq0XIrknfcwOXy4h/7YkBqKm0ukbp/H1jKIs/dlQ2rYkrz9Hnohg/vov0O1Og2rI7dwi/TYpzh7zmJt7DesjnIqTPL2e6A9vHGq+K1dA6O+vp6urq4dE9rJZJLJyUmuXbtGS0sLBw8erPkHt91ux+Px7LjLsdicOL1BnN56rA73vtdRKuTIJCJk4mEAFEAxWVBt+3/tPZksKIqKanUaWotqtlX+NPQ10TUURUUxmQ2rQ7U6QFFRTFbD3x+KyYKumlBtLlSry7g6zDZAQbHYDX1NtEIGFFmcUo1dA8Pv99PR0YHf78dms1XmC7LZLNlsluHhYXw+X+VOpJa7urdakai/twLJ6nDhb+kh1HWYuvqWfa8jm4qxMXuXjdkyeja279cTQggj7RoYdrudYDBIb28vi4uLO/ZiXL58mXQ6jclk4rXXXmNgYKAW9e7J6nDjb+mhffAM9Z2H9v16yfAKerlMMrxCVgJDCPGc2zUwVFXF7/fz1ltvkclk2NjYoFAoVA5IisVi3L17l3/5l39hdXWVM2fOcPz4cfx+P1arMUtJFdWExebA5vbhqAvu+/WK+SwWuxPVwAUAQghRK3t+0tXV1fHWW28RjUa5desWq6urpNPpyvc3Njb4+OOPmZ6eZmpqCoCDBw9SX1+PzWZ7KnZ/CyGEeDL2DAyTyURdXR1nzpwhkUjwv//3/2ZsbGzHUtvl5WUuXLjA9PQ0p06d4ty5c5w+fZrm5mZsNuP2AQghhHhy9gwMRVGwWq309PTw5ptvEo1GcTgcjI6OUiwWK8NTmUyGbDbL+vo60WiU1dVVJicn6e/vp7Ozk+bmZvx+P06nU+44hBDiGVXV4HswGKSurg6bzYbf72dlZYVYLEY2m61snts68/vevXuMj4/z/vvvc/jwYV5//XVeffVVhoaGaGlpwWQyVU7dk/AQQohnR9WztSaTic7OTt5++23a2tp49913uXLlCuvr65U7jS26rpPL5ZiamiKRSPDll1/S2tpKV1dX5djWjo4OAoEAbrfBexaEEEJUperAUFUVn8/H4cOH6ejoQNd1vF4vIyMjLC0tEY1GK+06dF2n9E2770gkwtjYGG63m+bmZg4dOlQZqmpqaiIUCuHxePB4PLjdbux2OzabDbvdjslkkrsQIYR4Sjz2elCr1UogEOA//af/xEsvvcRnn33GBx98wBdffEEikaBUKj30eel0munpaebm5vjkk08wmUz4/X5aWloYGBioBEljYyNNTU2VCXMje1YJIYT4rcf+NN76jd/hcNDe3s4bb7xBZ2cnb7zxBl9//TVff/014+PjOxoX6rpOuVzeNnxVKpXIZDJEIhHu3r2Lz+fD6XTidDpxuVx4vV48Hg8ulwuLxYLJ9KBR2vT0NHfu3CGV2v9T9YQQQjzwrX99VxQFj8dTuTM4deoUBw8epKWlhWAwSDgcJhaLkUwmSafTD+0um8/nyefzRKPRyj6O3+Xz+fB6vZUJ963ASKVSxGKxbXtChBBC7K8nMt6jqirBYJDXXnuN48ePEw6HuXPnDjdv3uT69euMjY2xsbHx2O3It8JmbW1t26oqTdMol8u7Dn8JIYR48p5IYCiKgtlsrgwfBQIB6urq6Ozs5OTJk8zPz3P//n1GR0dZW1sjGo2STqfRNG3PENkawioWi0+iTCGEEN/BE59RVlUVu91Oa2sr9fX1HDhwgPX1dW7fvk2xWETTNLLZLLlcbseOcSGEEE+vfVmCVCqVWFlZYWxsjFu3bnHr1i3u37/P0tIS6XSafD7/1J2YJ4QQYm9PLDDy+Tzr6+vMzMwwOTnJ/Pw8MzMzTE9PMzMzQyQSIZfLPX6BZnNlee3W+Rdbw1T5fF7uUoQQoka+U2BsbdArFouEw2Fu3rzJv/7rv/Lxxx+zurpKNpt95P8PRVEwmUyVL0VRUFW18mW32wkEAtjt9sqejHQ6zebmJuFwuHKwkxBCiP31nQIjkUgwPT3Nl19+ydWrV5mcnGRhYYH19XUKhcIjn28ymXA4HLS1tVW+AoEAgUAAv99fmTzfWlK7tUrq9u3bXLp0iYsXL7K2tvZdfgQhhBBVeuzA0DQNTdOYnJzk7t273Lx5kytXrjAyMkI4HN51RZPJZMJqtRIMBgkEAvh8Pvx+P8FgkNbWVlpaWmhpacHv9+Pz+SrfdzqdO45iVRSF6elpaZ0uhBA19K0CI5fL8cEHH/DLX/6S69evk8vlHjmBvdVS5NSpU5w6dYojR45w8OBBOjo6sFgslQ62v0v6SAkhxNOj6sDQNI1oNFqZp7h69Srj4+Pk8/mHhoWqqoRCIbq6uhgYGKC/v5/u7m4aGxsJhUL4/X68Xi82m01anQshxDOgqsAoFArE43GuXr3KRx99xC9+8Qs2NzfJZDLb/p6iKLjdbvx+P42NjfT19TE0NMSxY8c4ePAgnZ2dcmyrEEI8o6oKjHg8ztjYGH/zN3/Db37zGzY3N3csZ91a3dTZ2cnZs2d56623GBoaoqmpCavVWmkeKGEhhBDPpj0DY+sUvVu3bvHOO+9w584dNjc3dxyY5PV6aW9v5+zZsxw7dozDhw/T29tLfX09Tqdzv38GIYQQNbBnYBQKBRYWFvjiiy84f/78jrCwWq14PB4OHDjAiy++yJ//+Z9z6NAh6uvra1G7EEKIGtozMGKxGO+++y6fffYZkUhkx51FfX09586d4+233+aVV14hFArJHYUQQjyndg2MUqlELBbj/2/v3p/bOu87j7/POcDBHSAAguBd4kUiTcmWLMm2osSVJnU69WUz4+aHtr9sp/2bOp1Of9vOtLOdemd3Z1MnTSPbSSxHsmPJkUSaImneQYI33O/AOWd/kAiZoSRDtoAjKd/XDMcegML5guLgo+c8z/N9Pv30U2ZnZw/trxgZGeG1117j3Xff5cyZMxw9evSBS2M7qVbOs7c+j0P3kN5YbPv1yrkU20vTlHMpDMMgl8sRLhXwGg0UVeZrhBDPl4cGRqVSYXd3lzt37rC5udl8XFVVNE3jzJkzvP3227zzzju2jCoe1EOqUsiy9dUtslurOF3tr8lo1KgUslQKGVSrwe7uLr6tTdx7STyhKE7dDRIaQojnxEMDY3d3l8XFxUMNA30+H/F4nB/96Ef88Ic/tGW3db1ef2B7dKNRo5xPUyvnUVSt7XVYpolpNDCNOlgWiUSCbOV91laWOfXn/52eo1OoDmfb6xBCiE54aGCkUinW1tYONfcLBoMcP36cY8eO0d/f34kaDymVSqRSqUO3ySzTxDCrGPXONyR06jrBrjBel4qzlKSRnKGiVlC0tnSQfySjsItZr1DdmEbRfR2//r5GdgNFUamnVm1tZW81Kpi1u3uGyiuf21KDUUxhGTUa2Q3barhfyx5Wo0Zl7SaKQ7etjnpqDbCo7XzV/Puxg1nNYzWqcjegBQ/9NMtmsySTyUNNBIPBIJOTk4RCoU7U90CFQqHlBoed4nF7eGHqBNFoFKemQXqOYnrOnmJUDVAo3vkQ7DxyRFFAdVBZvwVrv7exDlBUB0Ypc+9DqvOSiaa7AAAdjElEQVQsLLBMqlt3qG3N21JDsxbr7si8OPOfd384NqvYHKD7vx+duCvxrHtoYAQCAXp6enA6D95SyeVyzM3NkcvlOlHfA/l8Prq7uw/VZidFAYeq4Ok9jnf4ZVtrKa/ewCil8B59FdUdsK2OemqN8vKnuIfPoHeP2FaHWStTXv4U1eXDc+ScLTU0CjuUF6+hd4/g6j9hSw37SotXsRpVPCOvoTrdttVR2/mKytoXeEZewxketK0Oo5ylvPwplmm08N1/3B4aGOFwmIGBgUNzFPl8nvn5eb766ismJyfp6elB0zqbzB6Ph3A4fCgwNIeO0+NFd/vQnO2fWzGNBvVykVqlCICqgNPfbfsHQm1vGatWRI8fQ/NF7SvEMiktmTi7+m39mZiVHNXETTRPyLY61NQqlZXraIEe238/qslZzGoBV98kqo23LM1aCdZ+jzMyjKvvBdvqaOS3qax9AXIC6Dd6aGDEYjFGR0dxuw/+CySfz1MsFrly5Qq9vb386Z/+KR6PpxO1NrlcLvx+/6Gg0j0+wn0jhPtH8Xa1f/NgrZQntbFEZnMJGvbdgxVCiE54aGB4PJ5maGxubrKzswP32oUYhsEnn3zS/N5Tp04xNDTUmYrvedAeB6fHR7h/lMET5wn3j7a9hmJmB9WhU8mnqWUkMIQQz7eHBobT6WyeX7Gzs9NsC7K/2mVubo5qtYqu6xSLRV555RXi8Thut7vjt6j2OZxufOEeIoPH6Blp/7A/t7NONrmC0+Ojlmn75YQQwlaPXPPZ1dXFT37yE8rlMtPT0xSLxQNLWTc2NnjvvfeYnZ3lT/7kT/irv/orjh49is9n331RIYQQ7fHIwNB1naGhIS5cuMD6+jofffQRq6v319TX63VSqRQzMzPNvRGnT5/mxIkTjI+PP3BiWgghxLPpkYGhqio+n4/Tp0+jKAqpVKoZDKZpNoNjd3eXVCrF9PQ0L7/8MhcvXuT1119nbGyMSCSCx+PB5XLhcHR+E5sQQogno6VP8Gg0ytmzZ/m7v/s7ent7+fd//3dKpdKBjXOWZVGtVrl9+zaJRILLly8zNTXFuXPnOHPmDOPj43R3d0tDPiGEeEa1FBgul4toNMq5c+fQNA23283Vq1eZn58nl8s1RxuWZZHL5cjn8ySTSba3t0kkEkxPTzMyMsLw8DD9/f3E43Gi0Sh+v9+WXlRCCCEeX8v3iDRNY3BwsDna+Md//EcMw2BhYYFyuUyj0WjeotofbSwvL7O8vMx//dd/EQ6HGRkZ4dVXX+XMmTNMTU0xMDBAJBJB0zQ0TUNV1eaXoigyGhFCiKfIY08q6LpOJBLhL//yLzlx4gRXr17l6tWrzMzMUCwWDx2ytK9QKLC4uEg6nebq1asEg0Gi0Si9vb0cOXKEoaEhBgcHiUQiza/9c8CFEELY77EDY3808MILL9DT00M8Hqe/v5+xsTEWFxdZW1tja2vrwIiDeyuqMpkMmcz9DQs+n49wOMzg4CCDg4P09fXR1dVFOBwmHA7j9/ubE+aadv9Aolu3bpFIJA510hVCCNE+33rZkqqqxGIxLl68yIULF9jY2OCXv/wlP/3pT/nwww8plUo0Go1HvkaxWKRUKpFIJPj000+bj+8HQ3d3N93d3UQiEdxud3OJbiaTYXt7m3w+/23LF0II8Zi+8zpXRVFwOBzEYjEuXbrEyMgI77zzDgsLCywsLDA/P8/a2hrZbPaBp+R9fd7jD2WzWSqVCjs7O805DoBarUalUnmq2psLIcTz7olsjNjfrzE+Pt6c2J6fn+fLL79kenqaubk5VldXSSaTFAoFSqUS9Xr9gQHydZVK5dCJf0IIIezxxHfSaZqGz+fj5MmTHD9+nDfffJNUKsXNmzd5//33mZmZYXl5mb29Per1uq0nsQkhhGhdW7ZeW5ZFJpMhkUiwuLjYHG3cvn27OffwsNVUQgghnk5PLDAMw6BcLpPNZtnb22N5eZnp6Wlu3LjBzZs3WV9fp1QqPfaIQlXVA/MX3Ask0zQPdM8VQgjRXk8sMEqlEjMzM3z44Yf86le/IpFIkE6nKZVKzTYi3+bD3el0EgqFDvSiqtVqlEolCoXCge65Qggh2uc7BUapVGJ7e5v5+XlmZ2f58ssvuXnzJrOzs+RyuW/8MFdVtbkRMBqNEolE8Pv9+P1+fD7fgf93OBzNTXxLS0vcvn2bmzdvkk6nv8tbEEII0aJvFRiWZVEsFkkkEty4cYOf//zn/OY3v3nkZjpFUZoB4XQ6cTqduN1uQqEQY2NjjI+PMzY2Rjweb24IjMfjBAKBQ7u9f/3rX+N0OllaWpLAEEKIDnnswDAMg1qtxvvvv88HH3zA559/zubmJul0+pEjCl3XCQQCTE5OMjk5yejoaLMZYSAQwO/34/V60XUdl8uFruvoun5g7kIIIYR9Wg6M/VHF8vIyX3zxBT/72c+4du0aKysrD9zRrSgKgUCA7u5u+vr66O/vZ3BwkLGxMY4ePcrQ0BC9vb3N5oPSaFAIIZ5uLQWGZVk0Gg2SySSXL1/m7//+79na2npgaw5FUdA0DYfDwcDAAGfPnuXixYucO3eOqakpHA6HjBqEEOIZ1FJg5HI5VlZW+Jd/+Rc++ugjksnkoR3Y++3Ih4eHmZqa4pVXXuGFF17g6NGjxGIxIpEIDodDRhJCCPGMemRgWJaFYRgsLS1x+fJlfvGLXzA9PX1orsLtdjfPu3jppZc4e/Ysr776KkeOHCEUCrX7PQghhOiAbwyMSqXCp59+yj/90z+xsbHxwIntcDjMmTNn+Nu//VtOnz7NwMDAgWWwQgghnn2PDIxsNssvf/lLPvroIzY2Ng7dhopEIkxNTfH6669z4cIFXnzxRWKxGG63u911CyGE6LCHBoZpmmQyGS5fvszvfvc7CoXCgee7urqYnJzk7bff5o033uDUqVO2z1EYjRrlXIrs1iqaQ2/79YrpLYqZHRrVcvNY2nq9hmWaKKoCyHyNEOL58dDAqNfrpNNpbt26xcrKyqHnX3rpJd566y3++q//mlgsZntYAJTzaTbuXCe3u4Hb3/65k3qlRCGVJL+3idJokEqlCGWzBBo1NId+LzSEEOL58NDASKVSrK6ukslkDhxU5PF4CIVCXLp0iTfeeIPe3l50vf3/mv86wzCoVquHelM1qmUKqU0qxQyaw9n2OkzDoFEtU69VUCyDjY0Nqp//mr1CjdGzPyTYM4wq8zhCiOfEQwNjv+PsH85b+P1+RkdH+d73vsfZs2c7UeMh1WqVQqFwaMOgaTSolvJUS50/ulVVVYrFEvWvblFIbdHdO4DX40Fztj+4/pBVr2KZBkYp08J3t49ZLaKgYFaLGMU9G+soYJkGZqNqWx1GOYtlmVj1kq0/CwCrUcUy6hjFNFbdvgPKzFrx7n8reXt/P0pZsB59mJu466GBkclk2NjYOHQMaigU4sSJE3R1dXWivgfK5/Mkk8mn6ohWj8fL1MmXCIWC6LoTffc2heKyLbfpzGoRy2xQmP5PFNW+EY7VqKE4nFTWblDdnLGvDsvErBYxK3lyn79nTw2NGlatRGVjhnpqzZYa9hmlNJZpkr/5/1AU+zbRmrUSYFFa/C2VtRu21WGZBlatiKK15Xig58pDf0KapuF0Og994BmGQbFYfGA7kE7RNA1d122fM/k6zaHR1RWi5+gUru5hW2tppNcwqyUcwV4Up8u2OsxSGqOSRfV0ofmjttVhGXXqeysoDh1HeNCWGsxKHqOSQ3MHcYQHbKmhWUujimLUcYb6QOv8CHifkd/GrORx+KOo3rBtdVj1MvW9MsjZOt/ooYERDAaJx+OH5idyuRxzc3OkUinq9botk90+n49oNHqoNkVRUFQNRVE7MuFsWRaWad5dFQVoioU7NoL/5J+3/dqPkr/1HzTS6/gmLqL57PugriZuUd1ewD1wEvfwGdvqMCs5cp+/h+aLEHjxbVtqqKdWaWQ20OPH8U1csqWGfbnr/wuzWsA39SNU3WdbHeXlz6in1nEPn8XV94JtdTTy2+Ry72GZcgroN3loYMRiMUZHRw/tqcjn8ywsLHDlyhVisRhnz57t+KS3ruv4/f5DGwOdHj+BaB+BaC9uX/tvmdWrJfJ7m+T3NgH5ZRNCPN8eOcLo7+8nHo+zurrabDRYq9Wo1Wp88skneL1e3G43R48eJRzu3JDyYbekdLePcP8oveOnCPUMtb2Oci5FcuELGrUKRmG37dcTQgg7PTQw3G433d3djI+Ps7Kycqgz7ZUrV0ilUui6zptvvtnRwHgY3eMj0jfC0InzxEZOtP16uZ0EjWqZTHKVogSGEOI598hlAV1dXfzFX/wFhmGwtbVFpVJpTnZblkUikeC9995jeXmZCxcucOnSJeLxuI2tQRRQFFDUjqz+UJT967X9UkIIYbtHBobP5+O1114jmUwyOzvL7OwsqVSquWEum81y/fp1dnd32dzcpFarMTU1xdDQENFoFLfbLQ0IhRDiOfHIwNA0jWAwyPnz52k0GvzDP/wD6XT60A7rjY0NUqkUN27c4Pz587zxxhtcunSJ4eFhPB5Pu9+DEEKIDvjGnSqqqtLX18eFCxdIpVLEYjE+/vhjqtVq8/ZUo9GgWCxSrVb57LPP2Nvb48aNG0xMTDAxMcHY2Bi9vb0Eg8Gnau+EEEKI1rW0tTEYDOL1evnxj3+Mz+ejUCiwvLzM7u4utVrt7n4Ey6Jer7OyssLa2hrXrl1jfHycc+fOce7cOSYmJhgcHMTv9zdXVzmdTrllJYQQz4iW98JrmsaRI0d4++23mZqa4p//+Z/54IMPSCQSh3s6mSaVSoWFhQU2Nzf54IMPiMfjjI6Ocvr0aU6ePMmxY8eIx+MEg8F2vC8hhBBPWMuBoSgKbreb/v5+urq6KBQKDAwMcOPGDebm5lhfX6darWKad5t4maZJqVSiVCqxs7PD9vY2GxsbrK2tcePGDfr6+ujp6SEWixGLxYhGo0QiEfx+P36/H5/Ph8PhQFXt63UjhBDivsfutuV0OgmFQrz11lucOnWKK1eu8Itf/IKrV6+ys7NDoVB4YOvx/fBYW7vfeC0UChGPx5mYmOD48eOMjY3R09NDPB6np6cHj8eDy+VCVVVUVW3OfxQKheatMCGEEJ3xrdszKopCLBbj4sWLTE5O8s4773Dt2jU++eQTrl+/TrVaxTAe3S6jWCySSCTIZDLcvn27GRC6ruNyuQiHw0QiEaLRKIFAAJfrbiO99fV15ufnKZVK37Z8IYQQj+k7BYbb7W7eWhoeHqanp4fBwUEmJyfZ3NwkmUyytbVFKpWiXC4fPvCo0WiusHqQQCBAMBgkFArh9XqbgVEqlchkMhIYQgjRQU+kAbymaUQiEX7wgx9w/vx58vk8N27c4Nq1a/z2t7/l1q1bJJNJGo1Gc0XV/tej5PN58vk8iUTiSZQphBDiO3jiJ4ZomobP5+PEiRP09vby/e9/n2QyycrKCvPz86yurrK+vk4ikaBYLFKv1590CUIIIdrgiQeGoijouk48Hicej2NZFpVKhWQyyZ07d5r7NNbW1tjb2yObzVIoFCgUCs3Nf5VKhUql0tIoRAghRGe0/UzC/bmO4eFhBgYGME0T0zQxDINkMsny8jJzc3PMz8+zuLjI9vY2W1tbJJNJ6vX6N06cCyGE6IyOHGKrKAqaph3a1a1pGoFAgMHBQc6cOUM2m20uvy2VSuTzeXK5XHOCe/8M70QiwdLSEpubm5TL5U68BSGE+KNn66nnXq8Xr9dLb2/vA5/P5XKk02l2dnbI5/NUKhUArl+/jqZpZLNZCQwhhOgQWwPjm/j9fjweDz09PRiG0ZzPUBSFRCLBzMyM3SUKIcQfjac6MPZ3eDudzgOP7+/JkLYhQgjROfKJK4QQoiUSGEIIIVoigSGEEKIlEhhCCCFaIoEhhBCiJRIYQgghWiKBIYQQoiVP9T6Mx1WrFElvLpGYuUphd6Pt1yvl9thbm6OSz7T9WkIIYbfnKjDq5QLpjUUatQo7K7Ptv16lRH53g0ohjbOF7xdCiGfZcxUYtXKR9MYima1VFKUDd9ssE9M0MA0DZ8Df/usJIYSNnsnA2G8ZoijKgccty8RomNDo/KFMFmCaFtXdJZj+z45f/+sa6TXMSoHS/McoTrdtdRjFXRRFoboxTSO/Y1sdllHDKGex6hUKNv3dmJUcVqNCfWeBQqNqSw37GtkNMOoUZz9E0ewbGzdyScCksnaDemrVtjqsWgmrVmR29g7/+q//alsdTxOHw4Hb4+H06dMMDw3df9zWqr4ll8tFMBjE4Xh6yjcNg2wuh7I8jWtjnoGBAfx+vy39rpSQjtIVxTJ3sGr2HUCluFSUI8NYZg2rZt8HgqIoKD1ddw/ksqkORVNQ+uO21rBPjXgBsMwklmHj74dHQRkawrLufmDbpdFosGfVWU5ssbJbsK2Op4lTsfBoBj09Pc9+YPT19XHy5En8/qfnNlCpXGb69i10XScWi/Huu+9y/vx5fD6fTRUp98Y9NlMUeCpOTXxKfh7iqbO1tcX//Ld/I6X14B37vt3lPBXqO1+Ru3OZ+r0ziPY9k4ERDoc5ceIEP/nJTxgfH2d7e9v241z3D4nq7u7m2LFjvPzyy4yMjOByuWyrSQjxzRRFQXc6UTUvjmDc7nKeCkZ+m4ZhYJrmgcefycDw+XyMjY3xN3/zN8zNzTEzM9M8+tUuqqricDg4duwYL774IpFIRMJCCPFceSYDg3uTMrFYDK/Xy/j4OIDtIwxFUfB6vQQCAXRdt60WIYRoh2c2MBRFwePx4PF46O7utrscIYR47klrECGEEC2RwBBCCNESCQwhhBAtkcAQQgjREgkMIYQQLZHAEEII0RIJDCGEEC2RwBBCCNGSZ3bjnhBCPB8sLNPCNA2wzK91rFBQVAVV1e6e7/MHxznYQQJDCCFsZBoGjVqZSj5LvVrCuHeej6o5cOguPIEITpcH1WH/uZ4SGEII0UGWaVDOpSiktymkkpTzaaqFDNVinka9imncDQxF1dAcOi5vALe/C08wgj8SxxeO4+uKodhw1o4EhhBCdIBlWZhGg3q5wO7aHJtz10l8+RnpjUVK2b1mUDyIt6ubcN8I/RPn6Dt+Bsexl3G4PWgO/dDJo+0kgSGEEG1mmQa1SpHk/Bes3vyYvfV58rsblPNp6pUSltl45J+vFnPsrS9Qyuyy9dVNVn7/K46+/EN6x17C5Qt2bLQhgSGEEG1k1GuU8ymSC79n7dYnrN3+hEJqi3q19FivYdRrVPJpCqkk6eQSlmlh1Kv0HT+DyxdE68AchwSGEEK0Ua1cYG9tji9+9j/YWfmSWrnwnY4trlfL1Hcq3Pnkp+T3NvF2xYj0j0pgCCHEs8oyTYxGjfXpq8xf+zmZ5AqNavlQWCiqhssbINjdjzvQhcPlxTINqsUcpewehVSSRq3yh69OvVoivbHI7G/+D8fOv8ng1Gttf08SGEII0Qb1apnczhqJ2c9Yn/4t1VIe07g/V6E5dXS3n0B3H6H4MJH+UTyhbnS3D9M0KOfTFPaSpBILZLfXKKSSWIaBZd09itps1Cmkt1i9+THhvhFiRyZxuv2omta29ySBIYQQbVDO7bH4+QdsL96mUsximQdHFm5/F9GhCSa//9/oO34Gd6ALVXOgKAqWBZZl0qiWySSXWfzdZb78zf+mVipgNGrN1zBqFXI76+ytzZFaXyA6PInu8bXtPUlgCCHEE2bUqxTTW2zMfkZ2Zw3LNJvPKaqGNxSlf+Icx7/3Nt1HJglEe9GcOnBwiazu9qI5nBj1Goqqsvj5ZTKbS83d4JZlYRkNMlsrbC3dJhgflsAQQohnSaWYJbe9zt7aHcrZvQPPaQ4Hkf4xBk+cZ/SVH6EoykP3UiiqhjsQJj72Eu5AmPTmIsX0FvVqGc2hoznvfmFZVPKZA7e82kECQwghnrBscpXdtTkaterXekPdpTndDJ28QP/xM6iK0lKPKKfHRzA2QHTwOPndDTKby/ij/QR7Bgn1DBHuHyE6eAyXx9/GdyWBIYQQT1x+d4NMcrnZF2qfQ3fjDUUJD4wS6O5vuaGgqmrobh8DL7yKJxihnE/jCYTxhqJ4QlE8gQieQARNd7fpHd2rv62vLoQQf4QK6S1y2+uHbhHpHj+B7n78kTguX/CxXlPVHAxMnqN/8tzdliCq2tG2IEhgCCHEk1fOpylmtjEN48DjLn+IUHwYh8vz+C+qKPcmxgGl82GBBIYQQjx59UqRainf3DOxz+ny4A1G0Rz6t3pdRW3fHotWSGAIIcQTZjTqGPXaocc1h47u8aPa/MH/bckRrUII0SGaU0f3+lG1Z/Pf6hIYQgjRIeq9Q5HsOPzoSXg2qxZCiGeQZVlYB87tfrZIYAghRIeYRv3egUlGC9/99JHAEEKIJ0yBB27KMxp16pUiliGBIYQQgofvkzDqNWrlIuYzOsJ4NqfqhRDiKaZ7fLh9oXttze/vxaiVC+T3Nh9wINI3s0yD9OYSuZ0EpcwO3q4Yvq4efOEedI8fh+56wu/iMAkMIYR4wjyBMN6ubmrlAsbXAqNazJHfWadWKWKZxmNtxDMNg+2ladZnrrG7MktkYIzo4HGiQ8fwR/vwdXXj8oXaumRXAkMIIZ4wXzhOMDZIbjtxoAFhrVwgt7tBMb1NtVTA7Q+1/JqWaZDZXGZneYZMcoX83iYbdz7H6fISig/TO/4Sk6+/iz8Sb9O7ksAQQognLhgbINw3ysadz6F6/3HTaFAr5dlZmiYQ6aVv4mxLr1crF+61NV8iv5OgVipQK+Wbz1uWRbBnsO3nYciktxBCPGHBnkEig2M4XR4U5eDHbKNeJTH7GcmFL2jUKt+4xNYyDYrpbbYWfk96c5lyPg0c3Mfh8vrxhqKojvaOAWSEIYQQT5gnEKGr9yjRoeOYhkEpu9t8zjQapDeWWLl5Bafbx8DUebp6jzx4VVWjTmFvk9Xbn3Dn4/9Lbmf9gdcLxY/QO3YK3dW+41mRwBBCiCfPobsJRPsZOnmBeqVMOZ++27nWsrBMk0ohw97qHRQFauUi3cOTeIIRHC43mubAtEzqlRLlXIq9tTnWZ66yvTR96JaTw+nCE4wQGRgl3D+K1uaVUhIYQgjRBt6ubo597y3ye5tsL93GqNewvnYrqZDZppjdYWf5S7p6R+g9dgp/pBeX10+jXiO7vcre2hw7yzOUc+kHzk/oviC946eJDk3g64q1fILftyWBIYQQbaA5nHgCEYZf/D6NaoXlL35FKbtzf1+GZWFZFpVijvTGV1QKaZxuL6rmwLJMauUC1WKOaiH3wI1+ujdAZGCc8df+nOjgsbaHBRIYQgjRHoqq4XR56Bk5ASjUygW2l25T2EtiGo3m4UpGvUqpXqWU22vpdVXNgUN30z08weDUq/RPnMUbirb53dwlgSGEEG3k7YrRP3EGlzfAwrWfM/fb/6BazGE0Dh+w1Aqny0ugu5+JC+9w9OVLeELRjp2vIYEhhBBtpKoausdPZGCMsVf/DH+0l92VWVKJr8hsrdCoVjCN+iNfw6G7cXmDdPUdJTo8QXzkJPGxl/B1xdA0R0duRyGBIYQQ7adqDjzBCP0TZ+kenmBz7jqb81/gXvg95XyaeqV49zaVad3fY6EoKKqKpjlx+UP4I730HX+Z3vHTxMdOoWraA5fitpMEhhBCdMjd0UaA/olzdB95gckf/JhSZodSdpdSZpdGvdZcDaU5dZxuL76uGN5QN55ABKfbi9PtsyUskMAQQogOUhRUTcPlC+LyBQHwR3qplfJUSwVMo95cRaVqDjSnjssXRHf7cLg8NhcvgSGEELbSPX50jx9/ZxY6fSfSS0oIIURLJDCEEEK0RAJDCCFESyQwhBBCtEQCQwghREskMIQQQrREAkMIIURLJDCEEEK0RAJDCCFESyQwhBBCtEQCQwghREskMIQQQrREmg8KIf6oKYqCw+nEyu9QXrpmdzlPBSOXRHc6UdWDYwoJDCHEHzVN0wgGguzuLlFbWLe7nKeCw+HE39WF7nIdeFyxLMuyrSohhLBZpVJhbW2NYrGEaRp2l/NUUBQVTVMZGhoiHA7ff1wCQwghRCtk0lsIIURL/j/GVY+vC2s9DgAAAABJRU5ErkJggg==;" vertex="1" parent="1">
          <mxGeometry x="2110" y="351" width="396" height="398" as="geometry" />
        </mxCell>
        <mxCell id="EplgCJx75FvECkNWApzD-10" value="" style="html=1;shadow=0;dashed=0;align=center;verticalAlign=middle;shape=mxgraph.arrows2.arrow;dy=0.6;dx=40;notch=0;fillColor=#000000;" vertex="1" parent="1">
          <mxGeometry x="2530" y="515" width="100" height="70" as="geometry" />
        </mxCell>
        <mxCell id="EplgCJx75FvECkNWApzD-11" value="" style="html=1;shadow=0;dashed=0;align=center;verticalAlign=middle;shape=mxgraph.arrows2.arrow;dy=0.6;dx=40;notch=0;fillColor=#000000;" vertex="1" parent="1">
          <mxGeometry x="3050" y="520.5" width="100" height="70" as="geometry" />
        </mxCell>
      </root>
    </mxGraphModel>
  </diagram>
</mxfile>
